  0
SECTION
  2
HEADER
  9
$ACADVER
  1
AC1032
  9
$ACADMAINTVER
 90
       55
  9
$DWGCODEPAGE
  3
ANSI_1252
  9
$LASTSAVEDBY
  1
Robotica
  9
$REQUIREDVERSIONS
160
                 0
  9
$INSBASE
 10
0.0
 20
0.0
 30
0.0
  9
$EXTMIN
 10
-102.8704447791004
 20
-119.457820453104
 30
0.0
  9
$EXTMAX
 10
1054.188038953205
 20
198.7106104373674
 30
0.0
  9
$LIMMIN
 10
0.0
 20
0.0
  9
$LIMMAX
 10
420.0
 20
297.0
  9
$ORTHOMODE
 70
     1
  9
$REGENMODE
 70
     1
  9
$FILLMODE
 70
     1
  9
$QTEXTMODE
 70
     0
  9
$MIRRTEXT
 70
     1
  9
$LTSCALE
 40
1.0
  9
$ATTMODE
 70
     1
  9
$TEXTSIZE
 40
3.5
  9
$TRACEWID
 40
1.0
  9
$TEXTSTYLE
  7
Standard
  9
$CLAYER
  8
0
  9
$CELTYPE
  6
ByLayer
  9
$CECOLOR
 62
   256
  9
$CELTSCALE
 40
1.0
  9
$DISPSILH
 70
     0
  9
$DIMSCALE
 40
1.0
  9
$DIMASZ
 40
3.302
  9
$DIMEXO
 40
0.0
  9
$DIMDLI
 40
3.75
  9
$DIMRND
 40
0.0
  9
$DIMDLE
 40
0.0
  9
$DIMEXE
 40
1.0
  9
$DIMTP
 40
0.0
  9
$DIMTM
 40
0.0
  9
$DIMTXT
 40
3.5
  9
$DIMCEN
 40
2.5
  9
$DIMTSZ
 40
0.0
  9
$DIMTOL
 70
     0
  9
$DIMLIM
 70
     0
  9
$DIMTIH
 70
     1
  9
$DIMTOH
 70
     1
  9
$DIMSE1
 70
     0
  9
$DIMSE2
 70
     0
  9
$DIMTAD
 70
     1
  9
$DIMZIN
 70
     1
  9
$DIMBLK
  1

  9
$DIMASO
 70
     1
  9
$DIMSHO
 70
     1
  9
$DIMPOST
  1

  9
$DIMAPOST
  1

  9
$DIMALT
 70
     0
  9
$DIMALTD
 70
     3
  9
$DIMALTF
 40
0.0393700787
  9
$DIMLFAC
 40
1.0
  9
$DIMTOFL
 70
     1
  9
$DIMTVP
 40
0.0
  9
$DIMTIX
 70
     0
  9
$DIMSOXD
 70
     0
  9
$DIMSAH
 70
     0
  9
$DIMBLK1
  1

  9
$DIMBLK2
  1

  9
$DIMSTYLE
  2
ISO-25
  9
$DIMCLRD
 70
     0
  9
$DIMCLRE
 70
     0
  9
$DIMCLRT
 70
     0
  9
$DIMTFAC
 40
1.0
  9
$DIMGAP
 40
1.524
  9
$DIMJUST
 70
     0
  9
$DIMSD1
 70
     0
  9
$DIMSD2
 70
     0
  9
$DIMTOLJ
 70
     0
  9
$DIMTZIN
 70
     1
  9
$DIMALTZ
 70
     0
  9
$DIMALTTZ
 70
     0
  9
$DIMUPT
 70
     0
  9
$DIMDEC
 70
     2
  9
$DIMTDEC
 70
     2
  9
$DIMALTU
 70
     2
  9
$DIMALTTD
 70
     3
  9
$DIMTXSTY
  7
Standard
  9
$DIMAUNIT
 70
     0
  9
$DIMADEC
 70
     2
  9
$DIMALTRND
 40
0.0
  9
$DIMAZIN
 70
     0
  9
$DIMDSEP
 70
    44
  9
$DIMATFIT
 70
     3
  9
$DIMFRAC
 70
     0
  9
$DIMLDRBLK
  1

  9
$DIMLUNIT
 70
     2
  9
$DIMLWD
 70
    -2
  9
$DIMLWE
 70
    -2
  9
$DIMTMOVE
 70
     0
  9
$DIMFXL
 40
1.0
  9
$DIMFXLON
 70
     0
  9
$DIMJOGANG
 40
0.7853981633974483
  9
$DIMTFILL
 70
     0
  9
$DIMTFILLCLR
 70
     0
  9
$DIMARCSYM
 70
     0
  9
$DIMLTYPE
  6

  9
$DIMLTEX1
  6

  9
$DIMLTEX2
  6

  9
$DIMTXTDIRECTION
 70
     0
  9
$LUNITS
 70
     2
  9
$LUPREC
 70
     2
  9
$SKETCHINC
 40
1.0
  9
$FILLETRAD
 40
10.0
  9
$AUNITS
 70
     0
  9
$AUPREC
 70
     2
  9
$MENU
  1
.
  9
$ELEVATION
 40
0.0
  9
$PELEVATION
 40
0.0
  9
$THICKNESS
 40
0.0
  9
$LIMCHECK
 70
     0
  9
$CHAMFERA
 40
0.0
  9
$CHAMFERB
 40
0.0
  9
$CHAMFERC
 40
0.0
  9
$CHAMFERD
 40
0.0
  9
$SKPOLY
 70
     0
  9
$TDCREATE
 40
2458922.530509259
  9
$TDUCREATE
 40
2458922.780510868
  9
$TDUPDATE
 40
2458924.183032408
  9
$TDUUPDATE
 40
2458924.433032407
  9
$TDINDWG
 40
0.4485185301
  9
$TDUSRTIMER
 40
0.4485185301
  9
$USRTIMER
 70
     1
  9
$ANGBASE
 50
0.0
  9
$ANGDIR
 70
     0
  9
$PDMODE
 70
     0
  9
$PDSIZE
 40
-1.0
  9
$PLINEWID
 40
0.0
  9
$SPLFRAME
 70
     0
  9
$SPLINETYPE
 70
     6
  9
$SPLINESEGS
 70
     8
  9
$HANDSEED
  5
92F
  9
$SURFTAB1
 70
     6
  9
$SURFTAB2
 70
     6
  9
$SURFTYPE
 70
     6
  9
$SURFU
 70
     6
  9
$SURFV
 70
     6
  9
$UCSBASE
  2

  9
$UCSNAME
  2

  9
$UCSORG
 10
0.0
 20
0.0
 30
0.0
  9
$UCSXDIR
 10
1.0
 20
0.0
 30
0.0
  9
$UCSYDIR
 10
0.0
 20
1.0
 30
0.0
  9
$UCSORTHOREF
  2

  9
$UCSORTHOVIEW
 70
     0
  9
$UCSORGTOP
 10
0.0
 20
0.0
 30
0.0
  9
$UCSORGBOTTOM
 10
0.0
 20
0.0
 30
0.0
  9
$UCSORGLEFT
 10
0.0
 20
0.0
 30
0.0
  9
$UCSORGRIGHT
 10
0.0
 20
0.0
 30
0.0
  9
$UCSORGFRONT
 10
0.0
 20
0.0
 30
0.0
  9
$UCSORGBACK
 10
0.0
 20
0.0
 30
0.0
  9
$PUCSBASE
  2

  9
$PUCSNAME
  2

  9
$PUCSORG
 10
0.0
 20
0.0
 30
0.0
  9
$PUCSXDIR
 10
1.0
 20
0.0
 30
0.0
  9
$PUCSYDIR
 10
0.0
 20
1.0
 30
0.0
  9
$PUCSORTHOREF
  2

  9
$PUCSORTHOVIEW
 70
     0
  9
$PUCSORGTOP
 10
0.0
 20
0.0
 30
0.0
  9
$PUCSORGBOTTOM
 10
0.0
 20
0.0
 30
0.0
  9
$PUCSORGLEFT
 10
0.0
 20
0.0
 30
0.0
  9
$PUCSORGRIGHT
 10
0.0
 20
0.0
 30
0.0
  9
$PUCSORGFRONT
 10
0.0
 20
0.0
 30
0.0
  9
$PUCSORGBACK
 10
0.0
 20
0.0
 30
0.0
  9
$USERI1
 70
     0
  9
$USERI2
 70
     0
  9
$USERI3
 70
     0
  9
$USERI4
 70
     0
  9
$USERI5
 70
     0
  9
$USERR1
 40
0.0
  9
$USERR2
 40
0.0
  9
$USERR3
 40
0.0
  9
$USERR4
 40
0.0
  9
$USERR5
 40
0.0
  9
$WORLDVIEW
 70
     1
  9
$SHADEDGE
 70
     3
  9
$SHADEDIF
 70
    70
  9
$TILEMODE
 70
     1
  9
$MAXACTVP
 70
    64
  9
$PINSBASE
 10
0.0
 20
0.0
 30
0.0
  9
$PLIMCHECK
 70
     0
  9
$PEXTMIN
 10
1.000000000000000E+20
 20
1.000000000000000E+20
 30
1.000000000000000E+20
  9
$PEXTMAX
 10
-1.000000000000000E+20
 20
-1.000000000000000E+20
 30
-1.000000000000000E+20
  9
$PLIMMIN
 10
0.0
 20
0.0
  9
$PLIMMAX
 10
420.0
 20
297.0
  9
$UNITMODE
 70
     0
  9
$VISRETAIN
 70
     1
  9
$PLINEGEN
 70
     0
  9
$PSLTSCALE
 70
     1
  9
$TREEDEPTH
 70
  3020
  9
$CMLSTYLE
  2
Standard
  9
$CMLJUST
 70
     0
  9
$CMLSCALE
 40
20.0
  9
$PROXYGRAPHICS
 70
     1
  9
$MEASUREMENT
 70
     1
  9
$CELWEIGHT
370
    -1
  9
$ENDCAPS
280
     0
  9
$JOINSTYLE
280
     0
  9
$LWDISPLAY
290
     1
  9
$INSUNITS
 70
     4
  9
$HYPERLINKBASE
  1

  9
$STYLESHEET
  1

  9
$XEDIT
290
     1
  9
$CEPSNTYPE
380
     0
  9
$PSTYLEMODE
290
     1
  9
$FINGERPRINTGUID
  2
{71311472-0A7E-4A01-A36B-A4259EA43C22}
  9
$VERSIONGUID
  2
{62BC5AE9-FA42-D045-8B9D-9626B3EB9A83}
  9
$EXTNAMES
290
     1
  9
$PSVPSCALE
 40
0.0
  9
$OLESTARTUP
290
     0
  9
$SORTENTS
280
   127
  9
$INDEXCTL
280
     0
  9
$HIDETEXT
280
     0
  9
$XCLIPFRAME
280
     2
  9
$HALOGAP
280
     0
  9
$OBSCOLOR
 70
   257
  9
$OBSLTYPE
280
     0
  9
$INTERSECTIONDISPLAY
280
     0
  9
$INTERSECTIONCOLOR
 70
   257
  9
$DIMASSOC
280
     1
  9
$PROJECTNAME
  1

  9
$CAMERADISPLAY
290
     0
  9
$LENSLENGTH
 40
50.0
  9
$CAMERAHEIGHT
 40
0.0
  9
$STEPSPERSEC
 40
2.0
  9
$STEPSIZE
 40
6.0
  9
$3DDWFPREC
 40
2.0
  9
$PSOLWIDTH
 40
0.25
  9
$PSOLHEIGHT
 40
4.0
  9
$LOFTANG1
 40
1.570796326794896
  9
$LOFTANG2
 40
1.570796326794896
  9
$LOFTMAG1
 40
0.0
  9
$LOFTMAG2
 40
0.0
  9
$LOFTPARAM
 70
     7
  9
$LOFTNORMALS
280
     1
  9
$LATITUDE
 40
37.795
  9
$LONGITUDE
 40
-122.394
  9
$NORTHDIRECTION
 40
0.0
  9
$TIMEZONE
 70
 -8000
  9
$LIGHTGLYPHDISPLAY
280
     1
  9
$TILEMODELIGHTSYNCH
280
     1
  9
$CMATERIAL
347
113
  9
$SOLIDHIST
280
     0
  9
$SHOWHIST
280
     1
  9
$DWFFRAME
280
     2
  9
$DGNFRAME
280
     0
  9
$REALWORLDSCALE
290
     1
  9
$INTERFERECOLOR
 62
     1
  9
$INTERFEREOBJVS
345
135
  9
$INTERFEREVPVS
346
132
  9
$CSHADOW
280
     0
  9
$SHADOWPLANELOCATION
 40
0.0
  0
ENDSEC
  0
SECTION
  2
CLASSES
  0
CLASS
  1
ACDBDICTIONARYWDFLT
  2
AcDbDictionaryWithDefault
  3
ObjectDBX Classes
 90
        0
 91
        1
280
     0
281
     0
  0
CLASS
  1
VISUALSTYLE
  2
AcDbVisualStyle
  3
ObjectDBX Classes
 90
     4095
 91
       24
280
     0
281
     0
  0
CLASS
  1
MATERIAL
  2
AcDbMaterial
  3
ObjectDBX Classes
 90
     1153
 91
        3
280
     0
281
     0
  0
CLASS
  1
SCALE
  2
AcDbScale
  3
ObjectDBX Classes
 90
     1153
 91
       33
280
     0
281
     0
  0
CLASS
  1
TABLESTYLE
  2
AcDbTableStyle
  3
ObjectDBX Classes
 90
     4095
 91
        1
280
     0
281
     0
  0
CLASS
  1
MLEADERSTYLE
  2
AcDbMLeaderStyle
  3
ACDB_MLEADERSTYLE_CLASS
 90
     4095
 91
        1
280
     0
281
     0
  0
CLASS
  1
SUN
  2
AcDbSun
  3
SCENEOE
 90
     1153
 91
        0
280
     0
281
     0
  0
CLASS
  1
ACDBSECTIONVIEWSTYLE
  2
AcDbSectionViewStyle
  3
ObjectDBX Classes
 90
     1025
 91
        1
280
     0
281
     0
  0
CLASS
  1
ACDBDETAILVIEWSTYLE
  2
AcDbDetailViewStyle
  3
ObjectDBX Classes
 90
     1025
 91
        1
280
     0
281
     0
  0
CLASS
  1
SORTENTSTABLE
  2
AcDbSortentsTable
  3
ObjectDBX Classes
 90
        0
 91
        2
280
     0
281
     0
  0
CLASS
  1
DICTIONARYVAR
  2
AcDbDictionaryVar
  3
ObjectDBX Classes
 90
        0
 91
        9
280
     0
281
     0
  0
CLASS
  1
CELLSTYLEMAP
  2
AcDbCellStyleMap
  3
ObjectDBX Classes
 90
     1152
 91
        2
280
     0
281
     0
  0
CLASS
  1
SOLID_BACKGROUND
  2
AcDbSolidBackground
  3
SCENEOE
 90
     4095
 91
        0
280
     0
281
     0
  0
CLASS
  1
NPOCOLLECTION
  2
AcDbImpNonPersistentObjectsCollection
  3
ObjectDBX Classes
 90
     1153
 91
        0
280
     0
281
     0
  0
ENDSEC
  0
SECTION
  2
TABLES
  0
TABLE
  2
VPORT
  5
8
330
0
100
AcDbSymbolTable
 70
     1
  0
VPORT
  5
29
330
8
100
AcDbSymbolTableRecord
100
AcDbViewportTableRecord
  2
*Active
 70
     0
 10
0.0
 20
0.0
 11
1.0
 21
1.0
 12
-4.972317255972711
 22
-75.95059625296619
 13
0.0
 23
0.0
 14
10.0
 24
10.0
 15
10.0
 25
10.0
 16
-0.0000000000003979
 26
0.0
 36
1805.24243554063
 17
112.9113883972168
 27
45.8677978515625
 37
0.0
 40
347.9261920074212
 41
2.654832347140039
 42
50.0
 43
0.0
 44
0.0
 50
0.0
 51
0.0
 71
     0
 72
   100
 73
     1
 74
     3
 75
     0
 76
     1
 77
     0
 78
     0
281
     0
 65
     1
110
0.0
120
0.0
130
0.0
111
1.0
121
0.0
131
0.0
112
0.0
122
1.0
132
0.0
 79
     0
146
0.0
348
131
 60
     3
 61
     5
292
     1
282
     1
141
0.0
142
0.0
 63
   250
421
  3355443
1001
ACAD_NAV_VCDISPLAY
1070
     3
  0
ENDTAB
  0
TABLE
  2
LTYPE
  5
5
330
0
100
AcDbSymbolTable
 70
     7
  0
LTYPE
  5
14
330
5
100
AcDbSymbolTableRecord
100
AcDbLinetypeTableRecord
  2
ByBlock
 70
     0
  3

 72
    65
 73
     0
 40
0.0
  0
LTYPE
  5
15
330
5
100
AcDbSymbolTableRecord
100
AcDbLinetypeTableRecord
  2
ByLayer
 70
     0
  3

 72
    65
 73
     0
 40
0.0
  0
LTYPE
  5
16
330
5
100
AcDbSymbolTableRecord
100
AcDbLinetypeTableRecord
  2
Continuous
 70
     0
  3
Solid line
 72
    65
 73
     0
 40
0.0
  0
LTYPE
  5
6E
330
5
100
AcDbSymbolTableRecord
100
AcDbLinetypeTableRecord
  2
HIDDEN
 70
     0
  3
Hidden __ __ __ __ __ __ __ __ __ __ __ __ __ __
 72
    65
 73
     2
 40
1.905
 49
1.27
 74
     0
 49
-0.635
 74
     0
  0
LTYPE
  5
6F
330
5
100
AcDbSymbolTableRecord
100
AcDbLinetypeTableRecord
  2
PHANTOM
 70
     0
  3
Phantom ______  __  __  ______  __  __  ______
 72
    65
 73
     6
 40
12.7
 49
6.349999999999997
 74
     0
 49
-1.27
 74
     0
 49
1.27
 74
     0
 49
-1.27
 74
     0
 49
1.27
 74
     0
 49
-1.27
 74
     0
  0
LTYPE
  5
70
330
5
100
AcDbSymbolTableRecord
100
AcDbLinetypeTableRecord
  2
CENTER
 70
     0
  3
Center ____ _ ____ _ ____ _ ____ _ ____ _ ____
 72
    65
 73
     4
 40
10.16
 49
6.349999999999997
 74
     0
 49
-1.27
 74
     0
 49
1.27
 74
     0
 49
-1.27
 74
     0
  0
LTYPE
  5
71
330
5
100
AcDbSymbolTableRecord
100
AcDbLinetypeTableRecord
  2
CENTERX2
 70
     0
  3
Center (2x) ________  __  ________  __  _____
 72
    65
 73
     4
 40
20.32
 49
12.7
 74
     0
 49
-2.54
 74
     0
 49
2.54
 74
     0
 49
-2.54
 74
     0
  0
LTYPE
  5
72
330
5
100
AcDbSymbolTableRecord
100
AcDbLinetypeTableRecord
  2
DOT2
 70
     0
  3
Dot (.5x) ........................................
 72
    65
 73
     2
 40
0.635
 49
0.0
 74
     0
 49
-0.635
 74
     0
  0
ENDTAB
  0
TABLE
  2
LAYER
  5
2
102
{ACAD_XDICTIONARY
360
451
102
}
330
0
100
AcDbSymbolTable
 70
     1
  0
LAYER
  5
10
102
{ACAD_XDICTIONARY
360
76C
102
}
330
2
100
AcDbSymbolTableRecord
100
AcDbLayerTableRecord
  2
0
 70
     0
 62
     7
  6
Continuous
370
    -3
390
F
347
123
348
0
  0
ENDTAB
  0
TABLE
  2
STYLE
  5
3
330
0
100
AcDbSymbolTable
 70
     1
  0
STYLE
  5
11
330
3
100
AcDbSymbolTableRecord
100
AcDbTextStyleTableRecord
  2
Standard
 70
     0
 40
0.0
 41
1.0
 50
0.0
 71
     0
 42
3.5
  3
txt
  4

  0
ENDTAB
  0
TABLE
  2
VIEW
  5
6
330
0
100
AcDbSymbolTable
 70
     0
  0
ENDTAB
  0
TABLE
  2
UCS
  5
7
330
0
100
AcDbSymbolTable
 70
     0
  0
ENDTAB
  0
TABLE
  2
APPID
  5
9
330
0
100
AcDbSymbolTable
 70
     3
  0
APPID
  5
12
330
9
100
AcDbSymbolTableRecord
100
AcDbRegAppTableRecord
  2
ACAD
 70
     0
  0
APPID
  5
150
330
9
100
AcDbSymbolTableRecord
100
AcDbRegAppTableRecord
  2
ACAD_NAV_VCDISPLAY
 70
     0
  0
APPID
  5
5AC
330
9
100
AcDbSymbolTableRecord
100
AcDbRegAppTableRecord
  2
ACAD_EXEMPT_FROM_CAD_STANDARDS
 70
     0
  0
ENDTAB
  0
TABLE
  2
DIMSTYLE
  5
A
330
0
100
AcDbSymbolTable
 70
     2
100
AcDbDimStyleTable
 71
     1
340
27
  0
DIMSTYLE
105
27
330
A
100
AcDbSymbolTableRecord
100
AcDbDimStyleTableRecord
  2
ISO-25
 70
     0
 41
2.5
 42
0.625
 43
3.75
 44
1.25
 73
     0
 74
     0
 77
     1
 78
     8
140
2.5
141
2.5
143
0.0393700787
147
0.625
171
     3
172
     1
271
     2
272
     2
274
     3
278
    44
283
     0
284
     8
340
11
  0
ENDTAB
  0
TABLE
  2
BLOCK_RECORD
  5
1
330
0
100
AcDbSymbolTable
 70
     5
  0
BLOCK_RECORD
  5
1F
102
{ACAD_XDICTIONARY
360
91E
102
}
330
1
100
AcDbSymbolTableRecord
100
AcDbBlockTableRecord
  2
*Model_Space
340
22
 70
     0
280
     1
281
     0
  0
BLOCK_RECORD
  5
1B
330
1
100
AcDbSymbolTableRecord
100
AcDbBlockTableRecord
  2
*Paper_Space
340
1E
 70
     0
280
     1
281
     0
  0
BLOCK_RECORD
  5
23
330
1
100
AcDbSymbolTableRecord
100
AcDbBlockTableRecord
  2
*Paper_Space0
340
26
 70
     0
280
     1
281
     0
  0
BLOCK_RECORD
  5
6C1
330
1
100
AcDbSymbolTableRecord
100
AcDbBlockTableRecord
  2
A$C422171cd
340
0
 70
     4
280
     1
281
     0
  0
BLOCK_RECORD
  5
6EC
330
1
100
AcDbSymbolTableRecord
100
AcDbBlockTableRecord
  2
A$C0d7cf2cf
340
0
 70
     4
280
     1
281
     0
  0
ENDTAB
  0
ENDSEC
  0
SECTION
  2
BLOCKS
  0
BLOCK
  5
20
330
1F
100
AcDbEntity
  8
0
100
AcDbBlockBegin
  2
*Model_Space
 70
     0
 10
0.0
 20
0.0
 30
0.0
  3
*Model_Space
  1

  0
ENDBLK
  5
21
330
1F
100
AcDbEntity
  8
0
100
AcDbBlockEnd
  0
BLOCK
  5
1C
330
1B
100
AcDbEntity
 67
     1
  8
0
100
AcDbBlockBegin
  2
*Paper_Space
 70
     0
 10
0.0
 20
0.0
 30
0.0
  3
*Paper_Space
  1

  0
ENDBLK
  5
1D
330
1B
100
AcDbEntity
 67
     1
  8
0
100
AcDbBlockEnd
  0
BLOCK
  5
24
330
23
100
AcDbEntity
 67
     1
  8
0
100
AcDbBlockBegin
  2
*Paper_Space0
 70
     0
 10
0.0
 20
0.0
 30
0.0
  3
*Paper_Space0
  1

  0
ENDBLK
  5
25
330
23
100
AcDbEntity
 67
     1
  8
0
100
AcDbBlockEnd
  0
BLOCK
  5
6C8
330
6C1
100
AcDbEntity
  8
0
100
AcDbBlockBegin
  2
A$C422171cd
 70
     0
 10
0.0
 20
0.0
 30
0.0
  3
A$C422171cd
  1

  0
LINE
  5
6C2
330
6C1
100
AcDbEntity
  8
0
  6
Continuous
 62
     7
100
AcDbLine
 10
111.7390376158764
 20
-0.0000011157963513
 30
0.0
 11
111.7390376158764
 21
34.99999888420369
 31
0.0
  0
LINE
  5
6C3
330
6C1
100
AcDbEntity
  8
0
  6
Continuous
 62
     7
100
AcDbLine
 10
6.669572365076646
 20
34.99999888420369
 30
0.0
 11
111.7390376158764
 21
34.99999888420369
 31
0.0
  0
LINE
  5
6C4
330
6C1
100
AcDbEntity
  8
0
  6
Continuous
 62
     7
100
AcDbLine
 10
6.669572365076646
 20
-0.0000011157963513
 30
0.0
 11
6.669572365076646
 21
34.99999888420369
 31
0.0
  0
LINE
  5
6C5
330
6C1
100
AcDbEntity
  8
0
  6
Continuous
 62
     7
100
AcDbLine
 10
6.669572365076646
 20
-0.0000011157963513
 30
0.0
 11
111.7390376158764
 21
-0.0000011157963513
 31
0.0
  0
CIRCLE
  5
6C6
330
6C1
100
AcDbEntity
  8
0
100
AcDbCircle
 10
116.908621037317
 20
17.4999988842037
 30
0.0
 40
1.5
  0
CIRCLE
  5
6C7
330
6C1
100
AcDbEntity
  8
0
100
AcDbCircle
 10
1.499988943635965
 20
17.4999988842037
 30
0.0
 40
1.5
  0
ENDBLK
  5
6C9
330
6C1
100
AcDbEntity
  8
0
100
AcDbBlockEnd
  0
BLOCK
  5
6F4
330
6EC
100
AcDbEntity
  8
0
100
AcDbBlockBegin
  2
A$C0d7cf2cf
 70
     0
 10
0.0
 20
0.0
 30
0.0
  3
A$C0d7cf2cf
  1

  0
LINE
  5
6ED
330
6EC
100
AcDbEntity
  8
0
  6
Continuous
 62
     7
370
    25
100
AcDbLine
 10
8.890551072444679
 20
31.19099532185693
 30
0.0
 11
3.094431892567001
 21
31.19099532185693
 31
0.0
  0
ARC
  5
6EE
330
6EC
100
AcDbEntity
  8
0
  6
Continuous
 62
     7
370
    25
100
AcDbCircle
 10
8.890551072444679
 20
28.09656665033435
 30
0.0
 40
3.094428671522587
100
AcDbArc
 50
0.0
 51
90.0
  0
LINE
  5
6EF
330
6EC
100
AcDbEntity
  8
0
  6
Continuous
 62
     7
370
    25
100
AcDbLine
 10
11.98497974396724
 20
3.09442849343489
 30
0.0
 11
11.98497974396724
 21
28.09656665033435
 31
0.0
  0
ARC
  5
6F0
330
6EC
100
AcDbEntity
  8
0
  6
Continuous
 62
     7
370
    25
100
AcDbCircle
 10
8.890551072444679
 20
3.09442849343489
 30
0.0
 40
3.094428671522587
100
AcDbArc
 50
270.0
 51
0.0
  0
ARC
  5
6F1
330
6EC
100
AcDbEntity
  8
0
  6
Continuous
 62
     7
370
    25
100
AcDbCircle
 10
3.094431892567001
 20
3.09442849343489
 30
0.0
 40
3.094428671522587
100
AcDbArc
 50
180.0
 51
270.0
  0
LINE
  5
6F2
330
6EC
100
AcDbEntity
  8
0
  6
Continuous
 62
     7
370
    25
100
AcDbLine
 10
0.0000032210443806
 20
28.09656665033435
 30
0.0
 11
0.0000032210443806
 21
3.09442849343489
 31
0.0
  0
ARC
  5
6F3
330
6EC
100
AcDbEntity
  8
0
  6
Continuous
 62
     7
370
    25
100
AcDbCircle
 10
3.094431892567001
 20
28.09656665033435
 30
0.0
 40
3.094428671522587
100
AcDbArc
 50
90.0
 51
180.0
  0
ENDBLK
  5
6F5
330
6EC
100
AcDbEntity
  8
0
100
AcDbBlockEnd
  0
ENDSEC
  0
SECTION
  2
ENTITIES
  0
CIRCLE
  5
73
330
1F
100
AcDbEntity
  8
0
  6
Continuous
 62
     7
370
    25
100
AcDbCircle
 10
71.30178599619998
 20
26.1201241797
 30
0.0
 40
2.000000000013212
  0
ARC
  5
74
330
1F
100
AcDbEntity
  8
0
  6
Continuous
 62
     7
370
    25
100
AcDbCircle
 10
4.629555220899999
 20
0.6007711785000001
 30
0.0
 40
107.5000000000004
100
AcDbArc
 50
115.8419327632
 51
64.15806723680001
  0
LINE
  5
75
330
1F
100
AcDbEntity
  8
0
  6
Continuous
 62
     7
370
    25
100
AcDbLine
 10
51.48771886390001
 20
97.3507711785
 30
0.0
 11
38.6295552208
 21
81.35077117839998
 31
0.0
  0
ARC
  5
76
330
1F
100
AcDbEntity
  8
0
  6
Continuous
 62
     7
370
    25
100
AcDbCircle
 10
26.129555221
 20
93.8507711785
 30
0.0
 40
17.6776695295566
100
AcDbArc
 50
270.0
 51
314.9999999993
  0
LINE
  5
77
330
1F
100
AcDbEntity
  8
0
  6
Continuous
 62
     7
370
    25
100
AcDbLine
 10
-16.8704447792
 20
76.1731016489
 30
0.0
 11
26.129555221
 21
76.1731016489
 31
0.0
  0
ARC
  5
78
330
1F
100
AcDbEntity
  8
0
  6
Continuous
 62
     7
370
    25
100
AcDbCircle
 10
-16.8704447793
 20
93.85077117860001
 30
0.0
 40
17.67766952966947
100
AcDbArc
 50
225.0000000002
 51
270.0000000001
  0
LINE
  5
79
330
1F
100
AcDbEntity
  8
0
  6
Continuous
 62
     7
370
    25
100
AcDbLine
 10
-42.2286084222
 20
97.35077117839999
 30
0.0
 11
-29.3704447792
 21
81.3507711785
 31
0.0
  0
CIRCLE
  5
7A
330
1F
100
AcDbEntity
  8
0
  6
Continuous
 62
     7
370
    25
100
AcDbCircle
 10
-98.14115464730001
 20
0.9413116453
 30
0.0
 40
1.5
  0
CIRCLE
  5
7B
330
1F
100
AcDbEntity
  8
0
  6
Continuous
 62
     7
370
    25
100
AcDbCircle
 10
106.8797880435
 20
0.9413116453
 30
0.0
 40
1.5
  0
ARC
  5
7C
330
1F
100
AcDbEntity
  8
0
  6
Continuous
 62
     7
370
    25
100
AcDbCircle
 10
-20.7501644312
 20
-14.0522167947
 30
0.0
 40
10.0
100
AcDbArc
 50
18.0148220675
 51
64.8441770531
  0
ARC
  5
7D
330
1F
100
AcDbEntity
  8
0
  6
Continuous
 62
     7
370
    25
100
AcDbCircle
 10
-108.3142825864
 20
-11.7074035657
 30
0.0
 40
97.0767639848632
100
AcDbArc
 50
351.1929094593
 51
0.4413741901
  0
ARC
  5
7E
330
1F
100
AcDbEntity
  8
0
  6
Continuous
 62
     7
370
    25
100
AcDbCircle
 10
-17.3446281075
 20
-25.9595866293
 30
0.0
 40
5.000000000000004
100
AcDbArc
 50
349.211511334
 51
352.980232139
  0
ARC
  5
7F
330
1F
100
AcDbEntity
  8
0
  6
Continuous
 62
     7
370
    25
100
AcDbCircle
 10
-127.1594850154
 20
-5.0341472802
 30
0.0
 40
116.7907724709638
100
AcDbArc
 50
343.7185092148
 51
349.211511334
  0
ARC
  5
80
330
1F
100
AcDbEntity
  8
0
  6
Continuous
 62
     7
370
    25
100
AcDbCircle
 10
-80.62198862470001
 20
-25.45786602070001
 30
0.0
 40
66.71674584469814
100
AcDbArc
 50
323.2507551462
 51
349.3591837255
  0
ARC
  5
81
330
1F
100
AcDbEntity
  8
0
  6
Continuous
 62
     7
370
    25
100
AcDbCircle
 10
-127.1594850154
 20
-5.0341472802
 30
0.0
 40
116.7907724709637
100
AcDbArc
 50
323.5639041537
 51
328.8914296569
  0
ARC
  5
82
330
1F
100
AcDbEntity
  8
0
  6
Continuous
 62
     7
370
    25
100
AcDbCircle
 10
4.629555220799999
 20
-87.3992288224
 30
0.0
 40
39.99999999999848
100
AcDbArc
 50
161.0343896904
 51
181.3206055933
  0
ARC
  5
83
330
1F
100
AcDbEntity
  8
0
  6
Continuous
 62
     7
370
    25
100
AcDbCircle
 10
4.629555220899999
 20
0.6007711785000001
 30
0.0
 40
97.49999999999944
100
AcDbArc
 50
174.2140971001
 51
245.7859028999
  0
ARC
  5
84
330
1F
100
AcDbEntity
  8
0
  6
Continuous
 62
     7
370
    25
100
AcDbCircle
 10
-71.5806803128
 20
44.6007711788
 30
0.0
 40
40.0000000000003
100
AcDbArc
 50
238.6793944065
 51
258.9656103094
  0
ARC
  5
85
330
1F
100
AcDbEntity
  8
0
  6
Continuous
 62
     7
370
    25
100
AcDbCircle
 10
-66.1449474307
 20
-110.7144263772
 30
0.0
 40
116.7907724709645
100
AcDbArc
 50
64.8441770531
 51
96.43609584629999
  0
CIRCLE
  5
86
330
1F
100
AcDbEntity
  8
0
  6
Continuous
 62
     7
370
    25
100
AcDbCircle
 10
-28.0976553608
 20
52.3472703847
 30
0.0
 40
1.500000000000004
  0
CIRCLE
  5
87
330
1F
100
AcDbEntity
  8
0
  6
Continuous
 62
     7
370
    25
100
AcDbCircle
 10
-42.27044477909999
 20
48.305789927
 30
0.0
 40
1.499999999999972
  0
CIRCLE
  5
88
330
1F
100
AcDbEntity
  8
0
  6
Continuous
 62
     7
370
    25
100
AcDbCircle
 10
50.5333956183
 20
48.305789927
 30
0.0
 40
1.500000000000025
  0
LINE
  5
8F
330
1F
100
AcDbEntity
  8
0
  6
Continuous
 62
     7
370
    25
100
AcDbLine
 10
21.1304807223
 20
48.9755517131
 30
0.0
 11
43.48229639319999
 21
48.9755517131
 31
0.0
  0
LINE
  5
90
330
1F
100
AcDbEntity
  8
0
  6
Continuous
 62
     7
370
    25
100
AcDbLine
 10
43.48229639319999
 20
48.9755517131
 30
0.0
 11
38.6295552209
 21
38.9646262117
 31
0.0
  0
LINE
  5
91
330
1F
100
AcDbEntity
  8
0
  6
Continuous
 62
     7
370
    25
100
AcDbLine
 10
16.369555221
 20
38.9646262117
 30
0.0
 11
38.6295552209
 21
38.9646262117
 31
0.0
  0
LINE
  5
94
330
1F
100
AcDbEntity
  8
0
  6
Continuous
 62
     7
370
    25
100
AcDbLine
 10
27.8695552209
 20
55.7189890562
 30
0.0
 11
48.0067366431
 21
55.7189890562
 31
0.0
  0
LINE
  5
95
330
1F
100
AcDbEntity
  8
0
  6
Continuous
 62
     7
370
    25
100
AcDbLine
 10
27.8695552209
 20
68.96462621180001
 30
0.0
 11
27.8695552209
 21
55.7189890562
 31
0.0
  0
LINE
  5
96
330
1F
100
AcDbEntity
  8
0
  6
Continuous
 62
     7
370
    25
100
AcDbLine
 10
54.6295552209
 20
68.96462621180001
 30
0.0
 11
27.8695552209
 21
68.96462621180001
 31
0.0
  0
LINE
  5
97
330
1F
100
AcDbEntity
  8
0
  6
Continuous
 62
     7
370
    25
100
AcDbLine
 10
54.6295552209
 20
68.96462621180001
 30
0.0
 11
48.0067366431
 21
55.7189890562
 31
0.0
  0
LINE
  5
98
330
1F
100
AcDbEntity
  8
0
  6
Continuous
 62
     7
370
    25
100
AcDbLine
 10
-18.6304447791
 20
68.96462621180001
 30
0.0
 11
-18.6304447791
 21
55.7189890562
 31
0.0
  0
LINE
  5
99
330
1F
100
AcDbEntity
  8
0
  6
Continuous
 62
     7
370
    25
100
AcDbLine
 10
-18.6304447791
 20
55.7189890562
 30
0.0
 11
-38.7476262013
 21
55.7189890562
 31
0.0
  0
LINE
  5
9A
330
1F
100
AcDbEntity
  8
0
  6
Continuous
 62
     7
370
    25
100
AcDbLine
 10
-45.3704447791
 20
68.96462621180001
 30
0.0
 11
-38.7476262013
 21
55.7189890562
 31
0.0
  0
LINE
  5
9B
330
1F
100
AcDbEntity
  8
0
  6
Continuous
 62
     7
370
    25
100
AcDbLine
 10
-18.6304447791
 20
68.96462621180001
 30
0.0
 11
-45.3704447791
 21
68.96462621180001
 31
0.0
  0
LINE
  5
9C
330
1F
100
AcDbEntity
  8
0
  6
Continuous
 62
     7
370
    25
100
AcDbLine
 10
69.61256763039999
 20
34.3794066122
 30
0.0
 11
66.62981518779999
 21
39.5854788232
 31
0.0
  0
LINE
  5
9E
330
1F
100
AcDbEntity
  8
0
  6
Continuous
 62
     7
370
    25
100
AcDbLine
 10
20.8430134162
 20
4.158752952599996
 30
0.0
 11
15.883077378
 21
12.8157855672
 31
0.0
  0
LINE
  5
A0
330
1F
100
AcDbEntity
  8
0
  6
Continuous
 62
     7
370
    25
100
AcDbLine
 10
-57.1011989296
 20
39.68139500639999
 30
0.0
 11
-60.0997477732
 21
34.4844050282
 31
0.0
  0
LINE
  5
A2
330
1F
100
AcDbEntity
  8
0
  6
Continuous
 62
     7
370
    25
100
AcDbLine
 10
-6.4473691311
 20
12.7379940963
 30
0.0
 11
-11.4335725649
 21
4.096064074
 31
0.0
  0
LINE
  5
A4
330
1F
100
AcDbEntity
  8
0
  6
Continuous
 62
     7
370
    25
100
AcDbLine
 10
1.650232112199995
 20
-72.39910406140001
 30
0.0
 11
7.6502321122
 21
-72.39910406140001
 31
0.0
  0
LINE
  5
A6
330
1F
100
AcDbEntity
  8
0
  6
Continuous
 62
     7
370
    25
100
AcDbLine
 10
-0.3270009307
 20
-15.0593458185
 30
0.0
 11
9.650232112199999
 21
-15.0593458185
 31
0.0
  0
LINE
  5
A8
330
1F
100
AcDbEntity
  8
0
  6
Continuous
 62
     7
370
    25
100
AcDbLine
 10
-35.3759075298
 20
48.9755517131
 30
0.0
 11
-30.3704447791
 21
38.96462621179999
 31
0.0
  0
LINE
  5
A9
330
1F
100
AcDbEntity
  8
0
  6
Continuous
 62
     7
370
    25
100
AcDbLine
 10
-11.8913702805
 20
48.9755517131
 30
0.0
 11
-35.3759075298
 21
48.9755517131
 31
0.0
  0
LINE
  5
AC
330
1F
100
AcDbEntity
  8
0
  6
Continuous
 62
     7
370
    25
100
AcDbLine
 10
-30.3704447791
 20
38.96462621179999
 30
0.0
 11
-7.130444779099997
 21
38.96462621179999
 31
0.0
  0
CIRCLE
  5
AD
330
1F
100
AcDbEntity
  8
0
  6
Continuous
 62
     7
370
    25
100
AcDbCircle
 10
-48.3704447791
 20
84.7961765748
 30
0.0
 40
1.499999999999956
  0
CIRCLE
  5
AE
330
1F
100
AcDbEntity
  8
0
  6
Continuous
 62
     7
370
    25
100
AcDbCircle
 10
95.1819323373
 20
19.75987180569999
 30
0.0
 40
1.499999999999956
  0
CIRCLE
  5
AF
330
1F
100
AcDbEntity
  8
0
  6
Continuous
 62
     7
370
    25
100
AcDbCircle
 10
66.49813233729999
 20
69.44167075989999
 30
0.0
 40
1.499999999999956
  0
CIRCLE
  5
B0
330
1F
100
AcDbEntity
  8
0
  6
Continuous
 62
     7
370
    25
100
AcDbCircle
 10
33.3134759223
 20
-87.39922882219998
 30
0.0
 40
1.499999999999956
  0
CIRCLE
  5
B1
330
1F
100
AcDbEntity
  8
0
  6
Continuous
 62
     7
370
    25
100
AcDbCircle
 10
-24.0541240777
 20
-87.39922882219998
 30
0.0
 40
1.49999999999996
  0
CIRCLE
  5
B2
330
1F
100
AcDbEntity
  8
0
  6
Continuous
 62
     7
370
    25
100
AcDbCircle
 10
-86.19061590100002
 20
19.6473111669
 30
0.0
 40
1.499999999999956
  0
CIRCLE
  5
B3
330
1F
100
AcDbEntity
  8
0
  6
Continuous
 62
     7
370
    25
100
AcDbCircle
 10
-57.5078780733
 20
69.3272703847
 30
0.0
 40
1.499999999999972
  0
CIRCLE
  5
B4
330
1F
100
AcDbEntity
  8
0
  6
Continuous
 62
     7
370
    25
100
AcDbCircle
 10
101.2441101638
 20
23.2598718057
 30
0.0
 40
1.499999999999956
  0
CIRCLE
  5
B5
330
1F
100
AcDbEntity
  8
0
  6
Continuous
 62
     7
370
    25
100
AcDbCircle
 10
89.11975451079998
 20
16.2598718057
 30
0.0
 40
1.499999999999956
  0
CIRCLE
  5
B6
330
1F
100
AcDbEntity
  8
0
  6
Continuous
 62
     7
370
    25
100
AcDbCircle
 10
72.56031016379998
 20
72.94167075989999
 30
0.0
 40
1.499999999999972
  0
CIRCLE
  5
B7
330
1F
100
AcDbEntity
  8
0
  6
Continuous
 62
     7
370
    25
100
AcDbCircle
 10
60.4359545108
 20
65.94167075989999
 30
0.0
 40
1.499999999999956
  0
CIRCLE
  5
B8
330
1F
100
AcDbEntity
  8
0
  6
Continuous
 62
     7
370
    25
100
AcDbCircle
 10
-80.1284380745
 20
16.1473111669
 30
0.0
 40
1.499999999999972
  0
CIRCLE
  5
B9
330
1F
100
AcDbEntity
  8
0
  6
Continuous
 62
     7
370
    25
100
AcDbCircle
 10
-92.2527937275
 20
23.1473111669
 30
0.0
 40
1.499999999999956
  0
CIRCLE
  5
BA
330
1F
100
AcDbEntity
  8
0
  6
Continuous
 62
     7
370
    25
100
AcDbCircle
 10
-51.4457002468
 20
65.82727038459998
 30
0.0
 40
1.500000000003159
  0
CIRCLE
  5
BB
330
1F
100
AcDbEntity
  8
0
  6
Continuous
 62
     7
370
    25
100
AcDbCircle
 10
-63.5700558997
 20
72.8272703847
 30
0.0
 40
1.499999999999972
  0
CIRCLE
  5
BC
330
1F
100
AcDbEntity
  8
0
  6
Continuous
 62
     7
370
    25
100
AcDbCircle
 10
33.3134759223
 20
-80.51362919739998
 30
0.0
 40
1.499999999999972
  0
CIRCLE
  5
BD
330
1F
100
AcDbEntity
  8
0
  6
Continuous
 62
     7
370
    25
100
AcDbCircle
 10
-24.0541240777
 20
-80.51362919739998
 30
0.0
 40
1.499999999999968
  0
CIRCLE
  5
BE
330
1F
100
AcDbEntity
  8
0
  6
Continuous
 62
     7
370
    25
100
AcDbCircle
 10
-24.0541240777
 20
-94.39922882219999
 30
0.0
 40
1.499999999999968
  0
CIRCLE
  5
BF
330
1F
100
AcDbEntity
  8
0
  6
Continuous
 62
     7
370
    25
100
AcDbCircle
 10
33.3134759223
 20
-94.39922882219999
 30
0.0
 40
1.499999999999972
  0
CIRCLE
  5
C0
330
1F
100
AcDbEntity
  8
0
  6
Continuous
 62
     7
370
    25
100
AcDbCircle
 10
60.90944370369999
 20
20.1201890404
 30
0.0
 40
2.000000000006612
  0
CIRCLE
  5
C1
330
1F
100
AcDbEntity
  8
0
  6
Continuous
 62
     7
370
    25
100
AcDbCircle
 10
49.9077383858
 20
39.1759762799
 30
0.0
 40
2.000000000008534
  0
CIRCLE
  5
C2
330
1F
100
AcDbEntity
  8
0
  6
Continuous
 62
     7
370
    25
100
AcDbCircle
 10
55.10390953209999
 20
42.17594384949999
 30
0.0
 40
2.00000000000154
  0
CIRCLE
  5
C3
330
1F
100
AcDbEntity
  8
0
  6
Continuous
 62
     7
370
    25
100
AcDbCircle
 10
66.10561484999999
 20
23.12015661010001
 30
0.0
 40
2.000000000012149
  0
CIRCLE
  5
C4
330
1F
100
AcDbEntity
  8
0
  6
Continuous
 62
     7
370
    25
100
AcDbCircle
 10
60.30008067829999
 20
45.17591141909998
 30
0.0
 40
2.000000000007295
  0
ARC
  5
C5
330
1F
100
AcDbEntity
  8
0
  6
Continuous
 62
     7
370
    25
100
AcDbCircle
 10
85.2345683362
 20
22.9877161042
 30
0.0
 40
2.999999999997556
100
AcDbArc
 50
209.9999999988
 51
300.0000000002
  0
LINE
  5
C6
330
1F
100
AcDbEntity
  8
0
  6
Continuous
 62
     7
370
    25
100
AcDbLine
 10
78.4584292789
 20
28.7244290141
 30
0.0
 11
82.6364921248
 21
21.4877161042
 31
0.0
  0
ARC
  5
C7
330
1F
100
AcDbEntity
  8
0
  6
Continuous
 62
     7
370
    25
100
AcDbCircle
 10
76.497957142
 20
29.1200917495
 30
0.0
 40
2.000000000000288
100
AcDbArc
 50
71.4094566952
 51
348.5898281136
  0
LINE
  5
C8
330
1F
100
AcDbEntity
  8
0
  6
Continuous
 62
     7
370
    25
100
AcDbLine
 10
67.4768719125
 20
47.7453184752
 30
0.0
 11
77.13556289260001
 21
31.0157338324
 31
0.0
  0
ARC
  5
C9
330
1F
100
AcDbEntity
  8
0
  6
Continuous
 62
     7
370
    25
100
AcDbCircle
 10
65.5165557696
 20
48.14175336259999
 30
0.0
 40
2.000000000002621
100
AcDbArc
 50
71.43202412419999
 51
348.5672606852
  0
LINE
  5
CA
330
1F
100
AcDbEntity
  8
0
  6
Continuous
 62
     7
370
    25
100
AcDbLine
 10
66.153414823
 20
50.0376464361
 30
0.0
 11
61.9537902833
 21
57.31120653499999
 31
0.0
  0
ARC
  5
CB
330
1F
100
AcDbEntity
  8
0
  6
Continuous
 62
     7
370
    25
100
AcDbCircle
 10
64.55183050879999
 20
58.8112688617
 30
0.0
 40
2.999999999570881
100
AcDbArc
 50
120.0000000004
 51
210.0013745166
  0
LINE
  5
CC
330
1F
100
AcDbEntity
  8
0
  6
Continuous
 62
     7
370
    25
100
AcDbLine
 10
63.051830509
 20
61.4093450727
 30
0.0
 11
75.1761861621
 21
68.4093450728
 31
0.0
  0
ARC
  5
CD
330
1F
100
AcDbEntity
  8
0
  6
Continuous
 62
     7
370
    25
100
AcDbCircle
 10
76.67618616209998
 20
65.81126886140001
 30
0.0
 40
2.999999999999968
100
AcDbArc
 50
30.0000000003
 51
120.0
  0
LINE
  5
CE
330
1F
100
AcDbEntity
  8
0
  6
Continuous
 62
     7
370
    25
100
AcDbLine
 10
79.2742623734
 20
67.31126886140001
 30
0.0
 11
99.95700020120001
 21
31.4877161041
 31
0.0
  0
ARC
  5
CF
330
1F
100
AcDbEntity
  8
0
  6
Continuous
 62
     7
370
    25
100
AcDbCircle
 10
97.35892398959999
 20
29.9877161044
 30
0.0
 40
2.999999999997892
100
AcDbArc
 50
299.9999999909
 51
29.9999999923
  0
LINE
  5
D0
330
1F
100
AcDbEntity
  8
0
  6
Continuous
 62
     7
370
    25
100
AcDbLine
 10
86.73456833620001
 20
20.3896398928
 30
0.0
 11
98.85892398919999
 21
27.3896398929
 31
0.0
  0
CIRCLE
  5
D1
330
1F
100
AcDbEntity
  8
0
  6
Continuous
 62
     7
370
    25
100
AcDbCircle
 10
54.8458711496
 20
16.6236471599
 30
0.0
 40
2.000000000005357
  0
CIRCLE
  5
D2
330
1F
100
AcDbEntity
  8
0
  6
Continuous
 62
     7
370
    25
100
AcDbCircle
 10
43.86584266079998
 20
35.6418884889
 30
0.0
 40
2.000000000009058
  0
CIRCLE
  5
D3
330
1F
100
AcDbEntity
  8
0
  6
Continuous
 62
     7
370
    25
100
AcDbCircle
 10
-51.53463612109999
 20
20.3214038165
 30
0.0
 40
2.000000000117339
  0
CIRCLE
  5
D4
330
1F
100
AcDbEntity
  8
0
  6
Continuous
 62
     7
370
    25
100
AcDbCircle
 10
-56.73080726729999
 20
23.3213713861
 30
0.0
 40
2.000000000040941
  0
CIRCLE
  5
D5
330
1F
100
AcDbEntity
  8
0
  6
Continuous
 62
     7
370
    25
100
AcDbCircle
 10
-40.53293080329999
 20
39.377191056
 30
0.0
 40
2.000000000077073
  0
CIRCLE
  5
D6
330
1F
100
AcDbEntity
  8
0
  6
Continuous
 62
     7
370
    25
100
AcDbCircle
 10
-45.7291019495
 20
42.37715862559999
 30
0.0
 40
1.999999999991189
  0
CIRCLE
  5
D7
330
1F
100
AcDbEntity
  8
0
  6
Continuous
 62
     7
370
    25
100
AcDbCircle
 10
-61.9269784135
 20
26.3213389557
 30
0.0
 40
2.000000000031477
  0
CIRCLE
  5
D8
330
1F
100
AcDbEntity
  8
0
  6
Continuous
 62
     7
370
    25
100
AcDbCircle
 10
-50.9252730957
 20
45.3771261952
 30
0.0
 40
1.999999999991203
  0
ARC
  5
D9
330
1F
100
AcDbEntity
  8
0
  6
Continuous
 62
     7
370
    25
100
AcDbCircle
 10
-56.1417481874
 20
48.34296813779999
 30
0.0
 40
2.000000000000186
100
AcDbArc
 50
191.4327393143
 51
108.5679758743
  0
LINE
  5
DA
330
1F
100
AcDbEntity
  8
0
  6
Continuous
 62
     7
370
    25
100
AcDbLine
 10
-67.7607553104
 20
31.2169486077
 30
0.0
 11
-58.1020643303
 21
47.9465332505
 31
0.0
  0
ARC
  5
DB
330
1F
100
AcDbEntity
  8
0
  6
Continuous
 62
     7
370
    25
100
AcDbCircle
 10
-67.1231495597
 20
29.3213065248
 30
0.0
 40
1.999999999998978
100
AcDbArc
 50
191.4101718843
 51
108.5905433056
  0
LINE
  5
DC
330
1F
100
AcDbEntity
  8
0
  6
Continuous
 62
     7
370
    25
100
AcDbLine
 10
-69.08362169670001
 20
28.9256437895
 30
0.0
 11
-73.26246804500001
 21
21.6880731145
 31
0.0
  0
ARC
  5
DD
330
1F
100
AcDbEntity
  8
0
  6
Continuous
 62
     7
370
    25
100
AcDbCircle
 10
-75.860508043
 20
23.1881358352
 30
0.0
 40
2.999999999562862
100
AcDbArc
 50
239.9999999987
 51
329.9986167955
  0
LINE
  5
DE
330
1F
100
AcDbEntity
  8
0
  6
Continuous
 62
     7
370
    25
100
AcDbLine
 10
-77.36050804279999
 20
20.5900596243
 30
0.0
 11
-89.48486369580001
 21
27.5900596242
 31
0.0
  0
ARC
  5
DF
330
1F
100
AcDbEntity
  8
0
  6
Continuous
 62
     7
370
    25
100
AcDbCircle
 10
-87.9848636958
 20
30.1881358356
 30
0.0
 40
3.000000000001787
100
AcDbArc
 50
150.0000000016
 51
240.0
  0
LINE
  5
E0
330
1F
100
AcDbEntity
  8
0
  6
Continuous
 62
     7
370
    25
100
AcDbLine
 10
-90.58293990720001
 20
31.6881358355
 30
0.0
 11
-69.8991399071
 21
67.5135283292
 31
0.0
  0
ARC
  5
E1
330
1F
100
AcDbEntity
  8
0
  6
Continuous
 62
     7
370
    25
100
AcDbCircle
 10
-67.30106369579999
 20
66.01352832919999
 30
0.0
 40
2.999999999999001
100
AcDbArc
 50
59.9999999993
 51
149.9999999999
  0
LINE
  5
E2
330
1F
100
AcDbEntity
  8
0
  6
Continuous
 62
     7
370
    25
100
AcDbLine
 10
-53.67670804279999
 20
61.6116045405
 30
0.0
 11
-65.8010636957
 21
68.6116045405
 31
0.0
  0
ARC
  5
E3
330
1F
100
AcDbEntity
  8
0
  6
Continuous
 62
     7
370
    25
100
AcDbCircle
 10
-55.17670804239998
 20
59.0135283289
 30
0.0
 40
2.999999999997401
100
AcDbArc
 50
329.9999999913
 51
60.0000000086
  0
LINE
  5
E4
330
1F
100
AcDbEntity
  8
0
  6
Continuous
 62
     7
370
    25
100
AcDbLine
 10
-56.7786072408
 20
50.2388612113
 30
0.0
 11
-52.5786318313
 21
57.5135283285
 31
0.0
  0
CIRCLE
  5
E5
330
1F
100
AcDbEntity
  8
0
  6
Continuous
 62
     7
370
    25
100
AcDbCircle
 10
-45.47106356689999
 20
16.8248619359
 30
0.0
 40
2.000000000040821
  0
CIRCLE
  5
E6
330
1F
100
AcDbEntity
  8
0
  6
Continuous
 62
     7
370
    25
100
AcDbCircle
 10
-34.4910350781
 20
35.84310326500001
 30
0.0
 40
2.000000000021024
  0
CIRCLE
  5
E7
330
1F
100
AcDbEntity
  8
0
  6
Continuous
 62
     7
370
    25
100
AcDbCircle
 10
15.6332027503
 20
-57.8991615913
 30
0.0
 40
2.000000000044022
  0
CIRCLE
  5
E8
330
1F
100
AcDbEntity
  8
0
  6
Continuous
 62
     7
370
    25
100
AcDbCircle
 10
15.6332401976
 20
-63.8991615911
 30
0.0
 40
2.000000000031726
  0
CIRCLE
  5
E9
330
1F
100
AcDbEntity
  8
0
  6
Continuous
 62
     7
370
    25
100
AcDbCircle
 10
-6.3704457471
 20
-57.89929892079999
 30
0.0
 40
2.000000000040329
  0
CIRCLE
  5
EA
330
1F
100
AcDbEntity
  8
0
  6
Continuous
 62
     7
370
    25
100
AcDbCircle
 10
-6.3704082998
 20
-63.8992989206
 30
0.0
 40
2.000000000040083
  0
CIRCLE
  5
EB
330
1F
100
AcDbEntity
  8
0
  6
Continuous
 62
     7
370
    25
100
AcDbCircle
 10
15.6332776449
 20
-69.8991615909
 30
0.0
 40
2.000000000029138
  0
CIRCLE
  5
EC
330
1F
100
AcDbEntity
  8
0
  6
Continuous
 62
     7
370
    25
100
AcDbCircle
 10
-6.370370852499998
 20
-69.8992989204
 30
0.0
 40
1.99999999998995
  0
ARC
  5
ED
330
1F
100
AcDbEntity
  8
0
  6
Continuous
 62
     7
370
    25
100
AcDbCircle
 10
-6.330627773099999
 20
-75.89981983979999
 30
0.0
 40
2.000000000000011
100
AcDbArc
 50
311.4327393152
 51
228.5679758743
  0
LINE
  5
EE
330
1F
100
AcDbEntity
  8
0
  6
Continuous
 62
     7
370
    25
100
AcDbLine
 10
14.3104437672
 20
-77.39916540999998
 30
0.0
 11
-5.007147018299999
 21
-77.3992859753
 31
0.0
  0
ARC
  5
EF
330
1F
100
AcDbEntity
  8
0
  6
Continuous
 62
     7
370
    25
100
AcDbCircle
 10
15.6333150923
 20
-75.89916159090001
 30
0.0
 40
2.000000000002966
100
AcDbArc
 50
311.4101718859
 51
228.5905433034
  0
LINE
  5
F0
330
1F
100
AcDbEntity
  8
0
  6
Continuous
 62
     7
370
    25
100
AcDbLine
 10
16.9562051409
 20
-77.39914889729998
 30
0.0
 11
25.3135483813
 21
-77.3993506559
 31
0.0
  0
ARC
  5
F1
330
1F
100
AcDbEntity
  8
0
  6
Continuous
 62
     7
370
    25
100
AcDbCircle
 10
25.3134759572
 20
-80.39935065459998
 30
0.0
 40
2.999999999563326
100
AcDbArc
 50
0.0000000096
 51
89.99861680030001
  0
LINE
  5
F2
330
1F
100
AcDbEntity
  8
0
  6
Continuous
 62
     7
370
    25
100
AcDbLine
 10
28.3134759567
 20
-80.3993506541
 30
0.0
 11
28.3134759567
 21
-94.39935065410001
 31
0.0
  0
ARC
  5
F3
330
1F
100
AcDbEntity
  8
0
  6
Continuous
 62
     7
370
    25
100
AcDbCircle
 10
25.3134759567
 20
-94.39935065410001
 30
0.0
 40
3.000000000000013
100
AcDbArc
 50
270.0
 51
0.0
  0
LINE
  5
F4
330
1F
100
AcDbEntity
  8
0
  6
Continuous
 62
     7
370
    25
100
AcDbLine
 10
-16.0541240433
 20
-97.39935065410001
 30
0.0
 11
25.3134759567
 21
-97.39935065410001
 31
0.0
  0
ARC
  5
F5
330
1F
100
AcDbEntity
  8
0
  6
Continuous
 62
     7
370
    25
100
AcDbCircle
 10
-16.0541240433
 20
-94.39935065410001
 30
0.0
 40
3.000000000000013
100
AcDbArc
 50
180.0
 51
270.0
  0
LINE
  5
F6
330
1F
100
AcDbEntity
  8
0
  6
Continuous
 62
     7
370
    25
100
AcDbLine
 10
-19.0541240433
 20
-80.3993506541
 30
0.0
 11
-19.0541240433
 21
-94.39935065410001
 31
0.0
  0
ARC
  5
F7
330
1F
100
AcDbEntity
  8
0
  6
Continuous
 62
     7
370
    25
100
AcDbCircle
 10
-16.0541240433
 20
-80.3993506541
 30
0.0
 40
3.0
100
AcDbArc
 50
90.0
 51
180.0
  0
LINE
  5
F8
330
1F
100
AcDbEntity
  8
0
  6
Continuous
 62
     7
370
    25
100
AcDbLine
 10
-7.654089811
 20
-77.39930249539998
 30
0.0
 11
-16.0541240433
 21
-77.3993506541
 31
0.0
  0
CIRCLE
  5
F9
330
1F
100
AcDbEntity
  8
0
  6
Continuous
 62
     7
370
    25
100
AcDbCircle
 10
15.6295105672
 20
-50.8996827814
 30
0.0
 40
2.000000000044213
  0
CIRCLE
  5
FA
330
1F
100
AcDbEntity
  8
0
  6
Continuous
 62
     7
370
    25
100
AcDbCircle
 10
-6.3307838035
 20
-50.8998198403
 30
0.0
 40
2.000000000038034
  0
CIRCLE
  5
FB
330
1F
100
AcDbEntity
  8
0
  6
Continuous
 62
     7
370
    25
100
AcDbCircle
 10
59.6295552209
 20
83.7961765748
 30
0.0
 40
1.499999999999972
  0
CIRCLE
  5
100
330
1F
100
AcDbEntity
  8
0
  6
Continuous
 62
     7
370
    25
100
AcDbCircle
 10
51.66702489439999
 20
89.62625447329996
 30
0.0
 40
1.499999999999964
  0
CIRCLE
  5
101
330
1F
100
AcDbEntity
  8
0
  6
Continuous
 62
     7
370
    25
100
AcDbCircle
 10
-41.9527288967
 20
89.312873565
 30
0.0
 40
1.499999999999956
  0
CIRCLE
  5
102
330
1F
100
AcDbEntity
  8
0
  6
Continuous
 62
     7
370
    25
100
AcDbCircle
 10
4.629555220899999
 20
0.6007711785000001
 30
0.0
 40
12.00000000000584
  0
CIRCLE
  5
103
330
1F
100
AcDbEntity
  8
0
  6
Continuous
 62
     7
370
    25
100
AcDbCircle
 10
43.48229639310001
 20
44.4751723492
 30
0.0
 40
1.5000000000007
  0
CIRCLE
  5
104
330
1F
100
AcDbEntity
  8
0
  6
Continuous
 62
     7
370
    25
100
AcDbCircle
 10
36.1298363654
 20
51.2531758562
 30
0.0
 40
1.500000000000696
  0
ARC
  5
105
330
1F
100
AcDbEntity
  8
0
  6
Continuous
 62
     7
370
    25
100
AcDbCircle
 10
26.6037385493
 20
-25.9595866295
 30
0.0
 40
5.000000000000127
100
AcDbArc
 50
186.8533519398
 51
190.7884886659999
  0
ARC
  5
106
330
1F
100
AcDbEntity
  8
0
  6
Continuous
 62
     7
370
    25
100
AcDbCircle
 10
119.2576758671
 20
-11.5813560145
 30
0.0
 40
98.76012370353468
100
AcDbArc
 50
179.6392775181
 51
188.7213263278
  0
ARC
  5
107
330
1F
100
AcDbEntity
  8
0
  6
Continuous
 62
     7
370
    25
100
AcDbCircle
 10
30.009274873
 20
-14.0522167948
 30
0.0
 40
10.00000000000001
100
AcDbArc
 50
115.1558229469
 51
161.9851779324
  0
ARC
  5
108
330
1F
100
AcDbEntity
  8
0
  6
Continuous
 62
     7
370
    25
100
AcDbCircle
 10
75.4040578725
 20
-110.7144263773
 30
0.0
 40
116.7907724709584
100
AcDbArc
 50
83.56390415369999
 51
115.1558229469
  0
ARC
  5
109
330
1F
100
AcDbEntity
  8
0
  6
Continuous
 62
     7
370
    25
100
AcDbCircle
 10
80.83979075409999
 20
44.6007711786
 30
0.0
 40
40.00000000000174
100
AcDbArc
 50
281.0343896913
 51
301.3206055942
  0
ARC
  5
10A
330
1F
100
AcDbEntity
  8
0
  6
Continuous
 62
     7
370
    25
100
AcDbCircle
 10
4.629555220899999
 20
0.6007711785000001
 30
0.0
 40
97.4999999999995
100
AcDbArc
 50
294.2140971001
 51
5.785902899899999
  0
ARC
  5
10B
330
1F
100
AcDbEntity
  8
0
  6
Continuous
 62
     7
370
    25
100
AcDbCircle
 10
4.629555220799999
 20
-87.3992288224
 30
0.0
 40
40.00000000004407
100
AcDbArc
 50
358.6793944067
 51
18.9656103094
  0
ARC
  5
10C
330
1F
100
AcDbEntity
  8
0
  6
Continuous
 62
     7
370
    25
100
AcDbCircle
 10
136.4185954572
 20
-5.0341472804
 30
0.0
 40
116.7907724709641
100
AcDbArc
 50
211.1085703431
 51
216.4360958463
  0
ARC
  5
10D
330
1F
100
AcDbEntity
  8
0
  6
Continuous
 62
     7
370
    25
100
AcDbCircle
 10
83.784680755
 20
-28.1333759338
 30
0.0
 40
60.24989381697727
100
AcDbArc
 50
189.210611026
 51
218.1794501024
  0
ARC
  5
10E
330
1F
100
AcDbEntity
  8
0
  6
Continuous
 62
     7
370
    25
100
AcDbCircle
 10
136.4185954572
 20
-5.0341472804
 30
0.0
 40
116.790772470964
100
AcDbArc
 50
190.7884886659999
 51
196.2814907851998
  0
CIRCLE
  5
2D3
330
1F
100
AcDbEntity
  8
0
  6
Continuous
 62
     7
370
    25
100
AcDbCircle
 10
160.5739782398675
 20
161.7972155920674
 30
0.0
 40
1.500000000000025
  0
CIRCLE
  5
2D4
330
1F
100
AcDbEntity
  8
0
  6
Continuous
 62
     7
370
    25
100
AcDbCircle
 10
67.77013992426754
 20
97.53183903576747
 30
0.0
 40
1.500000000010729
  0
CIRCLE
  5
2D5
330
1F
100
AcDbEntity
  8
0
  6
Continuous
 62
     7
370
    25
100
AcDbCircle
 10
138.6411685486675
 20
177.1204987928673
 30
0.0
 40
1.5
  0
CIRCLE
  5
2D6
330
1F
100
AcDbEntity
  8
0
  6
Continuous
 62
     7
370
    25
100
AcDbCircle
 10
203.7854311511675
 20
140.9836741451675
 30
0.0
 40
1.499999999999943
  0
CIRCLE
  5
2D7
330
1F
100
AcDbEntity
  8
0
  6
Continuous
 62
     7
370
    25
100
AcDbCircle
 10
192.5653594379675
 20
143.4616437475674
 30
0.0
 40
4.0
  0
CIRCLE
  5
2D9
330
1F
100
AcDbEntity
  8
0
  6
Continuous
 62
     7
370
    25
100
AcDbCircle
 10
70.0600797836675
 20
186.9474502752674
 30
0.0
 40
1.500000000000213
  0
ARC
  5
2DA
330
1F
100
AcDbEntity
  8
0
  6
Continuous
 62
     7
370
    25
100
AcDbCircle
 10
65.19279168576753
 20
106.5477437578674
 30
0.0
 40
5.000000000000306
100
AcDbArc
 50
196.6685876968002
 51
265.1509811569997
  0
LINE
  5
2DB
330
1F
100
AcDbEntity
  8
0
  6
Continuous
 62
     7
370
    25
100
AcDbLine
 10
64.77013992426754
 20
101.5656392337674
 30
0.0
 11
64.77013992426754
 21
94.53183903576746
 31
0.0
  0
LINE
  5
2DC
330
1F
100
AcDbEntity
  8
0
  6
Continuous
 62
     7
370
    25
100
AcDbLine
 10
64.77013992426754
 20
94.53183903576746
 30
0.0
 11
70.77013992426755
 21
94.53183903576746
 31
0.0
  0
LINE
  5
2DD
330
1F
100
AcDbEntity
  8
0
  6
Continuous
 62
     7
370
    25
100
AcDbLine
 10
70.77013992426755
 20
94.53183903576746
 30
0.0
 11
70.77013992426755
 21
98.84756711386746
 31
0.0
  0
ARC
  5
2DE
330
1F
100
AcDbEntity
  8
0
  6
Continuous
 62
     7
370
    25
100
AcDbCircle
 10
75.77013992426755
 20
98.84756711386746
 30
0.0
 40
5.0
100
AcDbArc
 50
103.7935004646997
 51
180.0
  0
LINE
  5
2DF
330
1F
100
AcDbEntity
  8
0
  6
Continuous
 62
     7
370
    25
100
AcDbLine
 10
74.57802346306748
 20
103.7033737763674
 30
0.0
 11
86.4925174294675
 21
106.6284211208674
 31
0.0
  0
LINE
  5
2E0
330
1F
100
AcDbEntity
  8
0
  6
Continuous
 62
     7
370
    25
100
AcDbLine
 10
86.4925174294675
 20
106.6284211208674
 30
0.0
 11
105.4588778526675
 21
72.10973472476744
 31
0.0
  0
ARC
  5
2E1
330
1F
100
AcDbEntity
  8
0
  6
Continuous
 62
     7
370
    25
100
AcDbCircle
 10
114.2230642978675
 20
76.92523427856746
 30
0.0
 40
9.999999999999918
100
AcDbArc
 50
208.7866810587994
 51
331.2133189412002
  0
LINE
  5
2E2
330
1F
100
AcDbEntity
  8
0
  6
Continuous
 62
     7
370
    25
100
AcDbLine
 10
122.9872507431675
 20
72.10973472476744
 30
0.0
 11
141.9208245828675
 21
106.5687496938674
 31
0.0
  0
LINE
  5
2E3
330
1F
100
AcDbEntity
  8
0
  6
Continuous
 62
     7
370
    25
100
AcDbLine
 10
141.9208245828675
 20
106.5687496938674
 30
0.0
 11
153.7660947010675
 21
103.6606970310674
 31
0.0
  0
ARC
  5
2E4
330
1F
100
AcDbEntity
  8
0
  6
Continuous
 62
     7
370
    25
100
AcDbCircle
 10
152.5739782398675
 20
98.80489036856744
 30
0.0
 40
5.0
100
AcDbArc
 50
0.0
 51
76.20649953510241
  0
LINE
  5
2E5
330
1F
100
AcDbEntity
  8
0
  6
Continuous
 62
     7
370
    25
100
AcDbLine
 10
157.5739782398675
 20
98.80489036856744
 30
0.0
 11
157.5739782398675
 21
94.53183903576746
 31
0.0
  0
LINE
  5
2E6
330
1F
100
AcDbEntity
  8
0
  6
Continuous
 62
     7
370
    25
100
AcDbLine
 10
157.5739782398675
 20
94.53183903576746
 30
0.0
 11
163.5739782398675
 21
94.53183903576746
 31
0.0
  0
LINE
  5
2E7
330
1F
100
AcDbEntity
  8
0
  6
Continuous
 62
     7
370
    25
100
AcDbLine
 10
163.5739782398675
 20
94.53183903576746
 30
0.0
 11
163.5739782398675
 21
101.5005791016674
 31
0.0
  0
ARC
  5
2E8
330
1F
100
AcDbEntity
  8
0
  6
Continuous
 62
     7
370
    25
100
AcDbCircle
 10
163.2205503265675
 20
106.4880723306674
 30
0.0
 40
5.000000000001842
100
AcDbArc
 50
274.0533657566991
 51
343.3314123031998
  0
LINE
  5
2E9
330
1F
100
AcDbEntity
  8
0
  6
Continuous
 62
     7
370
    25
100
AcDbLine
 10
168.0104498053675
 20
105.0538955691674
 30
0.0
 11
174.7414036315675
 21
127.5341037888674
 31
0.0
  0
ARC
  5
2EA
330
1F
100
AcDbEntity
  8
0
  6
Continuous
 62
     7
370
    25
100
AcDbCircle
 10
188.7995338845675
 20
68.74863596946744
 30
0.0
 40
60.44304966628239
100
AcDbArc
 50
84.99631063549783
 51
103.4492933891994
  0
LINE
  5
2EB
330
1F
100
AcDbEntity
  8
0
  6
Continuous
 62
     7
370
    25
100
AcDbLine
 10
194.0713699730675
 20
128.9613422465674
 30
0.0
 11
205.0976818192675
 21
128.9613422465674
 31
0.0
  0
ARC
  5
2EC
330
1F
100
AcDbEntity
  8
0
  6
Continuous
 62
     7
370
    25
100
AcDbCircle
 10
205.0976818194675
 20
133.9613422465674
 30
0.0
 40
4.999999999985584
100
AcDbArc
 50
269.999999998098
 51
27.85328604910084
  0
LINE
  5
2ED
330
1F
100
AcDbEntity
  8
0
  6
Continuous
 62
     7
370
    25
100
AcDbLine
 10
209.5184160455675
 20
136.2973878158674
 30
0.0
 11
204.4045131230675
 21
145.9749411876674
 31
0.0
  0
ARC
  5
2EE
330
1F
100
AcDbEntity
  8
0
  6
Continuous
 62
     7
370
    25
100
AcDbCircle
 10
109.9900890768675
 20
95.61766727916745
 30
0.0
 40
107.0043854403504
100
AcDbArc
 50
28.07386387620045
 51
68.165199638301
  0
LINE
  5
2EF
330
1F
100
AcDbEntity
  8
0
  6
Continuous
 62
     7
370
    25
100
AcDbLine
 10
149.7884132986675
 20
194.9455681560674
 30
0.0
 11
129.4784495148675
 21
183.8334050672674
 31
0.0
  0
ARC
  5
2F0
330
1F
100
AcDbEntity
  8
0
  6
Continuous
 62
     7
370
    25
100
AcDbCircle
 10
114.4411685487675
 20
182.7539508662674
 30
0.0
 40
15.07597559784714
100
AcDbArc
 50
4.105945775500627
 51
37.76018654710186
  0
LINE
  5
2F1
330
1F
100
AcDbEntity
  8
0
  6
Continuous
 62
     7
370
    25
100
AcDbLine
 10
126.3599441294675
 20
191.9858428111674
 30
0.0
 11
128.4159119185675
 21
198.7106104373674
 31
0.0
  0
LINE
  5
2F2
330
1F
100
AcDbEntity
  8
0
  6
Continuous
 62
     7
370
    25
100
AcDbLine
 10
128.4159119185675
 20
198.7106104373674
 30
0.0
 11
121.9598090317675
 21
193.6665500486674
 31
0.0
  0
LINE
  5
2F3
330
1F
100
AcDbEntity
  8
0
  6
Continuous
 62
     7
370
    25
100
AcDbLine
 10
121.9598090317675
 20
193.6665500486674
 30
0.0
 11
106.9225280656675
 21
193.6665500486674
 31
0.0
  0
LINE
  5
2F4
330
1F
100
AcDbEntity
  8
0
  6
Continuous
 62
     7
370
    25
100
AcDbLine
 10
106.9225280656675
 20
193.6665500486674
 30
0.0
 11
100.4664251788675
 21
198.7106104373674
 31
0.0
  0
LINE
  5
2F5
330
1F
100
AcDbEntity
  8
0
  6
Continuous
 62
     7
370
    25
100
AcDbLine
 10
100.4664251788675
 20
198.7106104373674
 30
0.0
 11
102.5223929679675
 21
191.9858428111674
 31
0.0
  0
ARC
  5
2F6
330
1F
100
AcDbEntity
  8
0
  6
Continuous
 62
     7
370
    25
100
AcDbCircle
 10
114.4411685487675
 20
182.7539508662674
 30
0.0
 40
15.07597559786259
100
AcDbArc
 50
142.2398134528981
 51
175.8940542244993
  0
LINE
  5
2F7
330
1F
100
AcDbEntity
  8
0
  6
Continuous
 62
     7
370
    25
100
AcDbLine
 10
99.40388758256752
 20
183.8334050672674
 30
0.0
 11
79.0939237989675
 21
194.9455681559674
 31
0.0
  0
ARC
  5
2F8
330
1F
100
AcDbEntity
  8
0
  6
Continuous
 62
     7
370
    25
100
AcDbCircle
 10
118.8922480207675
 20
95.61766727906746
 30
0.0
 40
107.0043854403411
100
AcDbArc
 50
111.834800361699
 51
151.9261361236998
  0
LINE
  5
2F9
330
1F
100
AcDbEntity
  8
0
  6
Continuous
 62
     7
370
    25
100
AcDbLine
 10
24.4778239746675
 20
145.9749411877674
 30
0.0
 11
19.32429313356755
 21
136.8488682610674
 31
0.0
  0
ARC
  5
2FA
330
1F
100
AcDbEntity
  8
0
  6
Continuous
 62
     7
370
    25
100
AcDbCircle
 10
23.73140610216751
 20
134.4872257644674
 30
0.0
 40
4.999999999993881
100
AcDbArc
 50
151.8144490716988
 51
269.6677351219005
  0
LINE
  5
2FB
330
1F
100
AcDbEntity
  8
0
  6
Continuous
 62
     7
370
    25
100
AcDbLine
 10
23.70241068416754
 20
129.4873098385674
 30
0.0
 11
34.7285371248675
 21
129.4233673345674
 31
0.0
  0
ARC
  5
2FC
330
1F
100
AcDbEntity
  8
0
  6
Continuous
 62
     7
370
    25
100
AcDbCircle
 10
38.46202543416751
 20
69.09573421346745
 30
0.0
 40
60.44304966627515
100
AcDbArc
 50
75.42539638500187
 51
93.54133989910026
  0
LINE
  5
2FD
330
1F
100
AcDbEntity
  8
0
  6
Continuous
 62
     7
370
    25
100
AcDbLine
 10
53.67193838076753
 20
127.5937752157674
 30
0.0
 11
60.40289220706751
 21
105.1135669962674
 31
0.0
  0
CIRCLE
  5
2FE
330
1F
100
AcDbEntity
  8
0
  6
Continuous
 62
     7
370
    25
100
AcDbCircle
 10
158.2842797836675
 20
186.9474502750674
 30
0.0
 40
1.499999999999945
  0
CIRCLE
  5
2FF
330
1F
100
AcDbEntity
  8
0
  6
Continuous
 62
     7
370
    25
100
AcDbCircle
 10
114.1720590820675
 20
79.59807451966745
 30
0.0
 40
1.499999990049625
  0
CIRCLE
  5
300
330
1F
100
AcDbEntity
  8
0
  6
Continuous
 62
     7
370
    25
100
AcDbCircle
 10
35.26723479536753
 20
142.8285554823674
 30
0.0
 40
3.999999999999787
  0
CIRCLE
  5
301
330
1F
100
AcDbEntity
  8
0
  6
Continuous
 62
     7
370
    25
100
AcDbCircle
 10
24.91923498826754
 20
140.9836741451675
 30
0.0
 40
1.5
  0
LINE
  5
302
330
1F
100
AcDbEntity
  8
0
  6
Continuous
 62
     7
370
    25
100
AcDbLine
 10
45.17193838076752
 20
143.4616437475674
 30
0.0
 11
57.17193838076752
 21
143.4616437475674
 31
0.0
  0
LINE
  5
303
330
1F
100
AcDbEntity
  8
0
  6
Continuous
 62
     7
370
    25
100
AcDbLine
 10
45.17193838076757
 20
161.4616437475674
 30
0.0
 11
45.17193838076752
 21
143.4616437475674
 31
0.0
  0
LINE
  5
305
330
1F
100
AcDbEntity
  8
0
  6
Continuous
 62
     7
370
    25
100
AcDbLine
 10
57.17193838076752
 20
143.4616437475674
 30
0.0
 11
57.17193838076759
 21
161.4616437475674
 31
0.0
  0
LINE
  5
306
330
1F
100
AcDbEntity
  8
0
  6
Continuous
 62
     7
370
    25
100
AcDbLine
 10
102.6720590820675
 20
84.03183903576744
 30
0.0
 11
125.6720590820675
 21
84.03183903576744
 31
0.0
  0
LINE
  5
30A
330
1F
100
AcDbEntity
  8
0
  6
Continuous
 62
     7
370
    25
100
AcDbLine
 10
183.1719383807675
 20
143.4616437475674
 30
0.0
 11
183.1719383807676
 21
161.4616437475674
 31
0.0
  0
LINE
  5
30B
330
1F
100
AcDbEntity
  8
0
  6
Continuous
 62
     7
370
    25
100
AcDbLine
 10
171.1719383807675
 20
143.4616437475674
 30
0.0
 11
183.1719383807675
 21
143.4616437475674
 31
0.0
  0
LINE
  5
30C
330
1F
100
AcDbEntity
  8
0
  6
Continuous
 62
     7
370
    25
100
AcDbLine
 10
171.1719383807676
 20
161.4616437475674
 30
0.0
 11
171.1719383807675
 21
143.4616437475674
 31
0.0
  0
LINE
  5
30E
330
1F
100
AcDbEntity
  8
0
  6
Continuous
 62
     7
370
    25
100
AcDbLine
 10
118.3717032979675
 20
165.1204987928674
 30
0.0
 11
118.3717032979675
 21
189.1204987928674
 31
0.0
  0
LINE
  5
30F
330
1F
100
AcDbEntity
  8
0
  6
Continuous
 62
     7
370
    25
100
AcDbLine
 10
110.3717032979675
 20
165.1204987928674
 30
0.0
 11
118.3717032979675
 21
165.1204987928674
 31
0.0
  0
LINE
  5
310
330
1F
100
AcDbEntity
  8
0
  6
Continuous
 62
     7
370
    25
100
AcDbLine
 10
110.3717032979675
 20
189.1204987928674
 30
0.0
 11
110.3717032979675
 21
165.1204987928674
 31
0.0
  0
LINE
  5
311
330
1F
100
AcDbEntity
  8
0
  6
Continuous
 62
     7
370
    25
100
AcDbLine
 10
118.3717032979675
 20
189.1204987928674
 30
0.0
 11
110.3717032979675
 21
189.1204987928674
 31
0.0
  0
CIRCLE
  5
312
330
1F
100
AcDbEntity
  8
0
  6
Continuous
 62
     7
370
    25
100
AcDbCircle
 10
90.2411685486675
 20
177.1204987928673
 30
0.0
 40
1.5
  0
CIRCLE
  5
313
330
1F
100
AcDbEntity
  8
0
  6
Continuous
 62
     7
370
    25
100
AcDbCircle
 10
67.77013992426754
 20
161.7972155920674
 30
0.0
 40
1.499999999999972
  0
CIRCLE
  5
314
330
1F
100
AcDbEntity
  8
0
  6
Continuous
 62
     7
370
    25
100
AcDbCircle
 10
160.5739782398675
 20
97.53183903576747
 30
0.0
 40
1.500000000000088
  0
CIRCLE
  5
3B5
330
1F
100
AcDbEntity
  8
0
  6
Continuous
 62
     7
370
    25
100
AcDbCircle
 10
270.5740471286498
 20
87.96839427976516
 30
0.0
 40
1.499999999999943
  0
LINE
  5
3B6
330
1F
100
AcDbEntity
  8
0
  6
Continuous
 62
     7
370
    25
100
AcDbLine
 10
244.2205705810496
 20
-79.05708901753482
 30
0.0
 11
202.8528981565497
 21
-79.05708901573484
 31
0.0
  0
ARC
  5
3B7
330
1F
100
AcDbEntity
  8
0
  6
Continuous
 62
     7
370
    25
100
AcDbCircle
 10
244.2204981570495
 20
-82.0570890161348
 30
0.0
 40
2.999999999562826
100
AcDbArc
 50
0.0
 51
89.9986168034013
  0
LINE
  5
3B8
330
1F
100
AcDbEntity
  8
0
  6
Continuous
 62
     7
370
    25
100
AcDbLine
 10
247.2204981565497
 20
-96.05708901573486
 30
0.0
 11
247.2204981565497
 21
-82.0570890161348
 31
0.0
  0
ARC
  5
3B9
330
1F
100
AcDbEntity
  8
0
  6
Continuous
 62
     7
370
    25
100
AcDbCircle
 10
244.2204981565498
 20
-96.05708901573486
 30
0.0
 40
3.000000000000013
100
AcDbArc
 50
270.0
 51
0.0
  0
LINE
  5
3BA
330
1F
100
AcDbEntity
  8
0
  6
Continuous
 62
     7
370
    25
100
AcDbLine
 10
202.8528981565497
 20
-99.05708901573484
 30
0.0
 11
244.2204981565498
 21
-99.05708901573484
 31
0.0
  0
ARC
  5
3BB
330
1F
100
AcDbEntity
  8
0
  6
Continuous
 62
     7
370
    25
100
AcDbCircle
 10
202.8528981565497
 20
-96.05708901573486
 30
0.0
 40
3.000000000000013
100
AcDbArc
 50
180.0
 51
270.0
  0
LINE
  5
3BC
330
1F
100
AcDbEntity
  8
0
  6
Continuous
 62
     7
370
    25
100
AcDbLine
 10
199.8528981565497
 20
-82.05708901573485
 30
0.0
 11
199.8528981565497
 21
-96.05708901573486
 31
0.0
  0
ARC
  5
3BD
330
1F
100
AcDbEntity
  8
0
  6
Continuous
 62
     7
370
    25
100
AcDbCircle
 10
202.8528981565497
 20
-82.05708901573485
 30
0.0
 40
3.0
100
AcDbArc
 50
90.0
 51
180.0
  0
ARC
  5
3BE
330
1F
100
AcDbEntity
  8
0
  6
Continuous
 62
     7
370
    25
100
AcDbCircle
 10
304.2948121530498
 20
21.41765420396517
 30
0.0
 40
2.999999999999828
100
AcDbArc
 50
209.9999999998999
 51
300.0000000010981
  0
LINE
  5
3BF
330
1F
100
AcDbEntity
  8
0
  6
Continuous
 62
     7
370
    25
100
AcDbLine
 10
281.0140340999497
 20
55.74114463446515
 30
0.0
 11
301.6967359417496
 21
19.91765420396516
 31
0.0
  0
ARC
  5
3C0
330
1F
100
AcDbEntity
  8
0
  6
Continuous
 62
     7
370
    25
100
AcDbCircle
 10
283.6120743253497
 20
57.24120696126515
 30
0.0
 40
2.999999999568393
100
AcDbArc
 50
120.0000000003986
 51
210.0013745166011
  0
LINE
  5
3C1
330
1F
100
AcDbEntity
  8
0
  6
Continuous
 62
     7
370
    25
100
AcDbLine
 10
294.2364299786497
 20
66.83928317226514
 30
0.0
 11
282.1120743255498
 21
59.83928317226514
 31
0.0
  0
ARC
  5
3C2
330
1F
100
AcDbEntity
  8
0
  6
Continuous
 62
     7
370
    25
100
AcDbCircle
 10
295.7364299786497
 20
64.24120696096517
 30
0.0
 40
2.999999999999928
100
AcDbArc
 50
30.00000000030132
 51
120.0000000000001
  0
LINE
  5
3C3
330
1F
100
AcDbEntity
  8
0
  6
Continuous
 62
     7
370
    25
100
AcDbLine
 10
319.0172440177497
 20
29.91765420366517
 30
0.0
 11
298.3345061899496
 21
65.74120696096517
 31
0.0
  0
ARC
  5
3C4
330
1F
100
AcDbEntity
  8
0
  6
Continuous
 62
     7
370
    25
100
AcDbCircle
 10
316.4191678061496
 20
28.41765420406518
 30
0.0
 40
2.999999999999852
100
AcDbArc
 50
299.9999999993004
 51
29.99999999070029
  0
LINE
  5
3C5
330
1F
100
AcDbEntity
  8
0
  6
Continuous
 62
     7
370
    25
100
AcDbLine
 10
305.7948121531498
 20
18.81957799266516
 30
0.0
 11
317.9191678061496
 21
25.81957799266517
 31
0.0
  0
CIRCLE
  5
3C6
330
1F
100
AcDbEntity
  8
0
  6
Continuous
 62
     7
370
    25
100
AcDbCircle
 10
252.2204981565498
 20
-96.05708901573486
 30
0.0
 40
1.499999999999943
  0
CIRCLE
  5
3C7
330
1F
100
AcDbEntity
  8
0
  6
Continuous
 62
     7
370
    25
100
AcDbCircle
 10
194.8528981565497
 20
-82.17148939093481
 30
0.0
 40
1.499999999999972
  0
CIRCLE
  5
3C8
330
1F
100
AcDbEntity
  8
0
  6
Continuous
 62
     7
370
    25
100
AcDbCircle
 10
155.3369654916497
 20
71.16941067786519
 30
0.0
 40
1.500000000276909
  0
CIRCLE
  5
3C9
330
1F
100
AcDbEntity
  8
0
  6
Continuous
 62
     7
370
    25
100
AcDbCircle
 10
126.6542575104496
 20
21.48950315576517
 30
0.0
 40
1.50000000027029
  0
CIRCLE
  5
3CA
330
1F
100
AcDbEntity
  8
0
  6
Continuous
 62
     7
370
    25
100
AcDbCircle
 10
279.3429767451497
 20
64.28381056636516
 30
0.0
 40
1.499999999999943
  0
CIRCLE
  5
3CB
330
1F
100
AcDbEntity
  8
0
  6
Continuous
 62
     7
370
    25
100
AcDbCircle
 10
308.0267767451497
 20
14.60201161216516
 30
0.0
 40
1.499999999999943
  0
CIRCLE
  5
3CD
330
1F
100
AcDbEntity
  8
0
  6
Continuous
 62
     7
370
    25
100
AcDbCircle
 10
132.7164063332496
 20
17.98945097336517
 30
0.0
 40
1.499999999999972
  0
CIRCLE
  5
3CE
330
1F
100
AcDbEntity
  8
0
  6
Continuous
 62
     7
370
    25
100
AcDbCircle
 10
252.2204981565498
 20
-89.05708901573484
 30
0.0
 40
1.499999999999943
  0
CIRCLE
  5
3D0
330
1F
100
AcDbEntity
  8
0
  6
Continuous
 62
     7
370
    25
100
AcDbCircle
 10
314.0889545716499
 20
18.10201161216516
 30
0.0
 40
1.499999999999943
  0
CIRCLE
  5
3D1
330
1F
100
AcDbEntity
  8
0
  6
Continuous
 62
     7
370
    25
100
AcDbCircle
 10
313.1720426667497
 20
-10.67137068063484
 30
0.0
 40
1.499999999999943
  0
CIRCLE
  5
3D2
330
1F
100
AcDbEntity
  8
0
  6
Continuous
 62
     7
370
    25
100
AcDbCircle
 10
223.5586705976497
 20
-72.05697030613484
 30
0.0
 40
1.499999994383301
  0
CIRCLE
  5
3D3
330
1F
100
AcDbEntity
  8
0
  6
Continuous
 62
     7
370
    25
100
AcDbCircle
 10
179.1048907153497
 20
59.55968420046517
 30
0.0
 40
1.499999999999972
  0
LINE
  5
3D4
330
1F
100
AcDbEntity
  8
0
  6
Continuous
 62
     7
370
    25
100
AcDbLine
 10
202.0981811063497
 20
31.45226794076516
 30
0.0
 11
202.0981811063497
 21
50.55968420046519
 31
0.0
  0
LINE
  5
3D8
330
1F
100
AcDbEntity
  8
0
  6
Continuous
 62
     7
370
    25
100
AcDbLine
 10
172.8246407361497
 20
53.05968420046519
 30
0.0
 11
169.4678005317497
 21
47.24546641346516
 31
0.0
  0
ARC
  5
3D9
330
1F
100
AcDbEntity
  8
0
  6
Continuous
 62
     7
370
    25
100
AcDbCircle
 10
177.1547677550496
 20
50.55968420046519
 30
0.0
 40
4.999999999999521
100
AcDbArc
 50
90.0
 51
149.9999999999998
  0
CIRCLE
  5
3DC
330
1F
100
AcDbEntity
  8
0
  6
Continuous
 62
     7
370
    25
100
AcDbCircle
 10
282.8701259073497
 20
-56.30697030613483
 30
0.0
 40
1.5
  0
ARC
  5
3DE
330
1F
100
AcDbEntity
  8
0
  6
Continuous
 62
     7
370
    25
100
AcDbCircle
 10
270.5767209218497
 20
50.60841048336516
 30
0.0
 40
5.000000000000018
100
AcDbArc
 50
30.00000000000164
 51
90.0
  0
LINE
  5
3DF
330
1F
100
AcDbEntity
  8
0
  6
Continuous
 62
     7
370
    25
100
AcDbLine
 10
278.1557571636496
 20
47.48113464006517
 30
0.0
 11
274.9068479407496
 21
53.10841048336516
 31
0.0
  0
LINE
  5
3E3
330
1F
100
AcDbEntity
  8
0
  6
Continuous
 62
     7
370
    25
100
AcDbLine
 10
245.0929888312497
 20
50.60841048336516
 30
0.0
 11
245.0929888312497
 21
31.27908778916515
 31
0.0
  0
CIRCLE
  5
3E5
330
1F
100
AcDbEntity
  8
0
  6
Continuous
 62
     7
370
    25
100
AcDbCircle
 10
164.3209104016497
 20
-56.30697030613483
 30
0.0
 40
1.5
  0
CIRCLE
  5
3E6
330
1F
100
AcDbEntity
  8
0
  6
Continuous
 62
     7
370
    25
100
AcDbCircle
 10
134.3058465037496
 20
-10.67137068063484
 30
0.0
 40
1.5
  0
CIRCLE
  5
3E7
330
1F
100
AcDbEntity
  8
0
  6
Continuous
 62
     7
370
    25
100
AcDbCircle
 10
223.5586705976497
 20
-25.05697030613484
 30
0.0
 40
1.5
  0
LINE
  5
3E8
330
1F
100
AcDbEntity
  8
0
  6
Continuous
 62
     7
370
    25
100
AcDbLine
 10
162.2274000353496
 20
74.50571759606515
 30
0.0
 11
175.1316099927497
 21
67.05547724496518
 31
0.0
  0
ARC
  5
3E9
330
1F
100
AcDbEntity
  8
0
  6
Continuous
 62
     7
370
    25
100
AcDbCircle
 10
223.2868102777496
 20
-0.7165485481348313
 30
0.0
 40
96.88467837086323
100
AcDbArc
 50
118.5631323915996
 51
129.0669255242022
  0
LINE
  5
3EA
330
1F
100
AcDbEntity
  8
0
  6
Continuous
 62
     7
370
    25
100
AcDbLine
 10
183.8021104545437
 20
77.53791193527111
 30
0.0
 11
176.9636479791496
 21
84.37637441066517
 31
0.0
  0
LINE
  5
3ED
330
1F
100
AcDbEntity
  8
0
  6
Continuous
 62
     7
370
    25
100
AcDbLine
 10
177.5529793661497
 20
63.60860721066516
 30
0.0
 11
183.8021104545437
 21
63.60860721066515
 31
0.0
  0
ARC
  5
3EE
330
1F
100
AcDbEntity
  8
0
  6
Continuous
 62
     7
370
    25
100
AcDbCircle
 10
172.6316121927497
 20
62.72534895586518
 30
0.0
 40
5.000000000000039
100
AcDbArc
 50
10.17478833319914
 51
60.00002910940222
  0
ARC
  5
3F0
330
1F
100
AcDbEntity
  8
0
  6
Continuous
 62
     7
370
    25
100
AcDbCircle
 10
223.2868102777496
 20
-0.7165485481348313
 30
0.0
 40
97.04626128712073
100
AcDbArc
 50
50.77263784029828
 51
61.09926514659752
  0
LINE
  5
3F1
330
1F
100
AcDbEntity
  8
0
  6
Continuous
 62
     7
370
    25
100
AcDbLine
 10
272.4292232665497
 20
67.40123313546516
 30
0.0
 11
284.6587992349497
 21
74.45961656576514
 31
0.0
  0
ARC
  5
3F2
330
1F
100
AcDbEntity
  8
0
  6
Continuous
 62
     7
370
    25
100
AcDbCircle
 10
274.9285950105496
 20
63.07074345346516
 30
0.0
 40
5.000000000000142
100
AcDbArc
 50
119.9916873315028
 51
174.0256223413989
  0
LINE
  5
3F3
330
1F
100
AcDbEntity
  8
0
  6
Continuous
 62
     7
370
    25
100
AcDbLine
 10
245.3190264386498
 20
63.51451552166516
 30
0.0
 11
258.8104844464498
 21
63.55648833445641
 31
0.0
  0
LINE
  5
3F6
330
1F
100
AcDbEntity
  8
0
  6
Continuous
 62
     7
370
    25
100
AcDbLine
 10
238.5002048388498
 20
-72.62778526863482
 30
0.0
 11
253.3768974958497
 21
-72.62778526863482
 31
0.0
  0
ARC
  5
3F7
330
1F
100
AcDbEntity
  8
0
  6
Continuous
 62
     7
370
    25
100
AcDbCircle
 10
238.5002048388498
 20
-67.62778526863482
 30
0.0
 40
5.000000000000011
100
AcDbArc
 50
172.9395503970999
 51
270.0
  0
LINE
  5
3F8
330
1F
100
AcDbEntity
  8
0
  6
Continuous
 62
     7
370
    25
100
AcDbLine
 10
233.5381197305498
 20
-65.05697030613484
 30
0.0
 11
233.5381197305498
 21
-67.01320298943483
 31
0.0
  0
LINE
  5
3F9
330
1F
100
AcDbEntity
  8
0
  6
Continuous
 62
     7
370
    25
100
AcDbLine
 10
280.3701259073497
 20
-65.05697030613484
 30
0.0
 11
233.5381197305498
 21
-65.05697030613484
 31
0.0
  0
ARC
  5
3FA
330
1F
100
AcDbEntity
  8
0
  6
Continuous
 62
     7
370
    25
100
AcDbCircle
 10
280.3701259073497
 20
-60.05697030613483
 30
0.0
 40
5.0
100
AcDbArc
 50
270.0
 51
0.0
  0
LINE
  5
3FB
330
1F
100
AcDbEntity
  8
0
  6
Continuous
 62
     7
370
    25
100
AcDbLine
 10
285.3701259073497
 20
-35.05697030613484
 30
0.0
 11
285.3701259073497
 21
-60.05697030613483
 31
0.0
  0
ARC
  5
3FC
330
1F
100
AcDbEntity
  8
0
  6
Continuous
 62
     7
370
    25
100
AcDbCircle
 10
280.3701259073497
 20
-35.05697030613484
 30
0.0
 40
5.0
100
AcDbArc
 50
0.0
 51
90.0
  0
LINE
  5
3FD
330
1F
100
AcDbEntity
  8
0
  6
Continuous
 62
     7
370
    25
100
AcDbLine
 10
238.5002048388498
 20
-30.05697030613484
 30
0.0
 11
280.3701259073497
 21
-30.05697030613484
 31
0.0
  0
ARC
  5
3FE
330
1F
100
AcDbEntity
  8
0
  6
Continuous
 62
     7
370
    25
100
AcDbCircle
 10
238.5002048388498
 20
-25.05697030613484
 30
0.0
 40
5.0
100
AcDbArc
 50
180.0
 51
270.0
  0
LINE
  5
3FF
330
1F
100
AcDbEntity
  8
0
  6
Continuous
 62
     7
370
    25
100
AcDbLine
 10
233.5002048388497
 20
-8.650934447534829
 30
0.0
 11
233.5002048388497
 21
-25.05697030613484
 31
0.0
  0
LINE
  5
403
330
1F
100
AcDbEntity
  8
0
  6
Continuous
 62
     7
370
    25
100
AcDbLine
 10
299.9076478060498
 20
8.679113969965165
 30
0.0
 11
292.3339776635497
 21
21.98684294416516
 31
0.0
  0
ARC
  5
404
330
1F
100
AcDbEntity
  8
0
  6
Continuous
 62
     7
370
    25
100
AcDbCircle
 10
304.2531818417498
 20
11.15223627686516
 30
0.0
 40
4.999999999999983
100
AcDbArc
 50
209.6449899449019
 51
300.0000291093995
  0
LINE
  5
405
330
1F
100
AcDbEntity
  8
0
  6
Continuous
 62
     7
370
    25
100
AcDbLine
 10
313.0339559420496
 20
10.44832013006516
 30
0.0
 11
306.7531840416499
 21
6.822110528065174
 31
0.0
  0
ARC
  5
406
330
1F
100
AcDbEntity
  8
0
  6
Continuous
 62
     7
370
    25
100
AcDbCircle
 10
315.5339581420498
 20
6.118194381265162
 30
0.0
 40
4.999999999999995
100
AcDbArc
 50
4.237396042400044
 51
120.0000291093995
  0
ARC
  5
407
330
1F
100
AcDbEntity
  8
0
  6
Continuous
 62
     7
370
    25
100
AcDbCircle
 10
223.2868102777496
 20
-0.7165485481348313
 30
0.0
 40
97.50000000000007
100
AcDbArc
 50
358.2151424479991
 51
4.237396042400044
  0
ARC
  5
408
330
1F
100
AcDbEntity
  8
0
  6
Continuous
 62
     7
370
    25
100
AcDbCircle
 10
317.7409614169497
 20
-3.659902514534827
 30
0.0
 40
2.999999999999991
100
AcDbArc
 50
270.0
 51
358.2151424479991
  0
LINE
  5
409
330
1F
100
AcDbEntity
  8
0
  6
Continuous
 62
     7
370
    25
100
AcDbLine
 10
314.1731866783497
 20
-6.659902514534842
 30
0.0
 11
317.7409614169497
 21
-6.659902514534842
 31
0.0
  0
ARC
  5
40A
330
1F
100
AcDbEntity
  8
0
  6
Continuous
 62
     7
370
    25
100
AcDbCircle
 10
314.1731866783497
 20
-9.659902514534842
 30
0.0
 40
3.000000000000006
100
AcDbArc
 50
90.0
 51
180.0
  0
LINE
  5
40B
330
1F
100
AcDbEntity
  8
0
  6
Continuous
 62
     7
370
    25
100
AcDbLine
 10
311.1731866783497
 20
-11.64984744923482
 30
0.0
 11
311.1731866783497
 21
-9.659902514534842
 31
0.0
  0
ARC
  5
40C
330
1F
100
AcDbEntity
  8
0
  6
Continuous
 62
     7
370
    25
100
AcDbCircle
 10
314.1731866783497
 20
-11.64984744923482
 30
0.0
 40
3.0
100
AcDbArc
 50
180.0
 51
270.0
  0
LINE
  5
40D
330
1F
100
AcDbEntity
  8
0
  6
Continuous
 62
     7
370
    25
100
AcDbLine
 10
316.2573076859497
 20
-14.64984744923483
 30
0.0
 11
314.1731866783497
 21
-14.64984744923483
 31
0.0
  0
ARC
  5
40E
330
1F
100
AcDbEntity
  8
0
  6
Continuous
 62
     7
370
    25
100
AcDbCircle
 10
316.2573076859497
 20
-17.64984744923483
 30
0.0
 40
3.000000000000006
100
AcDbArc
 50
349.6775130401994
 51
90.0
  0
ARC
  5
40F
330
1F
100
AcDbEntity
  8
0
  6
Continuous
 62
     7
370
    25
100
AcDbCircle
 10
223.2868102777496
 20
-0.7165485481348313
 30
0.0
 40
97.5
100
AcDbArc
 50
295.6832875016986
 51
349.6775130401994
  0
ARC
  5
410
330
1F
100
AcDbEntity
  8
0
  6
Continuous
 62
     7
370
    25
100
AcDbCircle
 10
263.3759618005496
 20
-84.07787009583481
 30
0.0
 40
4.999999999999991
100
AcDbArc
 50
179.9916873315006
 51
295.6832875016986
  0
LINE
  5
411
330
1F
100
AcDbEntity
  8
0
  6
Continuous
 62
     7
370
    25
100
AcDbLine
 10
258.3768974431497
 20
-77.62851068583481
 30
0.0
 11
258.3759618532496
 21
-84.0771446787348
 31
0.0
  0
ARC
  5
412
330
1F
100
AcDbEntity
  8
0
  6
Continuous
 62
     7
370
    25
100
AcDbCircle
 10
253.3768974958497
 20
-77.62778526863482
 30
0.0
 40
5.000000000000039
100
AcDbArc
 50
359.9916873315006
 51
90.0
  0
ARC
  5
413
330
1F
100
AcDbEntity
  8
0
  6
Continuous
 62
     7
370
    25
100
AcDbCircle
 10
166.8209104016497
 20
-60.05697030613483
 30
0.0
 40
5.0
100
AcDbArc
 50
180.0
 51
270.0
  0
LINE
  5
414
330
1F
100
AcDbEntity
  8
0
  6
Continuous
 62
     7
370
    25
100
AcDbLine
 10
213.398839259063
 20
-65.05697030613484
 30
0.0
 11
166.8209104016497
 21
-65.05697030613484
 31
0.0
  0
ARC
  5
416
330
1F
100
AcDbEntity
  8
0
  6
Continuous
 62
     7
370
    25
100
AcDbCircle
 10
208.9822250962508
 20
-67.58795235576619
 30
0.0
 40
4.451306416084203
100
AcDbArc
 50
267.0330288612543
 51
7.158015048275895
  0
LINE
  5
417
330
1F
100
AcDbEntity
  8
0
  6
Continuous
 62
     7
370
    25
100
AcDbLine
 10
193.7518579228498
 20
-72.03329196713482
 30
0.0
 11
208.7518242510497
 21
-72.03329196713482
 31
0.0
  0
ARC
  5
418
330
1F
100
AcDbEntity
  8
0
  6
Continuous
 62
     7
370
    25
100
AcDbCircle
 10
193.7518579228498
 20
-77.03329196713482
 30
0.0
 40
4.999999999999986
100
AcDbArc
 50
90.0
 51
180.0000291094005
  0
LINE
  5
419
330
1F
100
AcDbEntity
  8
0
  6
Continuous
 62
     7
370
    25
100
AcDbLine
 10
188.7518616597495
 20
-84.3884551992348
 30
0.0
 11
188.7518579228498
 21
-77.03329450733483
 31
0.0
  0
ARC
  5
41A
330
1F
100
AcDbEntity
  8
0
  6
Continuous
 62
     7
370
    25
100
AcDbCircle
 10
183.7518616597496
 20
-84.38845773953483
 30
0.0
 40
5.0
100
AcDbArc
 50
244.7092815478018
 51
0.0000291094004836
  0
ARC
  5
41B
330
1F
100
AcDbEntity
  8
0
  6
Continuous
 62
     7
370
    25
100
AcDbCircle
 10
223.2868102777496
 20
-0.7165485481348313
 30
0.0
 40
97.54188538151348
100
AcDbArc
 50
198.8682127081989
 51
244.7092815478018
  0
ARC
  5
41C
330
1F
100
AcDbEntity
  8
0
  6
Continuous
 62
     7
370
    25
100
AcDbCircle
 10
223.2471756106496
 20
-0.7300939658348327
 30
0.0
 40
97.50000000012278
100
AcDbArc
 50
190.3243362488005
 51
198.8682127081989
  0
ARC
  5
41D
330
1F
100
AcDbEntity
  8
0
  6
Continuous
 62
     7
370
    25
100
AcDbCircle
 10
130.2772247930496
 20
-17.66639359083483
 30
0.0
 40
3.000000000041456
100
AcDbArc
 50
90.0
 51
190.3243362488005
  0
LINE
  5
41E
330
1F
100
AcDbEntity
  8
0
  6
Continuous
 62
     7
370
    25
100
AcDbLine
 10
134.3487950618497
 20
-14.66639359083483
 30
0.0
 11
130.2772247930496
 21
-14.66639359083483
 31
0.0
  0
ARC
  5
41F
330
1F
100
AcDbEntity
  8
0
  6
Continuous
 62
     7
370
    25
100
AcDbCircle
 10
134.3042195624497
 20
-11.62181809143483
 30
0.0
 40
3.044901795917298
100
AcDbArc
 50
270.8388051207009
 51
359.1611948786998
  0
LINE
  5
420
330
1F
100
AcDbEntity
  8
0
  6
Continuous
 62
     7
370
    25
100
AcDbLine
 10
137.3487950618497
 20
-9.666393590634832
 30
0.0
 11
137.3487950618497
 21
-11.66639359083483
 31
0.0
  0
ARC
  5
421
330
1F
100
AcDbEntity
  8
0
  6
Continuous
 62
     7
370
    25
100
AcDbCircle
 10
134.3487950618497
 20
-9.666393590634832
 30
0.0
 40
2.999999999999993
100
AcDbArc
 50
0.0
 51
90.0
  0
LINE
  5
422
330
1F
100
AcDbEntity
  8
0
  6
Continuous
 62
     7
370
    25
100
AcDbLine
 10
128.7909558411496
 20
-6.666393590634832
 30
0.0
 11
134.3487950618497
 21
-6.666393590634832
 31
0.0
  0
ARC
  5
423
330
1F
100
AcDbEntity
  8
0
  6
Continuous
 62
     7
370
    25
100
AcDbCircle
 10
128.7909558411496
 20
-3.666393590634831
 30
0.0
 40
3.000000000000547
100
AcDbArc
 50
181.7880022790005
 51
270.0
  0
ARC
  5
424
330
1F
100
AcDbEntity
  8
0
  6
Continuous
 62
     7
370
    25
100
AcDbCircle
 10
223.2868102777496
 20
-0.7165485481348313
 30
0.0
 40
97.54188538147229
100
AcDbArc
 50
175.5638427084996
 51
181.7880022790005
  0
ARC
  5
425
330
1F
100
AcDbEntity
  8
0
  6
Continuous
 62
     7
370
    25
100
AcDbCircle
 10
131.0221675126496
 20
6.441401255465173
 30
0.0
 40
4.99999999999996
100
AcDbArc
 50
60.00002910940222
 51
175.5638427084996
  0
LINE
  5
426
330
1F
100
AcDbEntity
  8
0
  6
Continuous
 62
     7
370
    25
100
AcDbLine
 10
139.8427445081496
 20
7.122345726165171
 30
0.0
 11
133.5221653127495
 21
10.77152954446516
 31
0.0
  0
ARC
  5
427
330
1F
100
AcDbEntity
  8
0
  6
Continuous
 62
     7
370
    25
100
AcDbCircle
 10
142.3427423082497
 20
11.45247401526516
 30
0.0
 40
5.000000000000421
100
AcDbArc
 50
240.0000291094023
 51
329.9999999999983
  0
LINE
  5
428
330
1F
100
AcDbEntity
  8
0
  6
Continuous
 62
     7
370
    25
100
AcDbLine
 10
154.1338880399497
 20
21.87533750206516
 30
0.0
 11
146.6728693271496
 21
8.952474015265153
 31
0.0
  0
LINE
  5
42C
330
1F
100
AcDbEntity
  8
0
  6
Continuous
 62
     7
370
    25
100
AcDbLine
 10
213.3573289790996
 20
-25.05697030613484
 30
0.0
 11
213.3573289790996
 21
-9.65446608963483
 31
0.0
  0
ARC
  5
42D
330
1F
100
AcDbEntity
  8
0
  6
Continuous
 62
     7
370
    25
100
AcDbCircle
 10
208.9949764176969
 20
-25.66020165113382
 30
0.0
 40
4.403862841366351
100
AcDbArc
 50
266.7474022865587
 51
7.873000776498417
  0
LINE
  5
42E
330
1F
100
AcDbEntity
  8
0
  6
Continuous
 62
     7
370
    25
100
AcDbLine
 10
166.8209104016497
 20
-30.05697030613484
 30
0.0
 11
208.7451098133497
 21
-30.05697030613484
 31
0.0
  0
ARC
  5
42F
330
1F
100
AcDbEntity
  8
0
  6
Continuous
 62
     7
370
    25
100
AcDbCircle
 10
166.8209104016497
 20
-35.05697030613484
 30
0.0
 40
5.0
100
AcDbArc
 50
90.0
 51
180.0
  0
LINE
  5
430
330
1F
100
AcDbEntity
  8
0
  6
Continuous
 62
     7
370
    25
100
AcDbLine
 10
161.8209104016497
 20
-60.05697030613483
 30
0.0
 11
161.8209104016497
 21
-35.05697030613484
 31
0.0
  0
LINE
  5
434
330
1F
100
AcDbEntity
  8
0
  6
Continuous
 62
     7
370
    25
100
AcDbLine
 10
188.7518579228496
 20
80.94190134406202
 30
0.0
 11
176.5691653359496
 21
96.10138187326516
 31
0.0
  0
ARC
  5
435
330
1F
100
AcDbEntity
  8
0
  6
Continuous
 62
     7
370
    25
100
AcDbCircle
 10
223.2868102777496
 20
-0.7165485481348313
 30
0.0
 40
107.5000000000001
100
AcDbArc
 50
115.7587461826976
 51
63.95487641350077
  0
LINE
  5
436
330
1F
100
AcDbEntity
  8
0
  6
Continuous
 62
     7
370
    25
100
AcDbLine
 10
270.4877877977498
 20
95.86666801226517
 30
0.0
 11
258.8104844464496
 21
81.33606637995837
 31
0.0
  0
CIRCLE
  5
437
330
1F
100
AcDbEntity
  8
0
  6
Continuous
 62
     7
370
    25
100
AcDbCircle
 10
120.7658675870497
 20
-0.7165485481348313
 30
0.0
 40
1.5
  0
CIRCLE
  5
438
330
1F
100
AcDbEntity
  8
0
  6
Continuous
 62
     7
370
    25
100
AcDbCircle
 10
325.7868102777496
 20
-0.7165485481348313
 30
0.0
 40
1.5
  0
CIRCLE
  5
439
330
1F
100
AcDbEntity
  8
0
  6
Continuous
 62
     7
370
    25
100
AcDbCircle
 10
164.3209104016497
 20
-38.80697030613484
 30
0.0
 40
1.5
  0
CIRCLE
  5
43A
330
1F
100
AcDbEntity
  8
0
  6
Continuous
 62
     7
370
    25
100
AcDbCircle
 10
282.8701259073497
 20
-38.80697030613484
 30
0.0
 40
1.5
  0
CIRCLE
  5
43B
330
1F
100
AcDbEntity
  8
0
  6
Continuous
 62
     7
370
    25
100
AcDbCircle
 10
267.3827374241497
 20
59.78381785476518
 30
0.0
 40
1.5
  0
CIRCLE
  5
43C
330
1F
100
AcDbEntity
  8
0
  6
Continuous
 62
     7
370
    25
100
AcDbCircle
 10
223.5586705976497
 20
-65.05697030613484
 30
0.0
 40
1.5
  0
CIRCLE
  5
43D
330
1F
100
AcDbEntity
  8
0
  6
Continuous
 62
     7
370
    25
100
AcDbCircle
 10
170.5365774551497
 20
83.13831638126515
 30
0.0
 40
1.499999999999972
  0
CIRCLE
  5
440
330
1F
100
AcDbEntity
  8
0
  6
Continuous
 62
     7
370
    25
100
AcDbCircle
 10
285.4051545716496
 20
67.78381056636516
 30
0.0
 40
1.499999999999943
  0
CIRCLE
  5
441
330
1F
100
AcDbEntity
  8
0
  6
Continuous
 62
     7
370
    25
100
AcDbCircle
 10
194.8528981565497
 20
-89.05708901573484
 30
0.0
 40
1.499999999999972
  0
CIRCLE
  5
442
330
1F
100
AcDbEntity
  8
0
  6
Continuous
 62
     7
370
    25
100
AcDbCircle
 10
161.3991441609495
 20
67.66941019116515
 30
0.0
 40
1.499999999999972
  0
LINE
  5
443
330
1F
100
AcDbEntity
  8
0
  6
Continuous
 62
     7
370
    25
100
AcDbLine
 10
129.4616392174497
 20
25.95284738186516
 30
0.0
 11
141.5911437235496
 21
18.94987469006516
 31
0.0
  0
ARC
  5
444
330
1F
100
AcDbEntity
  8
0
  6
Continuous
 62
     7
370
    25
100
AcDbCircle
 10
223.2868102777496
 20
-0.7165485481348313
 30
0.0
 40
97.54188538147197
100
AcDbArc
 50
136.0156114789987
 51
164.1324306368002
  0
LINE
  5
445
330
1F
100
AcDbEntity
  8
0
  6
Continuous
 62
     7
370
    25
100
AcDbLine
 10
165.2850895876496
 20
59.98905691866518
 30
0.0
 11
153.1025903112496
 21
67.02261790276515
 31
0.0
  0
ARC
  5
446
330
1F
100
AcDbEntity
  8
0
  6
Continuous
 62
     7
370
    25
100
AcDbCircle
 10
163.7851734335496
 20
57.39093230076515
 30
0.0
 40
2.999999999990162
100
AcDbArc
 50
329.6113923180013
 51
60.00184904830101
  0
LINE
  5
447
330
1F
100
AcDbEntity
  8
0
  6
Continuous
 62
     7
370
    25
100
AcDbLine
 10
145.6891837214497
 20
20.04788818026515
 30
0.0
 11
166.3730162392497
 21
55.87334552816515
 31
0.0
  0
ARC
  5
448
330
1F
100
AcDbEntity
  8
0
  6
Continuous
 62
     7
370
    25
100
AcDbCircle
 10
143.0911437234496
 20
21.54795090106516
 30
0.0
 40
2.999999999575111
100
AcDbArc
 50
239.9999999987024
 51
329.9986167947988
  0
CIRCLE
  5
449
330
1F
100
AcDbEntity
  8
0
  6
Continuous
 62
     7
370
    25
100
AcDbCircle
 10
320.1511323980497
 20
21.60201161216518
 30
0.0
 40
1.499999999999943
  0
CIRCLE
  5
44A
330
1F
100
AcDbEntity
  8
0
  6
Continuous
 62
     7
370
    25
100
AcDbCircle
 10
291.4673323980498
 20
71.28381056636519
 30
0.0
 40
1.499999999999943
  0
CIRCLE
  5
44B
330
1F
100
AcDbEntity
  8
0
  6
Continuous
 62
     7
370
    25
100
AcDbCircle
 10
138.7786131638496
 20
14.48950315556516
 30
0.0
 40
1.499999999999972
  0
CIRCLE
  5
44C
330
1F
100
AcDbEntity
  8
0
  6
Continuous
 62
     7
370
    25
100
AcDbCircle
 10
167.4613219874496
 20
64.16941019116515
 30
0.0
 40
1.499999999999972
  0
CIRCLE
  5
44D
330
1F
100
AcDbEntity
  8
0
  6
Continuous
 62
     7
370
    25
100
AcDbCircle
 10
252.2204981565498
 20
-82.17148939093481
 30
0.0
 40
1.499999999999943
  0
CIRCLE
  5
44E
330
1F
100
AcDbEntity
  8
0
  6
Continuous
 62
     7
370
    25
100
AcDbCircle
 10
194.8528981565497
 20
-96.05708901573486
 30
0.0
 40
1.499999999999972
  0
CIRCLE
  5
44F
330
1F
100
AcDbEntity
  8
0
  6
Continuous
 62
     7
370
    25
100
AcDbCircle
 10
278.5365774551498
 20
82.13831638126515
 30
0.0
 40
1.499999999999943
  0
CIRCLE
  5
450
330
1F
100
AcDbEntity
  8
0
  6
Continuous
 62
     7
370
    25
100
AcDbCircle
 10
176.9542933375497
 20
87.65501337146517
 30
0.0
 40
1.499999999999972
  0
LINE
  5
5B4
330
1F
100
AcDbEntity
  8
0
100
AcDbLine
 10
-1.077000930699983
 20
-72.39910406140001
 30
0.0
 11
10.42023211220002
 21
-72.39910406140001
 31
0.0
  0
LINE
  5
5B6
330
1F
100
AcDbEntity
  8
0
100
AcDbLine
 10
-1.077000930699983
 20
-15.05934581849999
 30
0.0
 11
10.42023211220002
 21
-15.0593458185
 31
0.0
  0
LINE
  5
5B7
330
1F
100
AcDbEntity
  8
0
100
AcDbLine
 10
10.42023211220002
 20
-15.0593458185
 30
0.0
 11
10.42023211220002
 21
-72.39910406140001
 31
0.0
  0
LINE
  5
5B8
330
1F
100
AcDbEntity
  8
0
100
AcDbLine
 10
10.42023211220002
 20
-72.39910406140001
 30
0.0
 11
-1.077000930699983
 21
-72.39910406140001
 31
0.0
  0
LINE
  5
5B9
330
1F
100
AcDbEntity
  8
0
100
AcDbLine
 10
-1.077000930699983
 20
-72.39910406140001
 30
0.0
 11
-1.077000930699983
 21
-15.0593458185
 31
0.0
  0
LINE
  5
5BA
330
1F
100
AcDbEntity
  8
0
100
AcDbLine
 10
-61.47408265983152
 20
32.10245128822362
 30
0.0
 11
-55.72686404296844
 21
42.06334874637639
 31
0.0
  0
LINE
  5
5BB
330
1F
100
AcDbEntity
  8
0
100
AcDbLine
 10
-55.72686404296844
 20
42.06334874637639
 30
0.0
 11
-5.686353948096197
 21
14.05696153209402
 31
0.0
  0
LINE
  5
5BC
330
1F
100
AcDbEntity
  8
0
100
AcDbLine
 10
-5.686353948096197
 20
14.05696153209402
 30
0.0
 11
-11.43357256489999
 21
4.096064073999991
 31
0.0
  0
LINE
  5
5BD
330
1F
100
AcDbEntity
  8
0
100
AcDbLine
 10
-11.43357256489999
 20
4.096064073999991
 30
0.0
 11
-61.47408265983152
 21
32.10245128822362
 31
0.0
  0
LINE
  5
5BE
330
1F
100
AcDbEntity
  8
0
100
AcDbLine
 10
15.09579479923696
 20
14.11965041085273
 30
0.0
 11
20.84301342219418
 21
4.158752942137811
 31
0.0
  0
LINE
  5
5BF
330
1F
100
AcDbEntity
  8
0
100
AcDbLine
 10
20.84301342219418
 20
4.158752942137811
 30
0.0
 11
70.88352351097229
 21
32.16514016698233
 31
0.0
  0
LINE
  5
5C0
330
1F
100
AcDbEntity
  8
0
100
AcDbLine
 10
70.88352351097229
 20
32.16514016698233
 30
0.0
 11
65.13630489416847
 21
42.12603762507638
 31
0.0
  0
LINE
  5
5C1
330
1F
100
AcDbEntity
  8
0
100
AcDbLine
 10
65.13630489416847
 20
42.12603762507638
 30
0.0
 11
15.09579479923696
 21
14.11965041085273
 31
0.0
  0
LINE
  5
6A3
330
1F
100
AcDbEntity
  8
0
100
AcDbLine
 10
45.17193838076752
 20
161.4616437475674
 30
0.0
 11
42.67193838076752
 21
161.4616437475674
 31
0.0
  0
LINE
  5
6A4
330
1F
100
AcDbEntity
  8
0
100
AcDbLine
 10
42.67193838076752
 20
161.4616437475674
 30
0.0
 11
42.67193838076752
 21
163.9616437475674
 31
0.0
  0
LINE
  5
6A6
330
1F
100
AcDbEntity
  8
0
100
AcDbLine
 10
59.67193838076752
 20
166.4616437475674
 30
0.0
 11
59.67193838076752
 21
161.4616437475674
 31
0.0
  0
LINE
  5
6A7
330
1F
100
AcDbEntity
  8
0
100
AcDbLine
 10
59.67193838076752
 20
161.4616437475674
 30
0.0
 11
57.17193838076752
 21
161.4616437475674
 31
0.0
  0
LINE
  5
6A8
330
1F
100
AcDbEntity
  8
0
100
AcDbLine
 10
171.1719383807675
 20
161.4616437475674
 30
0.0
 11
168.6719383807675
 21
161.4616437475674
 31
0.0
  0
LINE
  5
6A9
330
1F
100
AcDbEntity
  8
0
100
AcDbLine
 10
168.6719383807675
 20
161.4616437475674
 30
0.0
 11
168.6719383807675
 21
166.4616437475674
 31
0.0
  0
LINE
  5
6AB
330
1F
100
AcDbEntity
  8
0
100
AcDbLine
 10
185.6719383807675
 20
166.4616437475674
 30
0.0
 11
185.6719383807675
 21
161.4616437475674
 31
0.0
  0
LINE
  5
6AC
330
1F
100
AcDbEntity
  8
0
100
AcDbLine
 10
185.6719383807675
 20
161.4616437475674
 30
0.0
 11
183.1719383807675
 21
161.4616437475674
 31
0.0
  0
LINE
  5
6B7
330
1F
100
AcDbEntity
  8
0
  6
Continuous
 62
     7
100
AcDbLine
 10
166.9759011741174
 20
121.2160895992819
 30
0.0
 11
166.9759011741174
 21
156.216089599282
 31
0.0
  0
LINE
  5
6B8
330
1F
100
AcDbEntity
  8
0
  6
Continuous
 62
     7
100
AcDbLine
 10
61.90643592331764
 20
156.216089599282
 30
0.0
 11
166.9759011741174
 21
156.216089599282
 31
0.0
  0
LINE
  5
6B9
330
1F
100
AcDbEntity
  8
0
  6
Continuous
 62
     7
100
AcDbLine
 10
61.90643592331764
 20
121.2160895992819
 30
0.0
 11
61.90643592331764
 21
156.216089599282
 31
0.0
  0
LINE
  5
6BA
330
1F
100
AcDbEntity
  8
0
  6
Continuous
 62
     7
100
AcDbLine
 10
61.90643592331764
 20
121.2160895992819
 30
0.0
 11
166.9759011741174
 21
121.2160895992819
 31
0.0
  0
CIRCLE
  5
6BB
330
1F
100
AcDbEntity
  8
0
100
AcDbCircle
 10
172.145484595558
 20
138.716089599282
 30
0.0
 40
1.5
  0
CIRCLE
  5
6BC
330
1F
100
AcDbEntity
  8
0
100
AcDbCircle
 10
56.73685250187697
 20
138.716089599282
 30
0.0
 40
1.5
  0
LINE
  5
6D8
330
1F
100
AcDbEntity
  8
0
  6
Continuous
 62
     7
370
    25
100
AcDbLine
 10
102.6720590820675
 20
95.03183903576745
 30
0.0
 11
102.6720590820675
 21
84.53183903576745
 31
0.0
  0
LINE
  5
6D9
330
1F
100
AcDbEntity
  8
0
  6
Continuous
 62
     7
370
    25
100
AcDbLine
 10
119.6720590820675
 20
95.03183903576745
 30
0.0
 11
102.6720590820675
 21
95.03183903576745
 31
0.0
  0
LINE
  5
6DA
330
1F
100
AcDbEntity
  8
0
  6
Continuous
 62
     7
370
    25
100
AcDbLine
 10
125.6720590820675
 20
84.53183903576745
 30
0.0
 11
125.6720590820675
 21
90.0318390357674
 31
0.0
  0
CIRCLE
  5
6DB
330
1F
100
AcDbEntity
  8
0
100
AcDbCircle
 10
122.6720590820675
 20
81.53183903576744
 30
0.0
 40
1.5
  0
LINE
  5
6DC
330
1F
100
AcDbEntity
  8
0
100
AcDbLine
 10
125.6720590820675
 20
90.0318390357674
 30
0.0
 11
125.6720590820675
 21
84.03183903576744
 31
0.0
  0
LINE
  5
6DD
330
1F
100
AcDbEntity
  8
0
100
AcDbLine
 10
125.6720590820675
 20
84.03183903576744
 30
0.0
 11
102.6720590820675
 21
84.03183903576744
 31
0.0
  0
LINE
  5
6DE
330
1F
100
AcDbEntity
  8
0
100
AcDbLine
 10
102.6720590820675
 20
84.03183903576744
 30
0.0
 11
102.6720590820675
 21
84.53183903576745
 31
0.0
  0
CIRCLE
  5
6DF
330
1F
100
AcDbEntity
  8
0
100
AcDbCircle
 10
122.6720590820675
 20
92.53183903576745
 30
0.0
 40
1.501124958991425
  0
LINE
  5
6E0
330
1F
100
AcDbEntity
  8
0
100
AcDbLine
 10
119.6720590820675
 20
95.03183903576745
 30
0.0
 11
119.6720590820675
 21
90.0318390357674
 31
0.0
  0
LINE
  5
6E1
330
1F
100
AcDbEntity
  8
0
100
AcDbLine
 10
119.6720590820675
 20
90.0318390357674
 30
0.0
 11
125.6720590820675
 21
90.0318390357674
 31
0.0
  0
LINE
  5
785
330
1F
100
AcDbEntity
  8
0
100
AcDbLine
 10
168.6719383807675
 20
166.4616437475674
 30
0.0
 11
185.6719383807675
 21
166.4616437475674
 31
0.0
  0
LINE
  5
787
330
1F
100
AcDbEntity
  8
0
100
AcDbLine
 10
59.67193838076752
 20
166.4616437475674
 30
0.0
 11
42.67193838076752
 21
166.4616437475674
 31
0.0
  0
LINE
  5
788
330
1F
100
AcDbEntity
  8
0
100
AcDbLine
 10
42.67193838076752
 20
166.4616437475674
 30
0.0
 11
42.67193838076752
 21
163.9616437475674
 31
0.0
  0
CIRCLE
  5
79B
330
1F
100
AcDbEntity
  8
0
100
AcDbCircle
 10
-12.3504447791
 20
64.9750262118
 30
0.0
 40
1.5
  0
CIRCLE
  5
79D
330
1F
100
AcDbEntity
  8
0
100
AcDbCircle
 10
21.6095552209
 20
64.9750262118
 30
0.0
 40
1.5
  0
CIRCLE
  5
7A0
330
1F
100
AcDbEntity
  8
0
100
AcDbCircle
 10
-12.3504447791
 20
54.9750262118
 30
0.0
 40
1.5
  0
CIRCLE
  5
7A1
330
1F
100
AcDbEntity
  8
0
100
AcDbCircle
 10
21.6095552209
 20
54.97502621180004
 30
0.0
 40
1.5
  0
LINE
  5
7A2
330
1F
100
AcDbEntity
  8
0
100
AcDbLine
 10
-11.8913702805
 20
48.9755517131
 30
0.0
 11
21.1304807223
 21
48.9755517131
 31
0.0
  0
LINE
  5
7A3
330
1F
100
AcDbEntity
  8
0
100
AcDbLine
 10
-7.130444779099997
 20
38.96462621179999
 30
0.0
 11
16.369555221
 21
38.96462621179999
 31
0.0
  0
LINE
  5
7A6
330
1F
100
AcDbEntity
  8
0
100
AcDbLine
 10
154.1338880399433
 20
21.87533750205437
 30
0.0
 11
169.4678005317274
 21
47.24546641342675
 31
0.0
  0
LINE
  5
7A8
330
1F
100
AcDbEntity
  8
0
100
AcDbLine
 10
213.3573289790996
 20
-9.65446608963483
 30
0.0
 11
202.0981811063497
 21
31.45226794076516
 31
0.0
  0
LINE
  5
7AB
330
1F
100
AcDbEntity
  8
0
100
AcDbLine
 10
245.0929888312497
 20
31.27908778916515
 30
0.0
 11
233.5002048388497
 21
-8.650934447534829
 31
0.0
  0
LINE
  5
7AC
330
1F
100
AcDbEntity
  8
0
100
AcDbLine
 10
278.1557571636496
 20
47.48113464006517
 30
0.0
 11
292.3339776635497
 21
21.98684294416516
 31
0.0
  0
LINE
  5
7B1
330
1F
100
AcDbEntity
  8
0
100
AcDbLine
 10
213.398839259063
 20
-65.05697030613484
 30
0.0
 11
213.398839259063
 21
-67.03329196713482
 31
0.0
  0
LINE
  5
8E3
330
1F
100
AcDbEntity
  8
0
  6
Continuous
 62
     7
370
    25
100
AcDbLine
 10
188.7518579228496
 20
72.58816446686518
 30
0.0
 11
188.7518579228496
 21
80.94190134396516
 31
0.0
  0
LINE
  5
90A
330
1F
100
AcDbEntity
  8
0
100
AcDbLine
 10
258.8104844464496
 20
81.33606637986515
 30
0.0
 11
258.8104844464496
 21
72.86524520966515
 31
0.0
  0
CIRCLE
  5
90D
330
1F
100
AcDbEntity
  8
0
100
AcDbCircle
 10
214.4273289791498
 20
55.32371234366517
 30
0.0
 40
1.5
  0
CIRCLE
  5
90E
330
1F
100
AcDbEntity
  8
0
100
AcDbCircle
 10
214.4273289791498
 20
20.32371234366517
 30
0.0
 40
1.5
  0
CIRCLE
  5
90F
330
1F
100
AcDbEntity
  8
0
100
AcDbCircle
 10
232.4273289791498
 20
20.32371234366517
 30
0.0
 40
1.5
  0
CIRCLE
  5
910
330
1F
100
AcDbEntity
  8
0
100
AcDbCircle
 10
232.4273289791498
 20
55.32371234366517
 30
0.0
 40
1.5
  0
LINE
  5
911
330
1F
100
AcDbEntity
  8
0
100
AcDbLine
 10
177.1547677550496
 20
55.55968420046519
 30
0.0
 11
202.0981811063497
 21
50.55968420046519
 31
0.0
  0
LINE
  5
913
330
1F
100
AcDbEntity
  8
0
100
AcDbLine
 10
245.0929888312497
 20
50.60841048336516
 30
0.0
 11
270.5767209218497
 21
55.60841048336516
 31
0.0
  0
LINE
  5
914
330
1F
100
AcDbEntity
  8
0
100
AcDbLine
 10
188.7518579228496
 20
72.58816446696531
 30
0.0
 11
188.7518579228496
 21
63.60860721066516
 31
0.0
  0
LINE
  5
91D
330
1F
100
AcDbEntity
  8
0
  6
Continuous
 62
     7
370
    25
100
AcDbLine
 10
188.7518579228496
 20
63.60860721066516
 30
0.0
 11
201.8721434989497
 21
63.60860721066516
 31
0.0
  0
LINE
  5
922
330
1F
100
AcDbEntity
  8
0
100
AcDbLine
 10
258.8104844464498
 20
72.86524520966512
 30
0.0
 11
258.8104844464498
 21
63.5564883344564
 31
0.0
  0
LINE
  5
925
330
1F
100
AcDbEntity
  8
0
  6
Continuous
 62
     7
370
    25
100
AcDbLine
 10
263.7602319147644
 20
63.57188732422693
 30
0.0
 11
269.9557523083498
 21
63.59116199546515
 31
0.0
  0
LINE
  5
926
330
1F
100
AcDbEntity
  8
0
100
AcDbLine
 10
263.7602319147644
 20
77.81499267796217
 30
0.0
 11
270.1886483858359
 21
84.2434091489531
 31
0.0
  0
LINE
  5
927
330
1F
100
AcDbEntity
  8
0
100
AcDbLine
 10
201.8721434989497
 20
63.60860721066516
 30
0.0
 11
245.3190264386498
 21
63.51451552166516
 31
0.0
  0
LINE
  5
929
330
1F
100
AcDbEntity
  8
0
100
AcDbLine
 10
183.8021104545437
 20
77.53791193527113
 30
0.0
 11
183.8021104545437
 21
63.60860721066515
 31
0.0
  0
LINE
  5
92C
330
1F
100
AcDbEntity
  8
0
100
AcDbLine
 10
263.7602319147644
 20
77.81499267796212
 30
0.0
 11
263.7602319147644
 21
63.57188732422692
 31
0.0
  0
ENDSEC
  0
SECTION
  2
OBJECTS
  0
DICTIONARY
  5
C
330
0
100
AcDbDictionary
281
     1
  3
ACAD_BACKGROUND
350
78F
  3
ACAD_CIP_PREVIOUS_PRODUCT_INFO
350
14F
  3
ACAD_COLOR
350
144
  3
ACAD_DETAILVIEWSTYLE
350
14B
  3
ACAD_GROUP
350
D
  3
ACAD_LAYOUT
350
1A
  3
ACAD_MATERIAL
350
112
  3
ACAD_MLEADERSTYLE
350
147
  3
ACAD_MLINESTYLE
350
17
  3
ACAD_PLOTSETTINGS
350
19
  3
ACAD_PLOTSTYLENAME
350
E
  3
ACAD_SCALELIST
350
47
  3
ACAD_SECTIONVIEWSTYLE
350
149
  3
ACAD_TABLESTYLE
350
145
  3
ACAD_VISUALSTYLE
350
12B
  3
ACDB_RECOMPOSE_DATA
350
92E
  3
AcDbVariableDictionary
350
76E
  0
DICTIONARY
  5
451
330
2
100
AcDbDictionary
280
     1
281
     1
  3
ACAD_LAYERSTATES
360
452
  0
DICTIONARY
  5
76C
330
10
100
AcDbDictionary
280
     1
281
     1
  3
ADSK_XREC_LAYER_RECONCILED
360
76D
  0
DICTIONARY
  5
91E
330
1F
100
AcDbDictionary
280
     1
281
     1
  3
ACAD_SORTENTS
360
91F
  0
DICTIONARY
  5
78F
102
{ACAD_REACTORS
330
C
102
}
330
C
100
AcDbDictionary
281
     1
  0
XRECORD
  5
14F
102
{ACAD_REACTORS
330
C
102
}
330
C
100
AcDbXrecord
280
     1
300
ACD
300
2019
300

  0
DICTIONARY
  5
144
102
{ACAD_REACTORS
330
C
102
}
330
C
100
AcDbDictionary
281
     1
  0
DICTIONARY
  5
14B
102
{ACAD_REACTORS
330
C
102
}
330
C
100
AcDbDictionary
281
     1
  3
Metric50
350
14C
  0
DICTIONARY
  5
D
102
{ACAD_REACTORS
330
C
102
}
330
C
100
AcDbDictionary
281
     1
  3
*A2
350
90C
  0
DICTIONARY
  5
1A
102
{ACAD_REACTORS
330
C
102
}
330
C
100
AcDbDictionary
281
     1
  3
Layout1
350
1E
  3
Layout2
350
26
  3
Model
350
22
  0
DICTIONARY
  5
112
102
{ACAD_REACTORS
330
C
102
}
330
C
100
AcDbDictionary
281
     1
  3
ByBlock
350
11B
  3
ByLayer
350
113
  3
Global
350
123
  0
DICTIONARY
  5
147
102
{ACAD_REACTORS
330
C
102
}
330
C
100
AcDbDictionary
281
     1
  3
Standard
350
148
  0
DICTIONARY
  5
17
102
{ACAD_REACTORS
330
C
102
}
330
C
100
AcDbDictionary
281
     1
  3
Standard
350
18
  0
DICTIONARY
  5
19
102
{ACAD_REACTORS
330
C
102
}
330
C
100
AcDbDictionary
281
     1
  0
ACDBDICTIONARYWDFLT
  5
E
102
{ACAD_REACTORS
330
C
102
}
330
C
100
AcDbDictionary
281
     1
  3
Normal
350
F
100
AcDbDictionaryWithDefault
340
F
  0
DICTIONARY
  5
47
102
{ACAD_REACTORS
330
C
102
}
330
C
100
AcDbDictionary
281
     1
  3
A0
350
48
  3
A1
350
49
  3
A2
350
4A
  3
A3
350
4B
  3
A4
350
4C
  3
A5
350
4D
  3
A6
350
4E
  3
A7
350
4F
  3
A8
350
50
  3
A9
350
51
  3
B0
350
52
  3
B1
350
53
  3
B2
350
54
  3
B3
350
55
  3
B4
350
56
  3
B5
350
57
  3
B6
350
58
  3
B7
350
59
  3
B8
350
5A
  3
B9
350
5B
  3
C0
350
5C
  3
C1
350
5D
  3
C2
350
5E
  3
C3
350
5F
  3
C4
350
60
  3
C5
350
61
  3
C6
350
62
  3
C7
350
63
  3
C8
350
64
  3
C9
350
65
  3
D0
350
66
  3
D1
350
67
  3
D2
350
68
  0
DICTIONARY
  5
149
102
{ACAD_REACTORS
330
C
102
}
330
C
100
AcDbDictionary
281
     1
  3
Metric50
350
14A
  0
DICTIONARY
  5
145
102
{ACAD_REACTORS
330
C
102
}
330
C
100
AcDbDictionary
281
     1
  3
Standard
350
146
  0
DICTIONARY
  5
12B
102
{ACAD_REACTORS
330
C
102
}
330
C
100
AcDbDictionary
281
     1
  3
2dWireframe
350
131
  3
Basic
350
130
  3
Brighten
350
137
  3
ColorChange
350
13B
  3
Conceptual
350
134
  3
Dim
350
136
  3
EdgeColorOff
350
143
  3
Facepattern
350
13A
  3
Flat
350
12C
  3
FlatWithEdges
350
12D
  3
Gouraud
350
12E
  3
GouraudWithEdges
350
12F
  3
Hidden
350
133
  3
JitterOff
350
141
  3
Linepattern
350
139
  3
OverhangOff
350
142
  3
Realistic
350
135
  3
Shaded
350
140
  3
Shaded with edges
350
13F
  3
Shades of Gray
350
13C
  3
Sketchy
350
13D
  3
Thicken
350
138
  3
Wireframe
350
132
  3
X-Ray
350
13E
  0
XRECORD
  5
92E
102
{ACAD_REACTORS
330
C
102
}
330
C
100
AcDbXrecord
280
     1
 90
        1
330
146
  0
DICTIONARY
  5
76E
102
{ACAD_REACTORS
330
C
102
}
330
C
100
AcDbDictionary
281
     1
  3
CANNOSCALE
350
774
  3
CMLEADERSTYLE
350
770
  3
CTABLESTYLE
350
76F
  3
CVIEWDETAILSTYLE
350
771
  3
CVIEWSECTIONSTYLE
350
772
  3
LAYEREVAL
350
776
  3
LAYERNOTIFY
350
777
  3
LIGHTINGUNITS
350
775
  3
MSLTSCALE
350
773
  0
DICTIONARY
  5
452
102
{ACAD_REACTORS
330
451
102
}
330
451
100
AcDbDictionary
281
     1
  0
XRECORD
  5
76D
102
{ACAD_REACTORS
330
76C
102
}
330
76C
100
AcDbXrecord
280
     1
290
     1
  0
SORTENTSTABLE
  5
91F
102
{ACAD_REACTORS
330
91E
102
}
330
91E
100
AcDbSortentsTable
330
1F
331
3EE
  5
3EF
331
3F0
  5
3F1
331
3F1
  5
3F2
331
3F2
  5
3F3
331
3F3
  5
3F4
331
3F6
  5
3F8
331
3F7
  5
3F9
331
3F8
  5
3FA
331
3F9
  5
3FB
331
3FA
  5
3FC
331
3FB
  5
3FD
331
3FC
  5
3FE
331
3FD
  5
3FF
331
3FE
  5
403
331
3FF
  5
404
331
403
  5
405
331
404
  5
406
331
405
  5
407
331
406
  5
408
331
407
  5
409
331
408
  5
40A
331
409
  5
40B
331
40A
  5
40C
331
40B
  5
40D
331
40C
  5
40E
331
40D
  5
40F
331
40E
  5
410
331
40F
  5
411
331
410
  5
412
331
411
  5
413
331
412
  5
414
331
413
  5
416
331
414
  5
417
331
416
  5
418
331
417
  5
419
331
418
  5
41A
331
419
  5
41B
331
41A
  5
41C
331
41B
  5
41D
331
41C
  5
41E
331
41D
  5
41F
331
41E
  5
420
331
41F
  5
421
331
420
  5
422
331
421
  5
423
331
422
  5
424
331
423
  5
425
331
424
  5
426
331
425
  5
427
331
426
  5
428
331
427
  5
42C
331
428
  5
42D
331
42C
  5
42E
331
42D
  5
42F
331
42E
  5
430
331
42F
  5
434
331
430
  5
435
331
434
  5
436
331
435
  5
437
331
436
  5
438
331
437
  5
439
331
438
  5
43A
331
439
  5
43B
331
43A
  5
43C
331
43B
  5
43D
331
43C
  5
440
331
43D
  5
441
331
440
  5
442
331
441
  5
443
331
442
  5
444
331
443
  5
445
331
444
  5
446
331
445
  5
447
331
446
  5
448
331
447
  5
449
331
448
  5
44A
331
449
  5
44B
331
44A
  5
44C
331
44B
  5
44D
331
44C
  5
44E
331
44D
  5
44F
331
44E
  5
450
331
44F
  5
5B4
331
450
  5
5B6
331
5B4
  5
5B7
331
5B6
  5
5B8
331
5B7
  5
5B9
331
5B8
  5
5BA
331
5B9
  5
5BB
331
5BA
  5
5BC
331
5BB
  5
5BD
331
5BC
  5
5BE
331
5BD
  5
5BF
331
5BE
  5
5C0
331
5BF
  5
5C1
331
5C0
  5
6A3
331
5C1
  5
6A4
331
6A3
  5
6A6
331
6A4
  5
6A7
331
6A6
  5
6A8
331
6A7
  5
6A9
331
6A8
  5
6AB
331
6A9
  5
6AC
331
6AB
  5
6B7
331
6AC
  5
6B8
331
6B7
  5
6B9
331
6B8
  5
6BA
331
6B9
  5
6BB
331
6BA
  5
6BC
331
6BB
  5
6D8
331
6BC
  5
6D9
331
6D8
  5
6DA
331
6D9
  5
6DB
331
6DA
  5
6DC
331
6DB
  5
6DD
331
6DC
  5
6DE
331
6DD
  5
6DF
331
6DE
  5
6E0
331
6DF
  5
6E1
331
6E0
  5
785
331
6E1
  5
787
331
785
  5
788
331
787
  5
79B
331
788
  5
79D
331
79B
  5
7A0
331
79D
  5
7A1
331
7A0
  5
7A2
331
7A1
  5
7A3
331
7A2
  5
7A6
331
7A3
  5
7A8
331
7A6
  5
7AB
331
7A8
  5
7AC
331
7AB
  5
7B1
331
7AC
  5
8E3
331
7B1
  5
909
331
8E3
  5
90A
331
90A
  5
90E
331
90D
  5
90F
331
90E
  5
910
331
90F
  5
911
331
910
  5
913
331
911
  5
914
331
913
  5
91C
331
914
  5
91D
331
91D
  5
3EE
331
922
  5
924
331
925
  5
3F6
  0
ACDBDETAILVIEWSTYLE
  5
14C
102
{ACAD_REACTORS
330
14B
102
}
330
14B
100
AcDbModelDocViewStyle
 70
     0
  3
Metric50
290
     0
300
Metric50
 90
        0
100
AcDbDetailViewStyle
 70
     0
 71
     0
 90
        3
 71
     1
340
11
 62
   256
 40
5.0
340
0
 62
   256
 40
5.0
300

 40
0.0
280
     1
 71
     2
340
16
 90
       25
 62
   256
 71
     3
340
11
 62
   256
 40
5.0
 90
        0
 40
15.0
 90
        1
300
%<\AcVar ViewDetailId>% (%<\AcVar ViewScale \f "%sn">%)
 71
     4
340
16
 90
       25
 62
   256
340
16
 90
       25
 62
   256
280
     0
  0
GROUP
  5
90C
102
{ACAD_REACTORS
330
D
102
}
330
D
100
AcDbGroup
300

 70
     1
 71
     1
  0
LAYOUT
  5
1E
102
{ACAD_REACTORS
330
1A
102
}
330
1A
100
AcDbPlotSettings
  1

  2
none_device
  4

  6

 40
0.0
 41
0.0
 42
0.0
 43
0.0
 44
0.0
 45
0.0
 46
0.0
 47
0.0
 48
0.0
 49
0.0
140
0.0
141
0.0
142
1.0
143
1.0
 70
   688
 72
     1
 73
     0
 74
     5
  7

 75
    16
147
1.0
 76
     0
 77
     2
 78
   300
148
0.0
149
0.0
100
AcDbLayout
  1
Layout1
 70
     1
 71
     1
 10
0.0
 20
0.0
 11
420.0
 21
297.0
 12
0.0
 22
0.0
 32
0.0
 14
1.000000000000000E+20
 24
1.000000000000000E+20
 34
1.000000000000000E+20
 15
-1.000000000000000E+20
 25
-1.000000000000000E+20
 35
-1.000000000000000E+20
146
0.0
 13
0.0
 23
0.0
 33
0.0
 16
1.0
 26
0.0
 36
0.0
 17
0.0
 27
1.0
 37
0.0
 76
     0
330
1B
  0
LAYOUT
  5
26
102
{ACAD_REACTORS
330
1A
102
}
330
1A
100
AcDbPlotSettings
  1

  2
none_device
  4

  6

 40
0.0
 41
0.0
 42
0.0
 43
0.0
 44
0.0
 45
0.0
 46
0.0
 47
0.0
 48
0.0
 49
0.0
140
0.0
141
0.0
142
1.0
143
1.0
 70
   688
 72
     1
 73
     0
 74
     5
  7

 75
    16
147
1.0
 76
     0
 77
     2
 78
   300
148
0.0
149
0.0
100
AcDbLayout
  1
Layout2
 70
     1
 71
     2
 10
0.0
 20
0.0
 11
0.0
 21
0.0
 12
0.0
 22
0.0
 32
0.0
 14
0.0
 24
0.0
 34
0.0
 15
0.0
 25
0.0
 35
0.0
146
0.0
 13
0.0
 23
0.0
 33
0.0
 16
1.0
 26
0.0
 36
0.0
 17
0.0
 27
1.0
 37
0.0
 76
     0
330
23
  0
LAYOUT
  5
22
102
{ACAD_REACTORS
330
1A
102
}
330
1A
100
AcDbPlotSettings
  1

  2
none_device
  4
ANSI_A_(11.00_x_8.50_Inches)
  6

 40
6.349999999999997
 41
19.05
 42
6.350005079999997
 43
19.05000254
 44
279.4
 45
215.9
 46
128.5053180844
 47
93.89607433610001
 48
0.0
 49
0.0
140
0.0
141
0.0
142
0.0411995104
143
1.0
 70
  1696
 72
     0
 73
     0
 74
     0
  7

 75
     0
147
0.0179189148
 76
     0
 77
     2
 78
   300
148
-1300.4909072572
149
0.0
100
AcDbLayout
  1
Model
 70
     1
 71
     0
 10
0.0
 20
0.0
 11
420.0
 21
297.0
 12
0.0
 22
0.0
 32
0.0
 14
-102.8704447791
 24
-106.8992288215
 34
0.0
 15
112.1295552209
 25
97.3507711785
 35
0.0
146
0.0
 13
0.0
 23
0.0
 33
0.0
 16
1.0
 26
0.0
 36
0.0
 17
0.0
 27
1.0
 37
0.0
 76
     0
330
1F
331
29
  0
MATERIAL
  5
11B
102
{ACAD_XDICTIONARY
360
11C
102
}
102
{ACAD_REACTORS
330
112
102
}
330
112
100
AcDbMaterial
  1
ByBlock
 72
     0
 43
0.0008202099737533
 43
0.0
 43
0.0
 43
0.0
 43
0.0
 43
0.0008202099737533
 43
0.0
 43
0.0
 43
0.0
 43
0.0
 43
1.0
 43
0.0
 43
0.0
 43
0.0
 43
0.0
 43
1.0
 77
     0
 47
0.0008202099737533
 47
0.0
 47
0.0
 47
0.0
 47
0.0
 47
0.0008202099737533
 47
0.0
 47
0.0
 47
0.0
 47
0.0
 47
1.0
 47
0.0
 47
0.0
 47
0.0
 47
0.0
 47
1.0
171
     0
 49
0.0008202099737533
 49
0.0
 49
0.0
 49
0.0
 49
0.0
 49
0.0008202099737533
 49
0.0
 49
0.0
 49
0.0
 49
0.0
 49
1.0
 49
0.0
 49
0.0
 49
0.0
 49
0.0
 49
1.0
175
     0
142
0.0008202099737533
142
0.0
142
0.0
142
0.0
142
0.0
142
0.0008202099737533
142
0.0
142
0.0
142
0.0
142
0.0
142
1.0
142
0.0
142
0.0
142
0.0
142
0.0
142
1.0
179
     0
144
0.0008202099737533
144
0.0
144
0.0
144
0.0
144
0.0
144
0.0008202099737533
144
0.0
144
0.0
144
0.0
144
0.0
144
1.0
144
0.0
144
0.0
144
0.0
144
0.0
144
1.0
147
0.0008202099737533
147
0.0
147
0.0
147
0.0
147
0.0
147
0.0008202099737533
147
0.0
147
0.0
147
0.0
147
0.0
147
1.0
147
0.0
147
0.0
147
0.0
147
0.0
147
1.0
  0
MATERIAL
  5
113
102
{ACAD_XDICTIONARY
360
114
102
}
102
{ACAD_REACTORS
330
112
102
}
330
112
100
AcDbMaterial
  1
ByLayer
 72
     0
 43
0.0008202099737533
 43
0.0
 43
0.0
 43
0.0
 43
0.0
 43
0.0008202099737533
 43
0.0
 43
0.0
 43
0.0
 43
0.0
 43
1.0
 43
0.0
 43
0.0
 43
0.0
 43
0.0
 43
1.0
 77
     0
 47
0.0008202099737533
 47
0.0
 47
0.0
 47
0.0
 47
0.0
 47
0.0008202099737533
 47
0.0
 47
0.0
 47
0.0
 47
0.0
 47
1.0
 47
0.0
 47
0.0
 47
0.0
 47
0.0
 47
1.0
171
     0
 49
0.0008202099737533
 49
0.0
 49
0.0
 49
0.0
 49
0.0
 49
0.0008202099737533
 49
0.0
 49
0.0
 49
0.0
 49
0.0
 49
1.0
 49
0.0
 49
0.0
 49
0.0
 49
0.0
 49
1.0
175
     0
142
0.0008202099737533
142
0.0
142
0.0
142
0.0
142
0.0
142
0.0008202099737533
142
0.0
142
0.0
142
0.0
142
0.0
142
1.0
142
0.0
142
0.0
142
0.0
142
0.0
142
1.0
179
     0
144
0.0008202099737533
144
0.0
144
0.0
144
0.0
144
0.0
144
0.0008202099737533
144
0.0
144
0.0
144
0.0
144
0.0
144
1.0
144
0.0
144
0.0
144
0.0
144
0.0
144
1.0
147
0.0008202099737533
147
0.0
147
0.0
147
0.0
147
0.0
147
0.0008202099737533
147
0.0
147
0.0
147
0.0
147
0.0
147
1.0
147
0.0
147
0.0
147
0.0
147
0.0
147
1.0
  0
MATERIAL
  5
123
102
{ACAD_XDICTIONARY
360
124
102
}
102
{ACAD_REACTORS
330
112
102
}
330
112
100
AcDbMaterial
  1
Global
 72
     0
 43
0.0008202099737533
 43
0.0
 43
0.0
 43
0.0
 43
0.0
 43
0.0008202099737533
 43
0.0
 43
0.0
 43
0.0
 43
0.0
 43
1.0
 43
0.0
 43
0.0
 43
0.0
 43
0.0
 43
1.0
 77
     0
 47
0.0008202099737533
 47
0.0
 47
0.0
 47
0.0
 47
0.0
 47
0.0008202099737533
 47
0.0
 47
0.0
 47
0.0
 47
0.0
 47
1.0
 47
0.0
 47
0.0
 47
0.0
 47
0.0
 47
1.0
171
     0
 49
0.0008202099737533
 49
0.0
 49
0.0
 49
0.0
 49
0.0
 49
0.0008202099737533
 49
0.0
 49
0.0
 49
0.0
 49
0.0
 49
1.0
 49
0.0
 49
0.0
 49
0.0
 49
0.0
 49
1.0
175
     0
142
0.0008202099737533
142
0.0
142
0.0
142
0.0
142
0.0
142
0.0008202099737533
142
0.0
142
0.0
142
0.0
142
0.0
142
1.0
142
0.0
142
0.0
142
0.0
142
0.0
142
1.0
179
     0
144
0.0008202099737533
144
0.0
144
0.0
144
0.0
144
0.0
144
0.0008202099737533
144
0.0
144
0.0
144
0.0
144
0.0
144
1.0
144
0.0
144
0.0
144
0.0
144
0.0
144
1.0
147
0.0008202099737533
147
0.0
147
0.0
147
0.0
147
0.0
147
0.0008202099737533
147
0.0
147
0.0
147
0.0
147
0.0
147
1.0
147
0.0
147
0.0
147
0.0
147
0.0
147
1.0
  0
MLEADERSTYLE
  5
148
102
{ACAD_REACTORS
330
147
102
}
330
147
100
AcDbMLeaderStyle
179
     2
170
     2
171
     1
172
     0
 90
        2
 40
0.0
 41
0.0
173
     1
 91
-1056964608
340
14
 92
       -2
290
     1
 42
2.0
291
     1
 43
0.36
  3
Standard
 44
4.0
300

342
11
174
     1
178
     6
175
     1
176
     0
 93
-1056964608
 45
4.0
292
     0
297
     0
 46
4.0
 94
-1056964608
 47
1.0
 49
1.0
140
1.0
293
     1
141
0.0
294
     1
177
     0
142
1.0
295
     0
296
     0
143
0.125
271
     0
272
     9
273
     9
298
     0
  0
MLINESTYLE
  5
18
102
{ACAD_REACTORS
330
17
102
}
330
17
100
AcDbMlineStyle
  2
STANDARD
 70
     0
  3

 62
   256
 51
90.0
 52
90.0
 71
     2
 49
0.5
 62
   256
  6
BYLAYER
 49
-0.5
 62
   256
  6
BYLAYER
  0
ACDBPLACEHOLDER
  5
F
102
{ACAD_REACTORS
330
E
102
}
330
E
  0
SCALE
  5
48
102
{ACAD_REACTORS
330
47
102
}
330
47
100
AcDbScale
 70
     0
300
1:1
140
1.0
141
1.0
290
     1
  0
SCALE
  5
49
102
{ACAD_REACTORS
330
47
102
}
330
47
100
AcDbScale
 70
     0
300
1:2
140
1.0
141
2.0
290
     0
  0
SCALE
  5
4A
102
{ACAD_REACTORS
330
47
102
}
330
47
100
AcDbScale
 70
     0
300
1:4
140
1.0
141
4.0
290
     0
  0
SCALE
  5
4B
102
{ACAD_REACTORS
330
47
102
}
330
47
100
AcDbScale
 70
     0
300
1:5
140
1.0
141
5.0
290
     0
  0
SCALE
  5
4C
102
{ACAD_REACTORS
330
47
102
}
330
47
100
AcDbScale
 70
     0
300
1:8
140
1.0
141
8.0
290
     0
  0
SCALE
  5
4D
102
{ACAD_REACTORS
330
47
102
}
330
47
100
AcDbScale
 70
     0
300
1:10
140
1.0
141
10.0
290
     0
  0
SCALE
  5
4E
102
{ACAD_REACTORS
330
47
102
}
330
47
100
AcDbScale
 70
     0
300
1:16
140
1.0
141
16.0
290
     0
  0
SCALE
  5
4F
102
{ACAD_REACTORS
330
47
102
}
330
47
100
AcDbScale
 70
     0
300
1:20
140
1.0
141
20.0
290
     0
  0
SCALE
  5
50
102
{ACAD_REACTORS
330
47
102
}
330
47
100
AcDbScale
 70
     0
300
1:30
140
1.0
141
30.0
290
     0
  0
SCALE
  5
51
102
{ACAD_REACTORS
330
47
102
}
330
47
100
AcDbScale
 70
     0
300
1:40
140
1.0
141
40.0
290
     0
  0
SCALE
  5
52
102
{ACAD_REACTORS
330
47
102
}
330
47
100
AcDbScale
 70
     0
300
1:50
140
1.0
141
50.0
290
     0
  0
SCALE
  5
53
102
{ACAD_REACTORS
330
47
102
}
330
47
100
AcDbScale
 70
     0
300
1:100
140
1.0
141
100.0
290
     0
  0
SCALE
  5
54
102
{ACAD_REACTORS
330
47
102
}
330
47
100
AcDbScale
 70
     0
300
2:1
140
2.0
141
1.0
290
     0
  0
SCALE
  5
55
102
{ACAD_REACTORS
330
47
102
}
330
47
100
AcDbScale
 70
     0
300
4:1
140
4.0
141
1.0
290
     0
  0
SCALE
  5
56
102
{ACAD_REACTORS
330
47
102
}
330
47
100
AcDbScale
 70
     0
300
8:1
140
8.0
141
1.0
290
     0
  0
SCALE
  5
57
102
{ACAD_REACTORS
330
47
102
}
330
47
100
AcDbScale
 70
     0
300
10:1
140
10.0
141
1.0
290
     0
  0
SCALE
  5
58
102
{ACAD_REACTORS
330
47
102
}
330
47
100
AcDbScale
 70
     0
300
100:1
140
100.0
141
1.0
290
     0
  0
SCALE
  5
59
102
{ACAD_REACTORS
330
47
102
}
330
47
100
AcDbScale
 70
     0
300
1/128" = 1'-0"
140
0.0078125
141
12.0
290
     0
  0
SCALE
  5
5A
102
{ACAD_REACTORS
330
47
102
}
330
47
100
AcDbScale
 70
     0
300
1/64" = 1'-0"
140
0.015625
141
12.0
290
     0
  0
SCALE
  5
5B
102
{ACAD_REACTORS
330
47
102
}
330
47
100
AcDbScale
 70
     0
300
1/32" = 1'-0"
140
0.03125
141
12.0
290
     0
  0
SCALE
  5
5C
102
{ACAD_REACTORS
330
47
102
}
330
47
100
AcDbScale
 70
     0
300
1/16" = 1'-0"
140
0.0625
141
12.0
290
     0
  0
SCALE
  5
5D
102
{ACAD_REACTORS
330
47
102
}
330
47
100
AcDbScale
 70
     0
300
3/32" = 1'-0"
140
0.09375
141
12.0
290
     0
  0
SCALE
  5
5E
102
{ACAD_REACTORS
330
47
102
}
330
47
100
AcDbScale
 70
     0
300
1/8" = 1'-0"
140
0.125
141
12.0
290
     0
  0
SCALE
  5
5F
102
{ACAD_REACTORS
330
47
102
}
330
47
100
AcDbScale
 70
     0
300
3/16" = 1'-0"
140
0.1875
141
12.0
290
     0
  0
SCALE
  5
60
102
{ACAD_REACTORS
330
47
102
}
330
47
100
AcDbScale
 70
     0
300
1/4" = 1'-0"
140
0.25
141
12.0
290
     0
  0
SCALE
  5
61
102
{ACAD_REACTORS
330
47
102
}
330
47
100
AcDbScale
 70
     0
300
3/8" = 1'-0"
140
0.375
141
12.0
290
     0
  0
SCALE
  5
62
102
{ACAD_REACTORS
330
47
102
}
330
47
100
AcDbScale
 70
     0
300
1/2" = 1'-0"
140
0.5
141
12.0
290
     0
  0
SCALE
  5
63
102
{ACAD_REACTORS
330
47
102
}
330
47
100
AcDbScale
 70
     0
300
3/4" = 1'-0"
140
0.75
141
12.0
290
     0
  0
SCALE
  5
64
102
{ACAD_REACTORS
330
47
102
}
330
47
100
AcDbScale
 70
     0
300
1" = 1'-0"
140
1.0
141
12.0
290
     0
  0
SCALE
  5
65
102
{ACAD_REACTORS
330
47
102
}
330
47
100
AcDbScale
 70
     0
300
1-1/2" = 1'-0"
140
1.5
141
12.0
290
     0
  0
SCALE
  5
66
102
{ACAD_REACTORS
330
47
102
}
330
47
100
AcDbScale
 70
     0
300
3" = 1'-0"
140
3.0
141
12.0
290
     0
  0
SCALE
  5
67
102
{ACAD_REACTORS
330
47
102
}
330
47
100
AcDbScale
 70
     0
300
6" = 1'-0"
140
6.0
141
12.0
290
     0
  0
SCALE
  5
68
102
{ACAD_REACTORS
330
47
102
}
330
47
100
AcDbScale
 70
     0
300
1'-0" = 1'-0"
140
12.0
141
12.0
290
     0
  0
ACDBSECTIONVIEWSTYLE
  5
14A
102
{ACAD_REACTORS
330
149
102
}
330
149
100
AcDbModelDocViewStyle
 70
     0
  3
Metric50
290
     0
300
Metric50
 90
        0
100
AcDbSectionViewStyle
 70
     0
 71
     0
 90
      102
 71
     1
340
11
 62
   256
 40
5.0
340
0
340
0
 62
   256
 40
5.0
300
I, O, Q, S, X, Z
 40
10.0
 90
        0
 40
2.5
 90
        0
 71
     2
340
16
 90
       25
 62
   256
340
16
 90
       50
 62
   256
 40
5.0
 40
2.5
 40
5.0
 71
     3
340
11
 62
   256
 40
5.0
 90
        0
 40
15.0
 90
        1
300
%<\AcVar ViewSectionStartId>%-%<\AcVar ViewSectionEndId>% (%<\AcVar ViewScale \f "%sn">%)
 71
     4
 62
   256
 62
   257
300
ANSI31
 40
1.0
 90
        0
290
     0
290
     0
 90
        6
 40
0.0
 40
1.570796326794896
 40
0.2617993877991494
 40
1.308996938995747
 40
-0.2617993877991494
 40
1.832595714594044
  0
TABLESTYLE
  5
146
102
{ACAD_XDICTIONARY
360
778
102
}
102
{ACAD_REACTORS
330
145
102
}
330
145
100
AcDbTableStyle
280
     0
  3
Standard
 70
     0
 71
     0
 40
1.5
 41
1.5
280
     0
281
     0
  7
Standard
140
4.5
170
     2
 62
     0
 63
     7
283
     0
 90
      512
 91
        0
  1

274
    -2
284
     1
 64
     0
275
    -2
285
     1
 65
     0
276
    -2
286
     1
 66
     0
277
    -2
287
     1
 67
     0
278
    -2
288
     1
 68
     0
279
    -2
289
     1
 69
     0
  7
Standard
140
6.0
170
     5
 62
     0
 63
     7
283
     0
 90
      512
 91
        0
  1

274
    -2
284
     1
 64
     0
275
    -2
285
     1
 65
     0
276
    -2
286
     1
 66
     0
277
    -2
287
     1
 67
     0
278
    -2
288
     1
 68
     0
279
    -2
289
     1
 69
     0
  7
Standard
140
4.5
170
     5
 62
     0
 63
     7
283
     0
 90
      512
 91
        0
  1

274
    -2
284
     1
 64
     0
275
    -2
285
     1
 65
     0
276
    -2
286
     1
 66
     0
277
    -2
287
     1
 67
     0
278
    -2
288
     1
 68
     0
279
    -2
289
     1
 69
     0
  0
VISUALSTYLE
  5
131
102
{ACAD_REACTORS
330
12B
102
}
330
12B
100
AcDbVisualStyle
  2
2dWireframe
 70
     4
177
     3
291
     0
 70
    58
 90
        0
176
     1
 90
        2
176
     1
 90
        0
176
     1
 90
        0
176
     1
 40
0.6
176
     1
 40
30.0
176
     1
 62
     7
420
 16777215
176
     1
 90
        1
176
     1
 90
        4
176
     1
 62
     7
176
     1
 62
   257
176
     1
 90
        1
176
     1
 90
        1
176
     1
 40
1.0
176
     1
 90
        0
176
     1
 62
   257
176
     1
 40
1.0
176
     1
 90
        1
176
     1
 90
        6
176
     1
 90
        2
176
     1
 62
     7
176
     1
 90
        5
176
     1
 90
        0
176
     1
 90
        0
176
     1
290
     0
176
     1
 90
        1
176
     1
 40
0.0
176
     1
 90
        0
176
     1
290
     1
176
     1
290
     1
176
     1
290
     0
176
     1
290
     0
176
     1
290
     0
176
     1
290
     0
176
     1
290
     0
176
     1
290
     0
176
     1
290
     0
176
     1
 90
       50
176
     1
 40
0.0
176
     1
 40
1.0
176
     1
 90
        0
176
     1
 62
    18
176
     1
 90
       50
176
     1
 90
        3
176
     1
 62
     5
420
      255
176
     1
290
     0
176
     1
 90
       50
176
     1
 90
       50
176
     1
 90
       50
176
     1
290
     0
176
     1
 90
       50
176
     1
 62
   256
176
     0
 40
1.0
176
     0
 90
        2
176
     1
  1
strokes_ogs.tif
176
     1
290
     0
176
     1
 40
1.0
176
     1
 40
1.0
176
     1
  0
VISUALSTYLE
  5
130
102
{ACAD_REACTORS
330
12B
102
}
330
12B
100
AcDbVisualStyle
  2
Basic
 70
     7
177
     3
291
     1
 70
    58
 90
        1
176
     1
 90
        0
176
     1
 90
        1
176
     1
 90
        0
176
     1
 40
0.6
176
     1
 40
30.0
176
     1
 62
     7
420
 16777215
176
     1
 90
        0
176
     1
 90
        4
176
     1
 62
     7
176
     1
 62
   257
176
     1
 90
        1
176
     1
 90
        1
176
     1
 40
1.0
176
     1
 90
        8
176
     1
 62
     7
176
     1
 40
1.0
176
     1
 90
        1
176
     1
 90
        6
176
     1
 90
        2
176
     1
 62
     7
176
     1
 90
        5
176
     1
 90
        0
176
     1
 90
        0
176
     1
290
     0
176
     1
 90
        1
176
     1
 40
0.0
176
     1
 90
        0
176
     1
290
     0
176
     1
290
     1
176
     1
290
     1
176
     1
290
     0
176
     1
290
     0
176
     1
290
     0
176
     1
290
     0
176
     1
290
     0
176
     1
290
     0
176
     1
 90
       50
176
     1
 40
0.0
176
     1
 40
1.0
176
     1
 90
        0
176
     1
 62
    18
176
     1
 90
       50
176
     1
 90
        3
176
     1
 62
     5
420
      255
176
     1
290
     0
176
     1
 90
       50
176
     1
 90
       50
176
     1
 90
       50
176
     1
290
     0
176
     1
 90
       50
176
     1
 62
   256
176
     0
 40
1.0
176
     0
 90
        2
176
     1
  1
strokes_ogs.tif
176
     1
290
     0
176
     1
 40
1.0
176
     1
 40
1.0
176
     1
  0
VISUALSTYLE
  5
137
102
{ACAD_REACTORS
330
12B
102
}
330
12B
100
AcDbVisualStyle
  2
Brighten
 70
    12
177
     3
291
     1
 70
    58
 90
        2
176
     1
 90
        2
176
     1
 90
        0
176
     1
 90
        0
176
     1
 40
0.6
176
     1
 40
30.0
176
     1
 62
     7
420
 16777215
176
     1
 90
        1
176
     1
 90
        4
176
     1
 62
     7
176
     1
 62
   257
176
     1
 90
        1
176
     1
 90
        1
176
     1
 40
1.0
176
     1
 90
        8
176
     1
 62
     7
176
     1
 40
1.0
176
     1
 90
        1
176
     1
 90
        6
176
     1
 90
        2
176
     1
 62
     7
176
     1
 90
        5
176
     1
 90
        0
176
     1
 90
        0
176
     1
290
     0
176
     1
 90
        1
176
     1
 40
50.0
176
     1
 90
        0
176
     1
290
     0
176
     1
290
     1
176
     1
290
     1
176
     1
290
     0
176
     1
290
     0
176
     1
290
     0
176
     1
290
     0
176
     1
290
     0
176
     1
290
     0
176
     1
 90
       50
176
     1
 40
0.0
176
     1
 40
1.0
176
     1
 90
        0
176
     1
 62
    18
176
     1
 90
       50
176
     1
 90
        3
176
     1
 62
     5
420
      255
176
     1
290
     0
176
     1
 90
       50
176
     1
 90
       50
176
     1
 90
       50
176
     1
290
     0
176
     1
 90
       50
176
     1
 62
   256
176
     0
 40
1.0
176
     0
 90
        2
176
     1
  1
strokes_ogs.tif
176
     1
290
     0
176
     1
 40
1.0
176
     1
 40
1.0
176
     1
  0
VISUALSTYLE
  5
13B
102
{ACAD_REACTORS
330
12B
102
}
330
12B
100
AcDbVisualStyle
  2
ColorChange
 70
    16
177
     3
291
     1
 70
    58
 90
        2
176
     1
 90
        2
176
     1
 90
        3
176
     1
 90
        0
176
     1
 40
0.6
176
     1
 40
30.0
176
     1
 62
     8
420
  8421504
176
     1
 90
        1
176
     1
 90
        4
176
     1
 62
     7
176
     1
 62
   257
176
     1
 90
        1
176
     1
 90
        1
176
     1
 40
1.0
176
     1
 90
        8
176
     1
 62
     8
420
  8421504
176
     1
 40
1.0
176
     1
 90
        1
176
     1
 90
        6
176
     1
 90
        2
176
     1
 62
     7
176
     1
 90
        5
176
     1
 90
        0
176
     1
 90
        0
176
     1
290
     0
176
     1
 90
        1
176
     1
 40
0.0
176
     1
 90
        0
176
     1
290
     0
176
     1
290
     1
176
     1
290
     1
176
     1
290
     0
176
     1
290
     0
176
     1
290
     0
176
     1
290
     0
176
     1
290
     0
176
     1
290
     0
176
     1
 90
       50
176
     1
 40
0.0
176
     1
 40
1.0
176
     1
 90
        0
176
     1
 62
    18
176
     1
 90
       50
176
     1
 90
        3
176
     1
 62
     5
420
      255
176
     1
290
     0
176
     1
 90
       50
176
     1
 90
       50
176
     1
 90
       50
176
     1
290
     0
176
     1
 90
       50
176
     1
 62
   256
176
     0
 40
1.0
176
     0
 90
        2
176
     1
  1
strokes_ogs.tif
176
     1
290
     0
176
     1
 40
1.0
176
     1
 40
1.0
176
     1
  0
VISUALSTYLE
  5
134
102
{ACAD_REACTORS
330
12B
102
}
330
12B
100
AcDbVisualStyle
  2
Conceptual
 70
     9
177
     3
291
     0
 70
    58
 90
        3
176
     1
 90
        2
176
     1
 90
        0
176
     1
 90
        0
176
     1
 40
0.6
176
     1
 40
30.0
176
     1
 62
     7
420
 16777215
176
     1
 90
        2
176
     1
 90
        2
176
     1
 62
     7
176
     1
 62
   257
176
     1
 90
        1
176
     1
 90
        1
176
     1
 40
179.0
176
     1
 90
        8
176
     1
 62
     7
176
     1
 40
1.0
176
     1
 90
        1
176
     1
 90
        6
176
     1
 90
        2
176
     1
 62
     7
176
     1
 90
        3
176
     1
 90
        0
176
     1
 90
        0
176
     1
290
     0
176
     1
 90
        1
176
     1
 40
0.0
176
     1
 90
        0
176
     1
290
     0
176
     1
290
     1
176
     1
290
     1
176
     1
290
     0
176
     1
290
     0
176
     1
290
     0
176
     1
290
     0
176
     1
290
     0
176
     1
290
     0
176
     1
 90
       50
176
     1
 40
0.0
176
     1
 40
1.0
176
     1
 90
        0
176
     1
 62
    18
176
     1
 90
       50
176
     1
 90
        3
176
     1
 62
     5
420
      255
176
     1
290
     0
176
     1
 90
       50
176
     1
 90
       50
176
     1
 90
       50
176
     1
290
     0
176
     1
 90
       50
176
     1
 62
   256
176
     0
 40
1.0
176
     0
 90
        2
176
     1
  1
strokes_ogs.tif
176
     1
290
     0
176
     1
 40
1.0
176
     1
 40
1.0
176
     1
  0
VISUALSTYLE
  5
136
102
{ACAD_REACTORS
330
12B
102
}
330
12B
100
AcDbVisualStyle
  2
Dim
 70
    11
177
     3
291
     1
 70
    58
 90
        2
176
     1
 90
        2
176
     1
 90
        0
176
     1
 90
        0
176
     1
 40
0.6
176
     1
 40
30.0
176
     1
 62
     7
420
 16777215
176
     1
 90
        1
176
     1
 90
        4
176
     1
 62
     7
176
     1
 62
   257
176
     1
 90
        1
176
     1
 90
        1
176
     1
 40
1.0
176
     1
 90
        8
176
     1
 62
     7
176
     1
 40
1.0
176
     1
 90
        1
176
     1
 90
        6
176
     1
 90
        2
176
     1
 62
     7
176
     1
 90
        5
176
     1
 90
        0
176
     1
 90
        0
176
     1
290
     0
176
     1
 90
        1
176
     1
 40
-50.0
176
     1
 90
        0
176
     1
290
     0
176
     1
290
     1
176
     1
290
     1
176
     1
290
     0
176
     1
290
     0
176
     1
290
     0
176
     1
290
     0
176
     1
290
     0
176
     1
290
     0
176
     1
 90
       50
176
     1
 40
0.0
176
     1
 40
1.0
176
     1
 90
        0
176
     1
 62
    18
176
     1
 90
       50
176
     1
 90
        3
176
     1
 62
     5
420
      255
176
     1
290
     0
176
     1
 90
       50
176
     1
 90
       50
176
     1
 90
       50
176
     1
290
     0
176
     1
 90
       50
176
     1
 62
   256
176
     0
 40
1.0
176
     0
 90
        2
176
     1
  1
strokes_ogs.tif
176
     1
290
     0
176
     1
 40
1.0
176
     1
 40
1.0
176
     1
  0
VISUALSTYLE
  5
143
102
{ACAD_REACTORS
330
12B
102
}
330
12B
100
AcDbVisualStyle
  2
EdgeColorOff
 70
    22
177
     3
291
     1
 70
    58
 90
        2
176
     0
 90
        2
176
     0
 90
        0
176
     0
 90
        0
176
     0
 40
0.6
176
     0
 40
30.0
176
     0
 62
     7
420
 16777215
176
     0
 90
        1
176
     0
 90
        4
176
     0
 62
     7
176
     0
 62
   257
176
     0
 90
        1
176
     0
 90
        1
176
     0
 40
1.0
176
     0
 90
        8
176
     2
 62
     7
176
     0
 40
1.0
176
     0
 90
        1
176
     0
 90
        6
176
     0
 90
        2
176
     0
 62
     7
176
     0
 90
        5
176
     0
 90
        0
176
     0
 90
        0
176
     0
290
     0
176
     0
 90
        1
176
     0
 40
0.0
176
     0
 90
        0
176
     0
290
     0
176
     1
290
     1
176
     1
290
     1
176
     1
290
     0
176
     1
290
     0
176
     1
290
     0
176
     1
290
     0
176
     1
290
     0
176
     1
290
     0
176
     1
 90
       50
176
     0
 40
0.0
176
     0
 40
1.0
176
     0
 90
        0
176
     0
 62
    18
176
     0
 90
       50
176
     0
 90
        3
176
     0
 62
     5
420
      255
176
     0
290
     0
176
     1
 90
       50
176
     0
 90
       50
176
     0
 90
       50
176
     0
290
     0
176
     1
 90
       50
176
     0
 62
   256
176
     0
 40
1.0
176
     0
 90
        2
176
     0
  1
strokes_ogs.tif
176
     0
290
     0
176
     1
 40
1.0
176
     0
 40
1.0
176
     0
  0
VISUALSTYLE
  5
13A
102
{ACAD_REACTORS
330
12B
102
}
330
12B
100
AcDbVisualStyle
  2
Facepattern
 70
    15
177
     3
291
     1
 70
    58
 90
        2
176
     1
 90
        2
176
     1
 90
        0
176
     1
 90
        0
176
     1
 40
0.6
176
     1
 40
30.0
176
     1
 62
     7
420
 16777215
176
     1
 90
        1
176
     1
 90
        4
176
     1
 62
     7
176
     1
 62
   257
176
     1
 90
        1
176
     1
 90
        1
176
     1
 40
1.0
176
     1
 90
        8
176
     1
 62
     7
176
     1
 40
1.0
176
     1
 90
        1
176
     1
 90
        6
176
     1
 90
        2
176
     1
 62
     7
176
     1
 90
        5
176
     1
 90
        0
176
     1
 90
        0
176
     1
290
     0
176
     1
 90
        1
176
     1
 40
0.0
176
     1
 90
        0
176
     1
290
     0
176
     1
290
     1
176
     1
290
     1
176
     1
290
     0
176
     1
290
     0
176
     1
290
     0
176
     1
290
     0
176
     1
290
     0
176
     1
290
     0
176
     1
 90
       50
176
     1
 40
0.0
176
     1
 40
1.0
176
     1
 90
        0
176
     1
 62
    18
176
     1
 90
       50
176
     1
 90
        3
176
     1
 62
     5
420
      255
176
     1
290
     0
176
     1
 90
       50
176
     1
 90
       50
176
     1
 90
       50
176
     1
290
     0
176
     1
 90
       50
176
     1
 62
   256
176
     0
 40
1.0
176
     0
 90
        2
176
     1
  1
strokes_ogs.tif
176
     1
290
     0
176
     1
 40
1.0
176
     1
 40
1.0
176
     1
  0
VISUALSTYLE
  5
12C
102
{ACAD_REACTORS
330
12B
102
}
330
12B
100
AcDbVisualStyle
  2
Flat
 70
     0
177
     3
291
     1
 70
    58
 90
        2
176
     1
 90
        1
176
     1
 90
        1
176
     1
 90
        2
176
     1
 40
0.6
176
     1
 40
30.0
176
     1
 62
     7
420
 16777215
176
     1
 90
        0
176
     1
 90
        0
176
     1
 62
     7
176
     1
 62
   257
176
     1
 90
        1
176
     1
 90
        1
176
     1
 40
1.0
176
     1
 90
        8
176
     1
 62
     7
176
     1
 40
1.0
176
     1
 90
        1
176
     1
 90
        6
176
     1
 90
        2
176
     1
 62
     7
176
     1
 90
        5
176
     1
 90
        0
176
     1
 90
        0
176
     1
290
     0
176
     1
 90
       13
176
     1
 40
0.0
176
     1
 90
        0
176
     1
290
     0
176
     1
290
     1
176
     1
290
     1
176
     1
290
     0
176
     1
290
     0
176
     1
290
     0
176
     1
290
     0
176
     1
290
     0
176
     1
290
     0
176
     1
 90
       50
176
     1
 40
0.0
176
     1
 40
1.0
176
     1
 90
        0
176
     1
 62
    18
176
     1
 90
       50
176
     1
 90
        3
176
     1
 62
     5
420
      255
176
     1
290
     0
176
     1
 90
       50
176
     1
 90
       50
176
     1
 90
       50
176
     1
290
     0
176
     1
 90
       50
176
     1
 62
   256
176
     0
 40
1.0
176
     0
 90
        2
176
     1
  1
strokes_ogs.tif
176
     1
290
     0
176
     1
 40
1.0
176
     1
 40
1.0
176
     1
  0
VISUALSTYLE
  5
12D
102
{ACAD_REACTORS
330
12B
102
}
330
12B
100
AcDbVisualStyle
  2
FlatWithEdges
 70
     1
177
     3
291
     1
 70
    58
 90
        2
176
     1
 90
        1
176
     1
 90
        1
176
     1
 90
        2
176
     1
 40
0.6
176
     1
 40
30.0
176
     1
 62
     7
420
 16777215
176
     1
 90
        1
176
     1
 90
        0
176
     1
 62
     7
176
     1
 62
   257
176
     1
 90
        1
176
     1
 90
        1
176
     1
 40
1.0
176
     1
 90
        0
176
     1
 62
   257
176
     1
 40
1.0
176
     1
 90
        1
176
     1
 90
        6
176
     1
 90
        2
176
     1
 62
     7
176
     1
 90
        5
176
     1
 90
        0
176
     1
 90
        0
176
     1
290
     0
176
     1
 90
       13
176
     1
 40
0.0
176
     1
 90
        0
176
     1
290
     0
176
     1
290
     1
176
     1
290
     1
176
     1
290
     0
176
     1
290
     0
176
     1
290
     0
176
     1
290
     0
176
     1
290
     0
176
     1
290
     0
176
     1
 90
       50
176
     1
 40
0.0
176
     1
 40
1.0
176
     1
 90
        0
176
     1
 62
    18
176
     1
 90
       50
176
     1
 90
        3
176
     1
 62
     5
420
      255
176
     1
290
     0
176
     1
 90
       50
176
     1
 90
       50
176
     1
 90
       50
176
     1
290
     0
176
     1
 90
       50
176
     1
 62
   256
176
     0
 40
1.0
176
     0
 90
        2
176
     1
  1
strokes_ogs.tif
176
     1
290
     0
176
     1
 40
1.0
176
     1
 40
1.0
176
     1
  0
VISUALSTYLE
  5
12E
102
{ACAD_REACTORS
330
12B
102
}
330
12B
100
AcDbVisualStyle
  2
Gouraud
 70
     2
177
     3
291
     1
 70
    58
 90
        2
176
     1
 90
        2
176
     1
 90
        1
176
     1
 90
        2
176
     1
 40
0.6
176
     1
 40
30.0
176
     1
 62
     7
420
 16777215
176
     1
 90
        0
176
     1
 90
        0
176
     1
 62
     7
176
     1
 62
   257
176
     1
 90
        1
176
     1
 90
        1
176
     1
 40
1.0
176
     1
 90
        0
176
     1
 62
     7
176
     1
 40
1.0
176
     1
 90
        1
176
     1
 90
        6
176
     1
 90
        2
176
     1
 62
     7
176
     1
 90
        5
176
     1
 90
        0
176
     1
 90
        0
176
     1
290
     0
176
     1
 90
       13
176
     1
 40
0.0
176
     1
 90
        0
176
     1
290
     0
176
     1
290
     1
176
     1
290
     1
176
     1
290
     0
176
     1
290
     0
176
     1
290
     0
176
     1
290
     0
176
     1
290
     0
176
     1
290
     0
176
     1
 90
       50
176
     1
 40
0.0
176
     1
 40
1.0
176
     1
 90
        0
176
     1
 62
    18
176
     1
 90
       50
176
     1
 90
        3
176
     1
 62
     5
420
      255
176
     1
290
     0
176
     1
 90
       50
176
     1
 90
       50
176
     1
 90
       50
176
     1
290
     0
176
     1
 90
       50
176
     1
 62
   256
176
     0
 40
1.0
176
     0
 90
        2
176
     1
  1
strokes_ogs.tif
176
     1
290
     0
176
     1
 40
1.0
176
     1
 40
1.0
176
     1
  0
VISUALSTYLE
  5
12F
102
{ACAD_REACTORS
330
12B
102
}
330
12B
100
AcDbVisualStyle
  2
GouraudWithEdges
 70
     3
177
     3
291
     1
 70
    58
 90
        2
176
     1
 90
        2
176
     1
 90
        1
176
     1
 90
        2
176
     1
 40
0.6
176
     1
 40
30.0
176
     1
 62
     7
420
 16777215
176
     1
 90
        1
176
     1
 90
        0
176
     1
 62
     7
176
     1
 62
   257
176
     1
 90
        1
176
     1
 90
        1
176
     1
 40
1.0
176
     1
 90
        0
176
     1
 62
   257
176
     1
 40
1.0
176
     1
 90
        1
176
     1
 90
        6
176
     1
 90
        2
176
     1
 62
     7
176
     1
 90
        5
176
     1
 90
        0
176
     1
 90
        0
176
     1
290
     0
176
     1
 90
       13
176
     1
 40
0.0
176
     1
 90
        0
176
     1
290
     0
176
     1
290
     1
176
     1
290
     1
176
     1
290
     0
176
     1
290
     0
176
     1
290
     0
176
     1
290
     0
176
     1
290
     0
176
     1
290
     0
176
     1
 90
       50
176
     1
 40
0.0
176
     1
 40
1.0
176
     1
 90
        0
176
     1
 62
    18
176
     1
 90
       50
176
     1
 90
        3
176
     1
 62
     5
420
      255
176
     1
290
     0
176
     1
 90
       50
176
     1
 90
       50
176
     1
 90
       50
176
     1
290
     0
176
     1
 90
       50
176
     1
 62
   256
176
     0
 40
1.0
176
     0
 90
        2
176
     1
  1
strokes_ogs.tif
176
     1
290
     0
176
     1
 40
1.0
176
     1
 40
1.0
176
     1
  0
VISUALSTYLE
  5
133
102
{ACAD_REACTORS
330
12B
102
}
330
12B
100
AcDbVisualStyle
  2
Hidden
 70
     6
177
     3
291
     0
 70
    58
 90
        1
176
     1
 90
        2
176
     1
 90
        2
176
     1
 90
        0
176
     1
 40
0.6
176
     1
 40
30.0
176
     1
 62
     7
420
 16777215
176
     1
 90
        2
176
     1
 90
        2
176
     1
 62
     7
176
     1
 62
   257
176
     1
 90
        2
176
     1
 90
        1
176
     1
 40
40.0
176
     1
 90
        0
176
     1
 62
   257
176
     1
 40
1.0
176
     1
 90
        1
176
     1
 90
        6
176
     1
 90
        2
176
     1
 62
     7
176
     1
 90
        3
176
     1
 90
        0
176
     1
 90
        0
176
     1
290
     0
176
     1
 90
        1
176
     1
 40
0.0
176
     1
 90
        0
176
     1
290
     0
176
     1
290
     1
176
     1
290
     1
176
     1
290
     0
176
     1
290
     0
176
     1
290
     0
176
     1
290
     0
176
     1
290
     0
176
     1
290
     0
176
     1
 90
       50
176
     1
 40
0.0
176
     1
 40
1.0
176
     1
 90
        0
176
     1
 62
    18
176
     1
 90
       50
176
     1
 90
        3
176
     1
 62
     5
420
      255
176
     1
290
     0
176
     1
 90
       50
176
     1
 90
       50
176
     1
 90
       50
176
     1
290
     0
176
     1
 90
       50
176
     1
 62
   256
176
     0
 40
1.0
176
     0
 90
        2
176
     1
  1
strokes_ogs.tif
176
     1
290
     0
176
     1
 40
1.0
176
     1
 40
1.0
176
     1
  0
VISUALSTYLE
  5
141
102
{ACAD_REACTORS
330
12B
102
}
330
12B
100
AcDbVisualStyle
  2
JitterOff
 70
    20
177
     3
291
     1
 70
    58
 90
        2
176
     0
 90
        2
176
     0
 90
        0
176
     0
 90
        0
176
     0
 40
0.6
176
     0
 40
30.0
176
     0
 62
     7
420
 16777215
176
     0
 90
        1
176
     0
 90
        4
176
     0
 62
     7
176
     0
 62
   257
176
     0
 90
        1
176
     0
 90
        1
176
     0
 40
1.0
176
     0
 90
       10
176
     2
 62
     7
176
     0
 40
1.0
176
     0
 90
        1
176
     0
 90
        6
176
     0
 90
        2
176
     0
 62
     7
176
     0
 90
        5
176
     0
 90
        0
176
     0
 90
        0
176
     0
290
     0
176
     0
 90
        1
176
     0
 40
0.0
176
     0
 90
        0
176
     0
290
     0
176
     1
290
     1
176
     1
290
     1
176
     1
290
     0
176
     1
290
     0
176
     1
290
     0
176
     1
290
     0
176
     1
290
     0
176
     1
290
     0
176
     1
 90
       50
176
     0
 40
0.0
176
     0
 40
1.0
176
     0
 90
        0
176
     0
 62
    18
176
     0
 90
       50
176
     0
 90
        3
176
     0
 62
     5
420
      255
176
     0
290
     0
176
     1
 90
       50
176
     0
 90
       50
176
     0
 90
       50
176
     0
290
     0
176
     1
 90
       50
176
     0
 62
   256
176
     0
 40
1.0
176
     0
 90
        2
176
     0
  1
strokes_ogs.tif
176
     0
290
     0
176
     1
 40
1.0
176
     0
 40
1.0
176
     0
  0
VISUALSTYLE
  5
139
102
{ACAD_REACTORS
330
12B
102
}
330
12B
100
AcDbVisualStyle
  2
Linepattern
 70
    14
177
     3
291
     1
 70
    58
 90
        2
176
     1
 90
        2
176
     1
 90
        0
176
     1
 90
        0
176
     1
 40
0.6
176
     1
 40
30.0
176
     1
 62
     7
420
 16777215
176
     1
 90
        1
176
     1
 90
        4
176
     1
 62
     7
176
     1
 62
   257
176
     1
 90
        7
176
     1
 90
        7
176
     1
 40
1.0
176
     1
 90
        8
176
     1
 62
     7
176
     1
 40
1.0
176
     1
 90
        1
176
     1
 90
        6
176
     1
 90
        2
176
     1
 62
     7
176
     1
 90
        5
176
     1
 90
        0
176
     1
 90
        0
176
     1
290
     0
176
     1
 90
        1
176
     1
 40
0.0
176
     1
 90
        0
176
     1
290
     0
176
     1
290
     1
176
     1
290
     1
176
     1
290
     0
176
     1
290
     0
176
     1
290
     0
176
     1
290
     0
176
     1
290
     0
176
     1
290
     0
176
     1
 90
       50
176
     1
 40
0.0
176
     1
 40
1.0
176
     1
 90
        0
176
     1
 62
    18
176
     1
 90
       50
176
     1
 90
        3
176
     1
 62
     5
420
      255
176
     1
290
     0
176
     1
 90
       50
176
     1
 90
       50
176
     1
 90
       50
176
     1
290
     0
176
     1
 90
       50
176
     1
 62
   256
176
     0
 40
1.0
176
     0
 90
        2
176
     1
  1
strokes_ogs.tif
176
     1
290
     0
176
     1
 40
1.0
176
     1
 40
1.0
176
     1
  0
VISUALSTYLE
  5
142
102
{ACAD_REACTORS
330
12B
102
}
330
12B
100
AcDbVisualStyle
  2
OverhangOff
 70
    21
177
     3
291
     1
 70
    58
 90
        2
176
     0
 90
        2
176
     0
 90
        0
176
     0
 90
        0
176
     0
 40
0.6
176
     0
 40
30.0
176
     0
 62
     7
420
 16777215
176
     0
 90
        1
176
     0
 90
        4
176
     0
 62
     7
176
     0
 62
   257
176
     0
 90
        1
176
     0
 90
        1
176
     0
 40
1.0
176
     0
 90
        9
176
     2
 62
     7
176
     0
 40
1.0
176
     0
 90
        1
176
     0
 90
        6
176
     0
 90
        2
176
     0
 62
     7
176
     0
 90
        5
176
     0
 90
        0
176
     0
 90
        0
176
     0
290
     0
176
     0
 90
        1
176
     0
 40
0.0
176
     0
 90
        0
176
     0
290
     0
176
     1
290
     1
176
     1
290
     1
176
     1
290
     0
176
     1
290
     0
176
     1
290
     0
176
     1
290
     0
176
     1
290
     0
176
     1
290
     0
176
     1
 90
       50
176
     0
 40
0.0
176
     0
 40
1.0
176
     0
 90
        0
176
     0
 62
    18
176
     0
 90
       50
176
     0
 90
        3
176
     0
 62
     5
420
      255
176
     0
290
     0
176
     1
 90
       50
176
     0
 90
       50
176
     0
 90
       50
176
     0
290
     0
176
     1
 90
       50
176
     0
 62
   256
176
     0
 40
1.0
176
     0
 90
        2
176
     0
  1
strokes_ogs.tif
176
     0
290
     0
176
     1
 40
1.0
176
     0
 40
1.0
176
     0
  0
VISUALSTYLE
  5
135
102
{ACAD_REACTORS
330
12B
102
}
330
12B
100
AcDbVisualStyle
  2
Realistic
 70
     8
177
     3
291
     0
 70
    58
 90
        2
176
     1
 90
        3
176
     1
 90
        0
176
     1
 90
        2
176
     1
 40
0.6
176
     1
 40
30.0
176
     1
 62
     7
420
 16777215
176
     1
 90
        0
176
     1
 90
        0
176
     1
 62
     7
176
     1
 62
   257
176
     1
 90
        1
176
     1
 90
        1
176
     1
 40
1.0
176
     1
 90
        8
176
     1
 62
   257
176
     1
 40
1.0
176
     1
 90
        1
176
     1
 90
        6
176
     1
 90
        2
176
     1
 62
     7
176
     1
 90
        3
176
     1
 90
        0
176
     1
 90
        0
176
     1
290
     0
176
     1
 90
       13
176
     1
 40
0.0
176
     1
 90
        0
176
     1
290
     0
176
     1
290
     1
176
     1
290
     1
176
     1
290
     0
176
     1
290
     0
176
     1
290
     0
176
     1
290
     0
176
     1
290
     0
176
     1
290
     0
176
     1
 90
       50
176
     1
 40
0.0
176
     1
 40
1.0
176
     1
 90
        0
176
     1
 62
    18
176
     1
 90
       50
176
     1
 90
        3
176
     1
 62
     5
420
      255
176
     1
290
     0
176
     1
 90
       50
176
     1
 90
       50
176
     1
 90
       50
176
     1
290
     0
176
     1
 90
       50
176
     1
 62
   256
176
     0
 40
1.0
176
     0
 90
        2
176
     1
  1
strokes_ogs.tif
176
     1
290
     0
176
     1
 40
1.0
176
     1
 40
1.0
176
     1
  0
VISUALSTYLE
  5
140
102
{ACAD_REACTORS
330
12B
102
}
330
12B
100
AcDbVisualStyle
  2
Shaded
 70
    27
177
     3
291
     0
 70
    58
 90
        2
176
     1
 90
        2
176
     1
 90
        1
176
     1
 90
        2
176
     1
 40
0.6
176
     1
 40
30.0
176
     1
 62
     7
420
 16777215
176
     1
 90
        0
176
     1
 90
        4
176
     1
 62
     7
176
     1
 62
   257
176
     1
 90
        1
176
     1
 90
        1
176
     1
 40
1.0
176
     1
 90
        8
176
     1
 62
   257
176
     1
 40
1.0
176
     1
 90
        1
176
     1
 90
        6
176
     1
 90
        2
176
     1
 62
     8
420
  7895160
176
     1
 90
        3
176
     1
 90
        0
176
     1
 90
        0
176
     1
290
     0
176
     1
 90
        5
176
     1
 40
0.0
176
     1
 90
        0
176
     1
290
     0
176
     1
290
     1
176
     1
290
     1
176
     1
290
     0
176
     1
290
     0
176
     1
290
     0
176
     1
290
     0
176
     1
290
     0
176
     1
290
     0
176
     1
 90
       50
176
     1
 40
0.0
176
     1
 40
1.0
176
     1
 90
        0
176
     1
 62
    18
176
     1
 90
       50
176
     1
 90
        3
176
     1
 62
     5
420
      255
176
     1
290
     0
176
     1
 90
       50
176
     1
 90
       50
176
     1
 90
       50
176
     1
290
     0
176
     1
 90
       50
176
     1
 62
   256
176
     0
 40
1.0
176
     0
 90
        2
176
     1
  1
strokes_ogs.tif
176
     1
290
     0
176
     1
 40
1.0
176
     1
 40
1.0
176
     1
  0
VISUALSTYLE
  5
13F
102
{ACAD_REACTORS
330
12B
102
}
330
12B
100
AcDbVisualStyle
  2
Shaded with edges
 70
    26
177
     3
291
     0
 70
    58
 90
        2
176
     1
 90
        2
176
     1
 90
        1
176
     1
 90
        2
176
     1
 40
0.6
176
     1
 40
30.0
176
     1
 62
     7
420
 16777215
176
     1
 90
        1
176
     1
 90
        2
176
     1
 62
     7
176
     1
 62
   257
176
     1
 90
        2
176
     1
 90
        1
176
     1
 40
1.0
176
     1
 90
        8
176
     1
 62
   257
176
     1
 40
1.0
176
     1
 90
        1
176
     1
 90
        6
176
     1
 90
        2
176
     1
 62
     7
176
     1
 90
        3
176
     1
 90
        0
176
     1
 90
        0
176
     1
290
     0
176
     1
 90
        5
176
     1
 40
0.0
176
     1
 90
        0
176
     1
290
     0
176
     1
290
     1
176
     1
290
     1
176
     1
290
     0
176
     1
290
     0
176
     1
290
     0
176
     1
290
     0
176
     1
290
     0
176
     1
290
     0
176
     1
 90
       50
176
     1
 40
0.0
176
     1
 40
1.0
176
     1
 90
        0
176
     1
 62
    18
176
     1
 90
       50
176
     1
 90
        3
176
     1
 62
     5
420
      255
176
     1
290
     0
176
     1
 90
       50
176
     1
 90
       50
176
     1
 90
       50
176
     1
290
     0
176
     1
 90
       50
176
     1
 62
   256
176
     0
 40
1.0
176
     0
 90
        2
176
     1
  1
strokes_ogs.tif
176
     1
290
     0
176
     1
 40
1.0
176
     1
 40
1.0
176
     1
  0
VISUALSTYLE
  5
13C
102
{ACAD_REACTORS
330
12B
102
}
330
12B
100
AcDbVisualStyle
  2
Shades of Gray
 70
    23
177
     3
291
     0
 70
    58
 90
        2
176
     1
 90
        2
176
     1
 90
        3
176
     1
 90
        0
176
     1
 40
0.6
176
     1
 40
30.0
176
     1
 62
     7
420
 16777215
176
     1
 90
        2
176
     1
 90
        2
176
     1
 62
     7
176
     1
 62
     7
176
     1
 90
        1
176
     1
 90
        1
176
     1
 40
40.0
176
     1
 90
        8
176
     1
 62
     7
176
     1
 40
1.0
176
     1
 90
        1
176
     1
 90
        6
176
     1
 90
        2
176
     1
 62
     7
176
     1
 90
        3
176
     1
 90
        0
176
     1
 90
        0
176
     1
290
     0
176
     1
 90
        1
176
     1
 40
0.0
176
     1
 90
        0
176
     1
290
     0
176
     1
290
     1
176
     1
290
     1
176
     1
290
     0
176
     1
290
     0
176
     1
290
     0
176
     1
290
     0
176
     1
290
     0
176
     1
290
     0
176
     1
 90
       50
176
     1
 40
0.0
176
     1
 40
1.0
176
     1
 90
        0
176
     1
 62
    18
176
     1
 90
       50
176
     1
 90
        3
176
     1
 62
     5
420
      255
176
     1
290
     0
176
     1
 90
       50
176
     1
 90
       50
176
     1
 90
       50
176
     1
290
     0
176
     1
 90
       50
176
     1
 62
   256
176
     0
 40
1.0
176
     0
 90
        2
176
     1
  1
strokes_ogs.tif
176
     1
290
     0
176
     1
 40
1.0
176
     1
 40
1.0
176
     1
  0
VISUALSTYLE
  5
13D
102
{ACAD_REACTORS
330
12B
102
}
330
12B
100
AcDbVisualStyle
  2
Sketchy
 70
    24
177
     3
291
     0
 70
    58
 90
        1
176
     1
 90
        2
176
     1
 90
        2
176
     1
 90
        0
176
     1
 40
0.6
176
     1
 40
30.0
176
     1
 62
     7
420
 16777215
176
     1
 90
        2
176
     1
 90
        2
176
     1
 62
     7
176
     1
 62
     7
176
     1
 90
        1
176
     1
 90
        1
176
     1
 40
40.0
176
     1
 90
       11
176
     1
 62
     7
176
     1
 40
1.0
176
     1
 90
        1
176
     1
 90
        6
176
     1
 90
        2
176
     1
 62
     7
176
     1
 90
        6
176
     1
 90
        0
176
     1
 90
        0
176
     1
290
     0
176
     1
 90
        1
176
     1
 40
0.0
176
     1
 90
        0
176
     1
290
     0
176
     1
290
     1
176
     1
290
     1
176
     1
290
     0
176
     1
290
     0
176
     1
290
     0
176
     1
290
     0
176
     1
290
     0
176
     1
290
     0
176
     1
 90
       50
176
     1
 40
0.0
176
     1
 40
1.0
176
     1
 90
        0
176
     1
 62
    18
176
     1
 90
       50
176
     1
 90
        3
176
     1
 62
     5
420
      255
176
     1
290
     0
176
     1
 90
       50
176
     1
 90
       50
176
     1
 90
       50
176
     1
290
     0
176
     1
 90
       50
176
     1
 62
   256
176
     0
 40
1.0
176
     0
 90
        2
176
     1
  1
strokes_ogs.tif
176
     1
290
     0
176
     1
 40
1.0
176
     1
 40
1.0
176
     1
  0
VISUALSTYLE
  5
138
102
{ACAD_REACTORS
330
12B
102
}
330
12B
100
AcDbVisualStyle
  2
Thicken
 70
    13
177
     3
291
     1
 70
    58
 90
        2
176
     1
 90
        2
176
     1
 90
        0
176
     1
 90
        0
176
     1
 40
0.6
176
     1
 40
30.0
176
     1
 62
     7
420
 16777215
176
     1
 90
        1
176
     1
 90
        4
176
     1
 62
     7
176
     1
 62
   257
176
     1
 90
        1
176
     1
 90
        1
176
     1
 40
1.0
176
     1
 90
       12
176
     1
 62
     7
176
     1
 40
1.0
176
     1
 90
        1
176
     1
 90
        6
176
     1
 90
        2
176
     1
 62
     7
176
     1
 90
        5
176
     1
 90
        0
176
     1
 90
        0
176
     1
290
     0
176
     1
 90
        1
176
     1
 40
0.0
176
     1
 90
        0
176
     1
290
     0
176
     1
290
     1
176
     1
290
     1
176
     1
290
     0
176
     1
290
     0
176
     1
290
     0
176
     1
290
     0
176
     1
290
     0
176
     1
290
     0
176
     1
 90
       50
176
     1
 40
0.0
176
     1
 40
1.0
176
     1
 90
        0
176
     1
 62
    18
176
     1
 90
       50
176
     1
 90
        3
176
     1
 62
     5
420
      255
176
     1
290
     0
176
     1
 90
       50
176
     1
 90
       50
176
     1
 90
       50
176
     1
290
     0
176
     1
 90
       50
176
     1
 62
   256
176
     0
 40
1.0
176
     0
 90
        2
176
     1
  1
strokes_ogs.tif
176
     1
290
     0
176
     1
 40
1.0
176
     1
 40
1.0
176
     1
  0
VISUALSTYLE
  5
132
102
{ACAD_REACTORS
330
12B
102
}
330
12B
100
AcDbVisualStyle
  2
Wireframe
 70
     5
177
     3
291
     0
 70
    58
 90
        0
176
     1
 90
        2
176
     1
 90
        0
176
     1
 90
        0
176
     1
 40
0.6
176
     1
 40
30.0
176
     1
 62
     7
420
 16777215
176
     1
 90
        1
176
     1
 90
        4
176
     1
 62
     7
176
     1
 62
   257
176
     1
 90
        1
176
     1
 90
        1
176
     1
 40
1.0
176
     1
 90
        0
176
     1
 62
   257
176
     1
 40
1.0
176
     1
 90
        1
176
     1
 90
        6
176
     1
 90
        2
176
     1
 62
     7
176
     1
 90
        3
176
     1
 90
        0
176
     1
 90
        0
176
     1
290
     0
176
     1
 90
        1
176
     1
 40
0.0
176
     1
 90
        0
176
     1
290
     0
176
     1
290
     1
176
     1
290
     1
176
     1
290
     0
176
     1
290
     0
176
     1
290
     0
176
     1
290
     0
176
     1
290
     0
176
     1
290
     0
176
     1
 90
       50
176
     1
 40
0.0
176
     1
 40
1.0
176
     1
 90
        0
176
     1
 62
    18
176
     1
 90
       50
176
     1
 90
        3
176
     1
 62
     5
420
      255
176
     1
290
     0
176
     1
 90
       50
176
     1
 90
       50
176
     1
 90
       50
176
     1
290
     0
176
     1
 90
       50
176
     1
 62
   256
176
     0
 40
1.0
176
     0
 90
        2
176
     1
  1
strokes_ogs.tif
176
     1
290
     0
176
     1
 40
1.0
176
     1
 40
1.0
176
     1
  0
VISUALSTYLE
  5
13E
102
{ACAD_REACTORS
330
12B
102
}
330
12B
100
AcDbVisualStyle
  2
X-Ray
 70
    25
177
     3
291
     0
 70
    58
 90
        2
176
     1
 90
        2
176
     1
 90
        1
176
     1
 90
        1
176
     1
 40
0.5
176
     1
 40
30.0
176
     1
 62
     7
420
 16777215
176
     1
 90
        1
176
     1
 90
        0
176
     1
 62
     7
176
     1
 62
   257
176
     1
 90
        1
176
     1
 90
        1
176
     1
 40
1.0
176
     1
 90
        8
176
     1
 62
     7
176
     1
 40
1.0
176
     1
 90
        1
176
     1
 90
        6
176
     1
 90
        2
176
     1
 62
     7
176
     1
 90
        3
176
     1
 90
        0
176
     1
 90
        0
176
     1
290
     0
176
     1
 90
       13
176
     1
 40
0.0
176
     1
 90
        0
176
     1
290
     0
176
     1
290
     1
176
     1
290
     1
176
     1
290
     0
176
     1
290
     0
176
     1
290
     0
176
     1
290
     0
176
     1
290
     0
176
     1
290
     0
176
     1
 90
       50
176
     1
 40
0.0
176
     1
 40
1.0
176
     1
 90
        0
176
     1
 62
    18
176
     1
 90
       50
176
     1
 90
        3
176
     1
 62
     5
420
      255
176
     1
290
     0
176
     1
 90
       50
176
     1
 90
       50
176
     1
 90
       50
176
     1
290
     0
176
     1
 90
       50
176
     1
 62
   256
176
     0
 40
1.0
176
     0
 90
        2
176
     1
  1
strokes_ogs.tif
176
     1
290
     0
176
     1
 40
1.0
176
     1
 40
1.0
176
     1
  0
DICTIONARYVAR
  5
774
102
{ACAD_REACTORS
330
76E
102
}
330
76E
100
DictionaryVariables
280
     0
  1
1:1
  0
DICTIONARYVAR
  5
770
102
{ACAD_REACTORS
330
76E
102
}
330
76E
100
DictionaryVariables
280
     0
  1
STANDARD
  0
DICTIONARYVAR
  5
76F
102
{ACAD_REACTORS
330
76E
102
}
330
76E
100
DictionaryVariables
280
     0
  1
STANDARD
  0
DICTIONARYVAR
  5
771
102
{ACAD_REACTORS
330
76E
102
}
330
76E
100
DictionaryVariables
280
     0
  1
Metric50
  0
DICTIONARYVAR
  5
772
102
{ACAD_REACTORS
330
76E
102
}
330
76E
100
DictionaryVariables
280
     0
  1
Metric50
  0
DICTIONARYVAR
  5
776
102
{ACAD_REACTORS
330
76E
102
}
330
76E
100
DictionaryVariables
280
     0
  1
1
  0
DICTIONARYVAR
  5
777
102
{ACAD_REACTORS
330
76E
102
}
330
76E
100
DictionaryVariables
280
     0
  1
15
  0
DICTIONARYVAR
  5
775
102
{ACAD_REACTORS
330
76E
102
}
330
76E
100
DictionaryVariables
280
     0
  1
0
  0
DICTIONARYVAR
  5
773
102
{ACAD_REACTORS
330
76E
102
}
330
76E
100
DictionaryVariables
280
     0
  1
0
  0
DICTIONARY
  5
11C
330
11B
100
AcDbDictionary
280
     1
281
     1
  3
BUMPTILE
360
11E
  3
DIFFUSETILE
360
11D
  3
OPACITYTILE
360
121
  3
REFLECTIONTILE
360
120
  3
REFRACTIONTILE
360
122
  3
SPECULARTILE
360
11F
  0
DICTIONARY
  5
114
330
113
100
AcDbDictionary
280
     1
281
     1
  3
BUMPTILE
360
116
  3
DIFFUSETILE
360
115
  3
OPACITYTILE
360
119
  3
REFLECTIONTILE
360
118
  3
REFRACTIONTILE
360
11A
  3
SPECULARTILE
360
117
  0
DICTIONARY
  5
124
330
123
100
AcDbDictionary
280
     1
281
     1
  3
BUMPTILE
360
126
  3
DIFFUSETILE
360
125
  3
OPACITYTILE
360
129
  3
REFLECTIONTILE
360
128
  3
REFRACTIONTILE
360
12A
  3
SPECULARTILE
360
127
  0
DICTIONARY
  5
778
330
146
100
AcDbDictionary
280
     1
281
     1
  3
ACAD_ROUNDTRIP_2008_TABLESTYLE_CELLSTYLEMAP
360
92D
  0
XRECORD
  5
11E
102
{ACAD_REACTORS
330
11C
102
}
330
11C
100
AcDbXrecord
280
     1
270
     1
271
     1
  0
XRECORD
  5
11D
102
{ACAD_REACTORS
330
11C
102
}
330
11C
100
AcDbXrecord
280
     1
270
     1
271
     1
  0
XRECORD
  5
121
102
{ACAD_REACTORS
330
11C
102
}
330
11C
100
AcDbXrecord
280
     1
270
     1
271
     1
  0
XRECORD
  5
120
102
{ACAD_REACTORS
330
11C
102
}
330
11C
100
AcDbXrecord
280
     1
270
     1
271
     1
  0
XRECORD
  5
122
102
{ACAD_REACTORS
330
11C
102
}
330
11C
100
AcDbXrecord
280
     1
270
     1
271
     1
  0
XRECORD
  5
11F
102
{ACAD_REACTORS
330
11C
102
}
330
11C
100
AcDbXrecord
280
     1
270
     1
271
     1
  0
XRECORD
  5
116
102
{ACAD_REACTORS
330
114
102
}
330
114
100
AcDbXrecord
280
     1
270
     1
271
     1
  0
XRECORD
  5
115
102
{ACAD_REACTORS
330
114
102
}
330
114
100
AcDbXrecord
280
     1
270
     1
271
     1
  0
XRECORD
  5
119
102
{ACAD_REACTORS
330
114
102
}
330
114
100
AcDbXrecord
280
     1
270
     1
271
     1
  0
XRECORD
  5
118
102
{ACAD_REACTORS
330
114
102
}
330
114
100
AcDbXrecord
280
     1
270
     1
271
     1
  0
XRECORD
  5
11A
102
{ACAD_REACTORS
330
114
102
}
330
114
100
AcDbXrecord
280
     1
270
     1
271
     1
  0
XRECORD
  5
117
102
{ACAD_REACTORS
330
114
102
}
330
114
100
AcDbXrecord
280
     1
270
     1
271
     1
  0
XRECORD
  5
126
102
{ACAD_REACTORS
330
124
102
}
330
124
100
AcDbXrecord
280
     1
270
     1
271
     1
  0
XRECORD
  5
125
102
{ACAD_REACTORS
330
124
102
}
330
124
100
AcDbXrecord
280
     1
270
     1
271
     1
  0
XRECORD
  5
129
102
{ACAD_REACTORS
330
124
102
}
330
124
100
AcDbXrecord
280
     1
270
     1
271
     1
  0
XRECORD
  5
128
102
{ACAD_REACTORS
330
124
102
}
330
124
100
AcDbXrecord
280
     1
270
     1
271
     1
  0
XRECORD
  5
12A
102
{ACAD_REACTORS
330
124
102
}
330
124
100
AcDbXrecord
280
     1
270
     1
271
     1
  0
XRECORD
  5
127
102
{ACAD_REACTORS
330
124
102
}
330
124
100
AcDbXrecord
280
     1
270
     1
271
     1
  0
CELLSTYLEMAP
  5
92D
102
{ACAD_REACTORS
330
778
102
}
330
778
100
AcDbCellStyleMap
 90
        3
300
CELLSTYLE
  1
TABLEFORMAT_BEGIN
 90
        5
170
     1
 91
        0
 92
    32768
 62
   257
 93
        1
300
CONTENTFORMAT
  1
CONTENTFORMAT_BEGIN
 90
        0
 91
        0
 92
      512
 93
        0
300

 40
0.0
140
1.0
 94
        5
 62
     0
340
11
144
6.0
309
CONTENTFORMAT_END
171
     1
301
MARGIN
  1
CELLMARGIN_BEGIN
 40
1.5
 40
1.5
 40
1.5
 40
1.5
 40
0.18
 40
0.18
309
CELLMARGIN_END
 94
        6
 95
        1
302
GRIDFORMAT
  1
GRIDFORMAT_BEGIN
 90
        0
 91
        1
 62
     0
 92
       -2
340
0
 93
        0
 40
1.125
309
GRIDFORMAT_END
 95
        2
302
GRIDFORMAT
  1
GRIDFORMAT_BEGIN
 90
        0
 91
        1
 62
     0
 92
       -2
340
0
 93
        0
 40
1.125
309
GRIDFORMAT_END
 95
        4
302
GRIDFORMAT
  1
GRIDFORMAT_BEGIN
 90
        0
 91
        1
 62
     0
 92
       -2
340
0
 93
        0
 40
1.125
309
GRIDFORMAT_END
 95
        8
302
GRIDFORMAT
  1
GRIDFORMAT_BEGIN
 90
        0
 91
        1
 62
     0
 92
       -2
340
0
 93
        0
 40
1.125
309
GRIDFORMAT_END
 95
       16
302
GRIDFORMAT
  1
GRIDFORMAT_BEGIN
 90
        0
 91
        1
 62
     0
 92
       -2
340
0
 93
        0
 40
1.125
309
GRIDFORMAT_END
 95
       32
302
GRIDFORMAT
  1
GRIDFORMAT_BEGIN
 90
        0
 91
        1
 62
     0
 92
       -2
340
0
 93
        0
 40
1.125
309
GRIDFORMAT_END
309
TABLEFORMAT_END
  1
CELLSTYLE_BEGIN
 90
        1
 91
        1
300
_TITLE
309
CELLSTYLE_END
300
CELLSTYLE
  1
TABLEFORMAT_BEGIN
 90
        5
170
     1
 91
        0
 92
        0
 62
   257
 93
        1
300
CONTENTFORMAT
  1
CONTENTFORMAT_BEGIN
 90
        0
 91
        0
 92
      512
 93
        0
300

 40
0.0
140
1.0
 94
        5
 62
     0
340
11
144
4.5
309
CONTENTFORMAT_END
171
     1
301
MARGIN
  1
CELLMARGIN_BEGIN
 40
1.5
 40
1.5
 40
1.5
 40
1.5
 40
0.18
 40
0.18
309
CELLMARGIN_END
 94
        6
 95
        1
302
GRIDFORMAT
  1
GRIDFORMAT_BEGIN
 90
        0
 91
        1
 62
     0
 92
       -2
340
0
 93
        0
 40
1.125
309
GRIDFORMAT_END
 95
        2
302
GRIDFORMAT
  1
GRIDFORMAT_BEGIN
 90
        0
 91
        1
 62
     0
 92
       -2
340
0
 93
        0
 40
1.125
309
GRIDFORMAT_END
 95
        4
302
GRIDFORMAT
  1
GRIDFORMAT_BEGIN
 90
        0
 91
        1
 62
     0
 92
       -2
340
0
 93
        0
 40
1.125
309
GRIDFORMAT_END
 95
        8
302
GRIDFORMAT
  1
GRIDFORMAT_BEGIN
 90
        0
 91
        1
 62
     0
 92
       -2
340
0
 93
        0
 40
1.125
309
GRIDFORMAT_END
 95
       16
302
GRIDFORMAT
  1
GRIDFORMAT_BEGIN
 90
        0
 91
        1
 62
     0
 92
       -2
340
0
 93
        0
 40
1.125
309
GRIDFORMAT_END
 95
       32
302
GRIDFORMAT
  1
GRIDFORMAT_BEGIN
 90
        0
 91
        1
 62
     0
 92
       -2
340
0
 93
        0
 40
1.125
309
GRIDFORMAT_END
309
TABLEFORMAT_END
  1
CELLSTYLE_BEGIN
 90
        2
 91
        1
300
_HEADER
309
CELLSTYLE_END
300
CELLSTYLE
  1
TABLEFORMAT_BEGIN
 90
        5
170
     1
 91
        0
 92
        0
 62
   257
 93
        1
300
CONTENTFORMAT
  1
CONTENTFORMAT_BEGIN
 90
        0
 91
        0
 92
      512
 93
        0
300

 40
0.0
140
1.0
 94
        2
 62
     0
340
11
144
4.5
309
CONTENTFORMAT_END
171
     1
301
MARGIN
  1
CELLMARGIN_BEGIN
 40
1.5
 40
1.5
 40
1.5
 40
1.5
 40
0.18
 40
0.18
309
CELLMARGIN_END
 94
        6
 95
        1
302
GRIDFORMAT
  1
GRIDFORMAT_BEGIN
 90
        0
 91
        1
 62
     0
 92
       -2
340
0
 93
        0
 40
1.125
309
GRIDFORMAT_END
 95
        2
302
GRIDFORMAT
  1
GRIDFORMAT_BEGIN
 90
        0
 91
        1
 62
     0
 92
       -2
340
0
 93
        0
 40
1.125
309
GRIDFORMAT_END
 95
        4
302
GRIDFORMAT
  1
GRIDFORMAT_BEGIN
 90
        0
 91
        1
 62
     0
 92
       -2
340
0
 93
        0
 40
1.125
309
GRIDFORMAT_END
 95
        8
302
GRIDFORMAT
  1
GRIDFORMAT_BEGIN
 90
        0
 91
        1
 62
     0
 92
       -2
340
0
 93
        0
 40
1.125
309
GRIDFORMAT_END
 95
       16
302
GRIDFORMAT
  1
GRIDFORMAT_BEGIN
 90
        0
 91
        1
 62
     0
 92
       -2
340
0
 93
        0
 40
1.125
309
GRIDFORMAT_END
 95
       32
302
GRIDFORMAT
  1
GRIDFORMAT_BEGIN
 90
        0
 91
        1
 62
     0
 92
       -2
340
0
 93
        0
 40
1.125
309
GRIDFORMAT_END
309
TABLEFORMAT_END
  1
CELLSTYLE_BEGIN
 90
        3
 91
        2
300
_DATA
309
CELLSTYLE_END
  0
ENDSEC
  0
EOF
